<!DOCTYPE svg PUBLIC "-//W3C//DTD SVG 1.1//EN" "https://www.w3.org/Graphics/SVG/1.1/DTD/svg11.dtd"><svg xmlns="http://www.w3.org/2000/svg" class="sc-bDpDS hIXa-DQ graph" data-testid="graph" role="img" aria-labelledby="polymath-graph-title" width="1656" height="1367"><title id="polymath-graph-title">Workflow Studio State Machine Graph</title><g transform="translate(12,12)" class="new-look-graph"><g class="nodes"><g class="node-container" transform="translate(815.75,22)"><g><circle class="sc-hknOHE gHgSNu shape" r="22"/><text class="sc-fBWQRz kzYAMD label"><tspan xml:space="preserve" text-anchor="middle" alignment-baseline="central">Start</tspan></text></g></g><g class="node-container" transform="translate(815.75,103.5)"><g class="sc-ikkxIA lodPSx node state Pass" data-testid="graph-Set variables from inputs" data-state-id="Set variables from inputs" data-state-type="Pass"><g class="new-look-state-node "><rect x="-120.5" y="-24.5" width="241" height="49" rx="3" ry="3"/><g class="handle" transform="translate(-120.5,-24.5)"><path d="M5,16 L5,34 M8,16 L8,34"/></g><g class="icon" transform="translate(-104.5,-24)"><rect fill="var(--color-background-container-header-etndi4, #fafafa)" x="0.0361026108" y="0.0181291967" width="48" height="48"/><line x1="47.5" y1="0.49122807" x2="47.5" y2="47.5" stroke="var(--color-board-placeholder-active-qurjro, #d5dbdb)" stroke-linecap="square"/><line x1="0.5" y1="0.49122807" x2="0.5" y2="47.5" stroke="var(--color-board-placeholder-active-qurjro, #d5dbdb)" stroke-linecap="square"/><use href="#icon-flow-pass"/></g><g class="text-lines" transform="translate(-48.5,-24.5)"><text transform="translate(0,17)" class="line1"><tspan xml:space="preserve" text-anchor="start">Pass state</tspan></text><text transform="translate(0,35.5)" class="line2 label"><tspan xml:space="preserve" text-anchor="start">Set variables from inputs</tspan></text></g></g></g></g><g class="node-container" transform="translate(815.75,187.5)"><g class="sc-ikkxIA lodPSx node state Task" data-testid="graph-Generate copy job list" data-state-id="Generate copy job list" data-state-type="Task"><g class="new-look-state-node "><rect x="-120" y="-24.5" width="240" height="49" rx="3" ry="3"/><g class="handle" transform="translate(-120,-24.5)"><path d="M5,16 L5,34 M8,16 L8,34"/></g><g class="icon" transform="translate(-104,-24)"><rect fill="var(--color-background-container-header-etndi4, #fafafa)" x="0.0361026108" y="0.0181291967" width="48" height="48"/><line x1="47.5" y1="0.49122807" x2="47.5" y2="47.5" stroke="var(--color-board-placeholder-active-qurjro, #d5dbdb)" stroke-linecap="square"/><line x1="0.5" y1="0.49122807" x2="0.5" y2="47.5" stroke="var(--color-board-placeholder-active-qurjro, #d5dbdb)" stroke-linecap="square"/><use href="#icon-service-lam" aria-hidden="true"><title>Lambda</title></use></g><g class="text-lines" transform="translate(-48,-24.5)"><text transform="translate(0,17)" class="line1"><tspan xml:space="preserve" text-anchor="start">Lambda: Invoke</tspan></text><text transform="translate(0,35.5)" class="line2 label"><tspan xml:space="preserve" text-anchor="start">Generate copy job list</tspan></text></g></g></g></g><g class="node-container" transform="translate(815.75,713.25)"><g class="sc-ikkxIA lodPSx node state container Parallel" data-testid="graph-Run top level and recursive in parallel" data-state-id="Run top level and recursive in parallel" data-state-type="Parallel"><g class="new-look-state-node "><g class="bounding-box" transform="translate(0,5)"><rect class="sc-hCPjZK fZMwc shape" rx="7" ry="7" x="-815.75" y="-466.25" width="1631.5" height="927.5"/><g class="content" transform="translate(-815.75,-466.25)"><g class="branch" transform="translate(20,89)"><g class="branchInsertArea" data-insertion-index="0" data-parent-state-id="Run top level and recursive in parallel" id="Run top level and recursive in parallel:0" x="-20" y="0" width="20" height="818.5"><rect x="-20" y="0" width="20" height="818.5" stroke="none" fill="none"/><path d="M-10,0 l0,818.5" stroke="none" fill="none"/></g><g transform=""><g class="nodes"><g class="node-container" transform="translate(645.75,24.5)"><g class="sc-ikkxIA lodPSx node state Task" data-testid="graph-Find files with single multipart uploads" data-state-id="Find files with single multipart uploads" data-state-type="Task"><g class="new-look-state-node "><rect x="-164.5" y="-24.5" width="329" height="49" rx="3" ry="3"/><g class="handle" transform="translate(-164.5,-24.5)"><path d="M5,16 L5,34 M8,16 L8,34"/></g><g class="icon" transform="translate(-148.5,-24)"><rect fill="var(--color-background-container-header-etndi4, #fafafa)" x="0.0361026108" y="0.0181291967" width="48" height="48"/><line x1="47.5" y1="0.49122807" x2="47.5" y2="47.5" stroke="var(--color-board-placeholder-active-qurjro, #d5dbdb)" stroke-linecap="square"/><line x1="0.5" y1="0.49122807" x2="0.5" y2="47.5" stroke="var(--color-board-placeholder-active-qurjro, #d5dbdb)" stroke-linecap="square"/><use href="#icon-service-lam" aria-hidden="true"><title>Lambda</title></use></g><g class="text-lines" transform="translate(-92.5,-24.5)"><text transform="translate(0,17)" class="line1"><tspan xml:space="preserve" text-anchor="start">Lambda: Invoke</tspan></text><text transform="translate(0,35.5)" class="line2 label"><tspan xml:space="preserve" text-anchor="start">Find files with single multipart uploads</tspan></text></g></g></g></g><g class="node-container" transform="translate(645.75,383.75)"><g class="sc-ikkxIA lodPSx node state container Parallel" data-testid="graph-Parallel" data-state-id="Parallel" data-state-type="Parallel"><g class="new-look-state-node "><g class="bounding-box" transform="translate(0,5)"><rect class="sc-hCPjZK fZMwc shape" rx="7" ry="7" x="-645.75" y="-299.75" width="1291.5" height="594.5"/><g class="content" transform="translate(-645.75,-299.75)"><g class="branch" transform="translate(20,89)"><g class="branchInsertArea" data-insertion-index="0" data-parent-state-id="Parallel" id="Parallel:0" x="-20" y="0" width="20" height="485.5"><rect x="-20" y="0" width="20" height="485.5" stroke="none" fill="none"/><path d="M-10,0 l0,485.5" stroke="none" fill="none"/></g><g transform=""><g class="nodes"><g class="node-container" transform="translate(140,144.5)"><g class="sc-ikkxIA lodPSx node state container Map" data-state-id="Upload single file" data-state-type="Map"><g class="new-look-state-node "><g class="bounding-box" transform="translate(0,5)"><g class="shape new-look-state-node-sub"><rect rx="3" ry="3" x="-140" y="-144.5" width="280" height="284" class="sc-hCPjZK fZMwc"/><rect x="-105" y="-100.5" width="210" height="26" class="sc-hCPjZK sc-Nxspf fZMwc kYgSu"/><svg x="-90" y="-104" width="25" height="25" viewBox="0 -8 25 25" xmlns="http://www.w3.org/2000/svg"><g id="Symbols" stroke="none" stroke-width="1" fill="none" fill-rule="evenodd" opacity="0.867687044"><g id="ONE-MAP---graph---inline-map" transform="translate(-55.000000, -217.000000)" fill="#687078" fill-rule="nonzero"><g id="Group-15" transform="translate(36.000000, 213.000000)"><g id="script" transform="translate(19.000000, 4.000000)"><path d="M11.60121,15.4462891 C12.5601274,15.4462891 13.2010167,15.2896753 13.5238779,14.9764478 C13.8467393,14.6632203 14.0081699,14.0388817 14.0081699,13.1034319 L14.0081699,12.7383526 C14.0081699,12.1034319 14.1135348,10.6632203 14.3242646,10.4177176 C14.5349944,10.172215 14.9129549,10.0494637 15.4581458,10.0494637 L15.8177397,10.0494637 L15.8177397,6.83676525 L15.4581458,6.83676525 C14.9129549,6.83676525 14.5349944,6.71507213 14.3242646,6.47168589 C14.1135348,6.22829964 14.0081699,4.7870298 14.0081699,4.14787636 L14.0081699,3.782797 C14.0081699,2.84734726 13.8467393,2.22406684 13.5238779,1.91295573 C13.2010167,1.60184462 12.5601274,1.44628906 11.60121,1.44628906 L9.8177397,1.44628906 L9.8177397,3.65263827 L10.519528,3.65263827 C10.9255213,3.65263827 11.1971501,3.74364356 11.3344144,3.92565414 C11.4716788,4.10766472 11.540311,5.49708271 11.540311,6.09390811 L11.540311,6.42089224 C11.540311,7.11930494 11.6340761,7.61031023 11.8216063,7.89390811 C12.0091365,8.17750599 12.3464975,8.35951658 12.8336895,8.43993986 C12.3503642,8.52882875 12.0139698,8.71718853 11.8245063,9.00501922 C11.6350428,9.29284991 11.540311,9.7838552 11.540311,10.4780351 L11.540311,10.7796224 C11.540311,11.3849134 11.4707122,12.7785642 11.3315144,12.9605748 C11.1923168,13.1425854 10.9216547,13.2335906 10.519528,13.2335906 L9.8177397,13.2335906 L9.8177397,15.4462891 L11.60121,15.4462891 Z" id="}"/><path d="M3.03295652,15.4462891 C3.99187387,15.4462891 4.63276319,15.2896753 4.95562448,14.9764478 C5.27848577,14.6632203 5.43991641,14.0388817 5.43991641,13.1034319 L5.43991641,12.7383526 C5.43991641,12.1034319 5.54528132,10.6632203 5.75601114,10.4177176 C5.96674096,10.172215 6.34470133,10.0494637 6.88989225,10.0494637 L7.24948625,10.0494637 L7.24948625,6.83676525 L6.88989225,6.83676525 C6.34470133,6.83676525 5.96674096,6.71507213 5.75601114,6.47168589 C5.54528132,6.22829964 5.43991641,4.7870298 5.43991641,4.14787636 L5.43991641,3.782797 C5.43991641,2.84734726 5.27848577,2.22406684 4.95562448,1.91295573 C4.63276319,1.60184462 3.99187387,1.44628906 3.03295652,1.44628906 L1.24948625,1.44628906 L1.24948625,3.65263827 L1.95127455,3.65263827 C2.35726778,3.65263827 2.62889659,3.74364356 2.76616097,3.92565414 C2.90342535,4.10766472 2.97205754,4.49708271 2.97205754,5.09390811 L2.97205754,5.42089224 C2.97205754,6.11930494 3.06582265,7.61031023 3.25335285,7.89390811 C3.44088306,8.17750599 3.7782441,8.35951658 4.26543598,8.43993986 C3.7821107,8.52882875 3.44571631,8.71718853 3.25625281,9.00501922 C3.0667893,9.29284991 2.97205754,9.7838552 2.97205754,10.4780351 L2.97205754,10.7796224 C2.97205754,11.3849134 2.9024587,12.7785642 2.76326102,12.9605748 C2.62406334,13.1425854 2.35340119,13.2335906 1.95127455,13.2335906 L1.24948625,13.2335906 L1.24948625,15.4462891 L3.03295652,15.4462891 Z" id="}-copy" transform="translate(4.249486, 8.446289) scale(-1, 1) translate(-4.249486, -8.446289) "/></g></g></g></g><style data-styled="true" data-styled-version="5.3.11">.lodPSx{cursor:pointer;}/*!sc*/
data-styled.g24[id="sc-ikkxIA"]{content:"lodPSx,"}/*!sc*/
.iStBUT{stroke:#555;background-color:#555;stroke-width:1px;}/*!sc*/
data-styled.g25[id="sc-dAbbOL"]{content:"iStBUT,"}/*!sc*/
.jLkyCY{stroke-width:0;stroke:none;fill:#f2f3f3;}/*!sc*/
data-styled.g26[id="sc-feUZmu"]{content:"jLkyCY,"}/*!sc*/
.dtiIdW{font-size:10px;line-height:12.5;stroke:none;}/*!sc*/
data-styled.g27[id="sc-fUnMCh"]{content:"dtiIdW,"}/*!sc*/
.iYnlgu{fill:var(--color-text-form-secondary-btuye6,#687078);}/*!sc*/
data-styled.g53[id="sc-bbSZdi"]{content:"iYnlgu,"}/*!sc*/
.kzYAMD{font-weight:400;font-size:12px;line-height:16px;font-family:Amazon Ember,Arial,Roboto,Arial,sans-serif;text-shadow:none;fill:var(--color-text-button-primary-default-qh066v,#16191f);}/*!sc*/
data-styled.g54[id="sc-fBWQRz"]{content:"kzYAMD,"}/*!sc*/
.gHgSNu{fill:#fff9cc;stroke:var(--color-text-form-secondary-btuye6,#687078);stroke-width:0.6px;}/*!sc*/
data-styled.g55[id="sc-hknOHE"]{content:"gHgSNu,"}/*!sc*/
.jEBwKg{fill:#fff9cc;stroke:var(--color-text-form-secondary-btuye6,#687078);stroke-width:0.6px;}/*!sc*/
data-styled.g56[id="sc-uVWWZ"]{content:"jEBwKg,"}/*!sc*/
.fZMwc{stroke:var(--color-border-control-default-ie1oqq,#687078);stroke-width:1px;fill:var(--color-background-container-content-x1dxuu,#ffffff);opacity:0.5;}/*!sc*/
.node &gt; .new-look-state-node.has-errors &gt; .bounding-box &gt; .sc-hCPjZK{stroke:var(--color-border-status-error-si9bvu,#d13212);fill:var(--color-background-status-error-qqw3y6,#fdf3f1);}/*!sc*/
.selected &gt; .node &gt; .new-look-state-node &gt; .bounding-box &gt; .sc-hCPjZK{stroke:var(--color-border-status-info-fjyzd6,#0073bb);fill:var(--color-background-status-info-60ssq8,#f1faff);}/*!sc*/
.selected &gt; .node &gt; .new-look-state-node.has-errors &gt; .bounding-box &gt; .sc-hCPjZK{stroke:var(--color-border-status-error-si9bvu,#d13212);fill:#fde0da;}/*!sc*/
data-styled.g57[id="sc-hCPjZK"]{content:"fZMwc,"}/*!sc*/
.kYgSu{opacity:1;}/*!sc*/
data-styled.g58[id="sc-Nxspf"]{content:"kYgSu,"}/*!sc*/
</style><style>
.new-look-state-node &gt; rect:first-of-type {
  stroke: #687078;
  stroke-width: 1px;
  fill: #FFFFFF;
}

.new-look-state-node .error-icon circle {
 stroke-linejoin: round;
}

.new-look-state-node .error-icon circle, .new-look-state-node .error-icon path {
 stroke: var(--color-border-status-error-si9bvu, #d13212);
 fill: none;
 stroke-width: 2px;
}

.new-look-state-node.has-errors &gt; rect:first-of-type {
 stroke: var(--color-border-status-error-si9bvu, #d13212);
 fill: var(--color-background-status-error-qqw3y6, #fdf3f1);
}

.new-look-state-node.has-errors &gt; .bounding-box &gt; .new-look-state-node-sub &gt; rect {
  stroke: var(--color-border-status-error-si9bvu, #d13212);
  fill: var(--color-background-status-error-qqw3y6, #fdf3f1);
}

.new-look-state-node .handle path {
  stroke: var(--color-border-dropdown-item-hover-t6obhh, #879596);
  stroke-width: 1px;
  fill: none;
}

.new-look-state-node {
  font-weight: 400;
  font-family: Amazon Ember, Arial, Roboto, Arial, sans-serif;
  text-shadow: none;
}

.new-look-state-node .line1 {
  fill: #687078;
  font-size: 12px;
}

.new-look-state-node .line2 {
  fill: #16191f;
}

.selected.node &gt; .new-look-state-node &gt; rect,
.selected.node &gt; .new-look-state-node &gt; .new-look-state-node &gt; rect,
.selected.node &gt; .new-look-state-node &gt; .bounding-box &gt; rect,
.selected.node &gt; .new-look-state-node.has-errors &gt; rect,
.selected.node &gt; .new-look-state-node.has-errors &gt; .bounding-box &gt; rect,
.selected.node &gt; .new-look-state-node.has-errors &gt; .new-look-state-node &gt; rect,
.selected.node &gt; .new-look-state-node &gt; .bounding-box &gt; .new-look-state-node-sub &gt; rect
 {
  stroke: var(--color-border-status-info-fjyzd6, #0073bb);
  fill: var(--color-background-status-info-60ssq8, #f1faff);
  stroke-width: 1px;
}

.new-look-state-node-sub .item-source.not-specified {
  height: 15px;
  color: #687078;
  font-family: "Amazon Ember";
  font-size: 12px;
  letter-spacing: 0;
  line-height: 16px;
  font-weight: 400;
}
.new-look-state-node-sub .item-source .item-source_name{
  font-weight: 600;
}
.new-look-state-node-sub .item-source.not-specified .item-source_name{
  font-weight: 400;
}

.new-look-state-node-sub .item-source.not-specified {
  font-style: italic;
}

.new-look-state-node-sub &gt; rect,
.new-look-state-node &gt; .bounding-box &gt; rect {
  stroke: var(--color-border-control-default-ie1oqq, #687078);
  fill: #ffffff;
}

.new-look-graph .drag-source {
  opacity: 0.2;
}

.new-look-graph .edge, .new-look-graph path.starting-connection {
  stroke-width: 1px;
  stroke: var(--color-text-form-secondary-btuye6, #687078);
  marker-end: url(#large-arrowhead);
}

.new-look-graph .edge-label {
  cursor: pointer;
}

.new-look-graph .edge-label rect {
  stroke-width: 1px;
  stroke: var(--color-border-control-default-ie1oqq, #687078);
  fill: #fafafa;
}

.new-look-graph .edge-label.selected rect {
  stroke: var(--color-border-status-info-fjyzd6, #0073bb);
  fill: var(--color-background-status-info-60ssq8, #f1faff);
  stroke-width: 0.6px;
}



.new-look-graph .edge-label .label {
  fill: var(--color-text-form-secondary-btuye6, #687078);
  font-family: Amazon Ember, Arial, Roboto, Arial, sans-serif;
}

/* centering the shape text */
@-moz-document url-prefix() {
  .new-look-graph .shape + text,
  .new-look-graph .edge-label text {
    transform: translateY(3.5px);
  }
}

.new-look-graph .edge path {
  marker-end: url(#large-arrowhead) !important;
}

.new-look-graph .edge.selected path{
  stroke: var(--color-border-status-info-fjyzd6, #0073bb);
  stroke-width: 1.1px;
}

.new-look-graph .edge.dragging-over path, .new-look-graph  g.dragging-over .starting-connection {
  stroke: #5C86FF;
  stroke-width: 2px;
}

.new-look-graph .edge.dragging-over path, .new-look-graph .dragging-over path.starting-connection {
  marker-end: url(#large-highlighted-arrowhead) !important;
}

.new-look-graph .edge.dragging-over .edge-label text {
  fill: #5C86FF;
}

#large-highlighted-arrowhead {
  fill: #5C86FF;
}

#large-highlighted-arrowhead path {
  stroke: none;
}

.new-look-graph .edge.drop-not-supported path, g.drop-not-supported .starting-connection {
  stroke: red;
}

.new-look-graph .edge.drop-not-supported .edge-label text {
  fill: red;
}

.new-look-graph .edge.drop-not-supported path {
  marker-end: url(#large-error-arrowhead) !important;
}

#large-error-arrowhead {
  fill: red;
}

.node-container * &gt; .icon  {
  &gt; rect {
    fill: #fafafa;
  }
  &gt; line {
    stroke: #d5dbdb;
  }
}


.node.Placeholder.dragging-over rect {
  stroke: var(--color-border-status-info-fjyzd6, #0073bb);
  fill: var(--color-background-status-info-60ssq8, #f1faff);
  stroke-width: 2px;
}

.node.Placeholder.dragging-over .label {
  fill: var(--color-text-status-info-f9d9f2, #0073bb);
}

g.Placeholder rect {
  stroke-dasharray: 5 4;
  stroke: var(--color-border-dropdown-item-hover-t6obhh, #879596);
  fill: #ffffff;
  stroke-width: 1px;
}

g.Placeholder .label {
  font-style: italic;
  fill: var(--color-text-input-placeholder-lhl4lu, #687078);
}

.node.Placeholder.drop-not-supported rect {
  stroke: red;
}

.node.Placeholder.drop-not-supported .label {
  fill: red;
}
</style><style>.line2 { font-size: 14px }</style></svg><text x="-65" y="-83.5" class="line1"><tspan class="item-source" xml:space="preserve" text-anchor="start"><tspan>Item source</tspan><tspan class="item-source_name"><tspan>: JSON Payload</tspan></tspan></tspan></text></g><g class="content" transform="translate(-140,-144.5)"><g class="branch" transform="translate(20,124)"><g transform=""><g class="nodes"><g class="node-container" transform="translate(120,24.5)"><g class="sc-ikkxIA lodPSx node state Task" data-testid="graph-Upload Single File" data-state-id="Upload Single File" data-state-type="Task"><g class="new-look-state-node "><rect x="-120" y="-24.5" width="240" height="49" rx="3" ry="3"/><g class="handle" transform="translate(-120,-24.5)"><path d="M5,16 L5,34 M8,16 L8,34"/></g><g class="icon" transform="translate(-104,-24)"><rect fill="var(--color-background-container-header-etndi4, #fafafa)" x="0.0361026108" y="0.0181291967" width="48" height="48"/><line x1="47.5" y1="0.49122807" x2="47.5" y2="47.5" stroke="var(--color-board-placeholder-active-qurjro, #d5dbdb)" stroke-linecap="square"/><line x1="0.5" y1="0.49122807" x2="0.5" y2="47.5" stroke="var(--color-board-placeholder-active-qurjro, #d5dbdb)" stroke-linecap="square"/><use href="#icon-service-lam" aria-hidden="true"><title>Lambda</title></use></g><g class="text-lines" transform="translate(-48,-24.5)"><text transform="translate(0,17)" class="line1"><tspan xml:space="preserve" text-anchor="start">Lambda: Invoke</tspan></text><text transform="translate(0,35.5)" class="line2 label"><tspan xml:space="preserve" text-anchor="start">Upload Single File</tspan></text></g></g></g></g><g class="node-container" transform="translate(120,92)"><g><circle class="sc-uVWWZ jEBwKg shape" r="8"/></g></g></g><g class="edges"><g class="sc-dAbbOL iStBUT edge"><path id="state-Upload Single File:end:normal" d="M120,49L120,51.916666666666664C120,54.833333333333336,120,60.666666666666664,120,66.5C120,72.33333333333333,120,78.16666666666667,120,81.08333333333333L120,84" marker-end="url(#arrowhead)" fill="none"/></g></g></g></g><g class="sc-dAbbOL iStBUT"><path id="Upload single file-Upload Single File" class="path starting-connection" d="M140,69L140,73.58333333333333C140,78.16666666666667,140,87.33333333333333,140,91.91666666666667C140,96.5,140,96.5,140,101.08333333333333C140,105.66666666666667,140,114.83333333333333,140,119.41666666666667L140,124" fill="none"/></g></g></g><g class="new-look-state-node "><rect x="-120" y="-144.5" width="240" height="49" rx="3" ry="3"/><g class="handle" transform="translate(-120,-144.5)"><path d="M5,16 L5,34 M8,16 L8,34"/></g><g class="icon" transform="translate(-104,-144)"><rect fill="var(--color-background-container-header-etndi4, #fafafa)" x="0.0361026108" y="0.0181291967" width="48" height="48"/><line x1="47.5" y1="0.49122807" x2="47.5" y2="47.5" stroke="var(--color-board-placeholder-active-qurjro, #d5dbdb)" stroke-linecap="square"/><line x1="0.5" y1="0.49122807" x2="0.5" y2="47.5" stroke="var(--color-board-placeholder-active-qurjro, #d5dbdb)" stroke-linecap="square"/><use href="#icon-flow-map"/></g><g class="text-lines" transform="translate(-48,-144.5)"><text transform="translate(0,17)" class="line1"><tspan xml:space="preserve" text-anchor="start">Map state</tspan></text><text transform="translate(0,35.5)" class="line2 label"><tspan xml:space="preserve" text-anchor="start">Upload single file</tspan></text></g></g></g></g></g><g class="node-container" transform="translate(140,332)"><g><circle class="sc-uVWWZ jEBwKg shape" r="8"/></g></g></g><g class="edges"><g class="sc-dAbbOL iStBUT edge"><path id="state-Upload single file:end:normal" d="M140,289L140,291.9166666666667C140,294.8333333333333,140,300.6666666666667,140,306.5C140,312.3333333333333,140,318.1666666666667,140,321.0833333333333L140,324" marker-end="url(#arrowhead)" fill="none"/></g></g></g><g class="branchInsertArea" data-insertion-index="1" data-parent-state-id="Parallel" id="Parallel:1" x="280" y="0" width="20" height="485.5"><rect x="280" y="0" width="20" height="485.5" stroke="none" fill="none"/><path d="M290,0 l0,485.5" stroke="none" fill="none"/></g></g><g class="branch" transform="translate(320,89)"><g transform=""><g class="nodes"><g class="node-container" transform="translate(357.5,24.5)"><g class="sc-ikkxIA lodPSx node state Choice" data-testid="graph-Source List &gt; 0" data-state-id="Source List &gt; 0" data-state-type="Choice"><g class="new-look-state-node "><rect x="-120" y="-24.5" width="240" height="49" rx="3" ry="3"/><g class="handle" transform="translate(-120,-24.5)"><path d="M5,16 L5,34 M8,16 L8,34"/></g><g class="icon" transform="translate(-104,-24)"><rect fill="var(--color-background-container-header-etndi4, #fafafa)" x="0.0361026108" y="0.0181291967" width="48" height="48"/><line x1="47.5" y1="0.49122807" x2="47.5" y2="47.5" stroke="var(--color-board-placeholder-active-qurjro, #d5dbdb)" stroke-linecap="square"/><line x1="0.5" y1="0.49122807" x2="0.5" y2="47.5" stroke="var(--color-board-placeholder-active-qurjro, #d5dbdb)" stroke-linecap="square"/><use href="#icon-flow-choice"/></g><g class="text-lines" transform="translate(-48,-24.5)"><text transform="translate(0,17)" class="line1"><tspan xml:space="preserve" text-anchor="start">Choice state</tspan></text><text transform="translate(0,35.5)" class="line2 label"><tspan xml:space="preserve" text-anchor="start">Source List &gt; 0</tspan></text></g></g></g></g><g class="node-container" transform="translate(120,410)"><g class="sc-ikkxIA lodPSx node state Pass" data-testid="graph-No files to copy" data-state-id="No files to copy" data-state-type="Pass"><g class="new-look-state-node "><rect x="-120" y="-24.5" width="240" height="49" rx="3" ry="3"/><g class="handle" transform="translate(-120,-24.5)"><path d="M5,16 L5,34 M8,16 L8,34"/></g><g class="icon" transform="translate(-104,-24)"><rect fill="var(--color-background-container-header-etndi4, #fafafa)" x="0.0361026108" y="0.0181291967" width="48" height="48"/><line x1="47.5" y1="0.49122807" x2="47.5" y2="47.5" stroke="var(--color-board-placeholder-active-qurjro, #d5dbdb)" stroke-linecap="square"/><line x1="0.5" y1="0.49122807" x2="0.5" y2="47.5" stroke="var(--color-board-placeholder-active-qurjro, #d5dbdb)" stroke-linecap="square"/><use href="#icon-flow-pass"/></g><g class="text-lines" transform="translate(-48,-24.5)"><text transform="translate(0,17)" class="line1"><tspan xml:space="preserve" text-anchor="start">Pass state</tspan></text><text transform="translate(0,35.5)" class="line2 label"><tspan xml:space="preserve" text-anchor="start">No files to copy</tspan></text></g></g></g></g><g class="node-container" transform="translate(457,125)"><g class="sc-ikkxIA lodPSx node state Task" data-testid="graph-Run Copy Job" data-state-id="Run Copy Job" data-state-type="Task"><g class="new-look-state-node "><rect x="-120" y="-24.5" width="240" height="49" rx="3" ry="3"/><g class="handle" transform="translate(-120,-24.5)"><path d="M5,16 L5,34 M8,16 L8,34"/></g><g class="icon" transform="translate(-104,-24)"><rect fill="var(--color-background-container-header-etndi4, #fafafa)" x="0.0361026108" y="0.0181291967" width="48" height="48"/><line x1="47.5" y1="0.49122807" x2="47.5" y2="47.5" stroke="var(--color-board-placeholder-active-qurjro, #d5dbdb)" stroke-linecap="square"/><line x1="0.5" y1="0.49122807" x2="0.5" y2="47.5" stroke="var(--color-board-placeholder-active-qurjro, #d5dbdb)" stroke-linecap="square"/><use href="#icon-service-lam" aria-hidden="true"><title>Lambda</title></use></g><g class="text-lines" transform="translate(-48,-24.5)"><text transform="translate(0,17)" class="line1"><tspan xml:space="preserve" text-anchor="start">Lambda: Invoke</tspan></text><text transform="translate(0,35.5)" class="line2 label"><tspan xml:space="preserve" text-anchor="start">Run Copy Job</tspan></text></g></g></g></g><g class="node-container" transform="translate(297,477.5)"><g><circle class="sc-uVWWZ jEBwKg shape" r="8"/></g></g><g class="node-container" transform="translate(374.5,209)"><g class="sc-ikkxIA lodPSx node state Task" data-testid="graph-Wait Job Completion" data-state-id="Wait Job Completion" data-state-type="Task"><g class="new-look-state-node "><rect x="-120" y="-24.5" width="240" height="49" rx="3" ry="3"/><g class="handle" transform="translate(-120,-24.5)"><path d="M5,16 L5,34 M8,16 L8,34"/></g><g class="icon" transform="translate(-104,-24)"><rect fill="var(--color-background-container-header-etndi4, #fafafa)" x="0.0361026108" y="0.0181291967" width="48" height="48"/><line x1="47.5" y1="0.49122807" x2="47.5" y2="47.5" stroke="var(--color-board-placeholder-active-qurjro, #d5dbdb)" stroke-linecap="square"/><line x1="0.5" y1="0.49122807" x2="0.5" y2="47.5" stroke="var(--color-board-placeholder-active-qurjro, #d5dbdb)" stroke-linecap="square"/><use href="#icon-service-events" aria-hidden="true"><title>Amazon EventBridge</title></use></g><g class="text-lines" transform="translate(-48,-24.5)"><text transform="translate(0,17)" class="line1"><tspan xml:space="preserve" text-anchor="start">EventBridge: PutEvents</tspan></text><text transform="translate(0,35.5)" class="line2 label"><tspan xml:space="preserve" text-anchor="start">Wait Job Completion</tspan></text></g></g></g></g><g class="node-container" transform="translate(502.5,309.5)"><g class="sc-ikkxIA lodPSx node state Choice" data-testid="graph-Failed with retryCounter &gt; 3" data-state-id="Failed with retryCounter &gt; 3" data-state-type="Choice"><g class="new-look-state-node "><rect x="-130" y="-24.5" width="260" height="49" rx="3" ry="3"/><g class="handle" transform="translate(-130,-24.5)"><path d="M5,16 L5,34 M8,16 L8,34"/></g><g class="icon" transform="translate(-114,-24)"><rect fill="var(--color-background-container-header-etndi4, #fafafa)" x="0.0361026108" y="0.0181291967" width="48" height="48"/><line x1="47.5" y1="0.49122807" x2="47.5" y2="47.5" stroke="var(--color-board-placeholder-active-qurjro, #d5dbdb)" stroke-linecap="square"/><line x1="0.5" y1="0.49122807" x2="0.5" y2="47.5" stroke="var(--color-board-placeholder-active-qurjro, #d5dbdb)" stroke-linecap="square"/><use href="#icon-flow-choice"/></g><g class="text-lines" transform="translate(-58,-24.5)"><text transform="translate(0,17)" class="line1"><tspan xml:space="preserve" text-anchor="start">Choice state</tspan></text><text transform="translate(0,35.5)" class="line2 label"><tspan xml:space="preserve" text-anchor="start">Failed with retryCounter &gt; 3</tspan></text></g></g></g></g><g class="node-container" transform="translate(502.5,410)"><g class="sc-ikkxIA lodPSx node state Pass" data-testid="graph-Update retry counter" data-state-id="Update retry counter" data-state-type="Pass"><g class="new-look-state-node "><rect x="-120" y="-24.5" width="240" height="49" rx="3" ry="3"/><g class="handle" transform="translate(-120,-24.5)"><path d="M5,16 L5,34 M8,16 L8,34"/></g><g class="icon" transform="translate(-104,-24)"><rect fill="var(--color-background-container-header-etndi4, #fafafa)" x="0.0361026108" y="0.0181291967" width="48" height="48"/><line x1="47.5" y1="0.49122807" x2="47.5" y2="47.5" stroke="var(--color-board-placeholder-active-qurjro, #d5dbdb)" stroke-linecap="square"/><line x1="0.5" y1="0.49122807" x2="0.5" y2="47.5" stroke="var(--color-board-placeholder-active-qurjro, #d5dbdb)" stroke-linecap="square"/><use href="#icon-flow-pass"/></g><g class="text-lines" transform="translate(-48,-24.5)"><text transform="translate(0,17)" class="line1"><tspan xml:space="preserve" text-anchor="start">Pass state</tspan></text><text transform="translate(0,35.5)" class="line2 label"><tspan xml:space="preserve" text-anchor="start">Update retry counter</tspan></text></g></g></g></g><g class="node-container" transform="translate(807,410)"><g class="sc-ikkxIA lodPSx node state Task" data-testid="graph-Send External Task Token Failure" data-state-id="Send External Task Token Failure" data-state-type="Task"><g class="new-look-state-node "><rect x="-144.5" y="-24.5" width="289" height="49" rx="3" ry="3"/><g class="handle" transform="translate(-144.5,-24.5)"><path d="M5,16 L5,34 M8,16 L8,34"/></g><g class="icon" transform="translate(-128.5,-24)"><rect fill="var(--color-background-container-header-etndi4, #fafafa)" x="0.0361026108" y="0.0181291967" width="48" height="48"/><line x1="47.5" y1="0.49122807" x2="47.5" y2="47.5" stroke="var(--color-board-placeholder-active-qurjro, #d5dbdb)" stroke-linecap="square"/><line x1="0.5" y1="0.49122807" x2="0.5" y2="47.5" stroke="var(--color-board-placeholder-active-qurjro, #d5dbdb)" stroke-linecap="square"/><use href="#icon-service-states" aria-hidden="true"><title>Step Functions</title></use></g><g class="text-lines" transform="translate(-72.5,-24.5)"><text transform="translate(0,17)" class="line1"><tspan xml:space="preserve" text-anchor="start">Step Functions: SendTaskFailure</tspan></text><text transform="translate(0,35.5)" class="line2 label"><tspan xml:space="preserve" text-anchor="start">Send External Task Token Failure</tspan></text></g></g></g></g></g><g class="edges"><g class="sc-dAbbOL iStBUT edge"><path id="state-Source List &gt; 0:state-No files to copy:choiceRule:0" d="M241.70398009950247,49L221.41998341625208,53.291666666666664C201.13598673300166,57.583333333333336,160.56799336650082,66.16666666666667,140.28399668325042,78.83333333333333C120,91.5,120,108.25,120,123.625C120,139,120,153,120,167C120,181,120,195,120,210.375C120,225.75,120,242.5,120,259.25C120,276,120,292.75,120,309.5C120,326.25,120,343,120,355.6666666666667C120,368.3333333333333,120,376.9166666666667,120,381.2083333333333L120,385.5" marker-end="url(#arrowhead)" fill="none"/><g data-testid="graph-Source List &gt; 0-0" class="edge-label" transform="translate(140.28399668325042,78.83333333333333)"><rect x="-22" y="-8.25" width="44" height="16.5" class="sc-feUZmu jLkyCY"/><text class="sc-fUnMCh dtiIdW label"><tspan xml:space="preserve" text-anchor="middle" alignment-baseline="central">Rule #1</tspan><title>Rule #1</title></text></g></g><g class="sc-dAbbOL iStBUT edge"><path id="state-Source List &gt; 0:state-Run Copy Job:choiceDefault" d="M406.01243781094524,49L414.5103648424544,53.291666666666664C423.0082918739635,57.583333333333336,440.0041459369818,66.16666666666667,448.5020729684909,74.75C457,83.33333333333333,457,91.91666666666667,457,96.20833333333333L457,100.5" marker-end="url(#arrowhead)" fill="none"/><g data-testid="graph-Source List &gt; 0-Default" class="edge-label" transform="translate(448.5020729684909,74.75)"><rect x="-22" y="-8.25" width="44" height="16.5" class="sc-feUZmu jLkyCY"/><text class="sc-fUnMCh dtiIdW label"><tspan xml:space="preserve" text-anchor="middle" alignment-baseline="central">Default</tspan><title>Default</title></text></g></g><g class="sc-dAbbOL iStBUT edge"><path id="state-No files to copy:end:normal" d="M120,434.5L120,437.4166666666667C120,440.3333333333333,120,446.1666666666667,148.18029194979582,453.1432059023717C176.36058389959166,460.1197451380767,232.7211677991833,468.2394902761535,260.9014597489791,472.29936284519187L289.08175169877495,476.3592354142303" marker-end="url(#arrowhead)" fill="none"/></g><g class="sc-dAbbOL iStBUT edge"><path id="state-Run Copy Job:state-Wait Job Completion:normal" d="M408.875,149.5L403.1458333333333,152.41666666666666C397.4166666666667,155.33333333333334,385.9583333333333,161.16666666666666,380.2291666666667,167C374.5,172.83333333333334,374.5,178.66666666666666,374.5,181.58333333333334L374.5,184.5" marker-end="url(#arrowhead)" fill="none"/></g><g class="sc-dAbbOL iStBUT edge"><path id="state-Wait Job Completion:end:normal" d="M336.7139303482587,233.5L330.0949419568822,237.79166666666666C323.4759535655058,242.08333333333334,310.2379767827529,250.66666666666666,303.61898839137643,263.3333333333333C297,276,297,292.75,297,309.5C297,326.25,297,343,297,359.75C297,376.5,297,393.25,297,408.625C297,424,297,438,297,447.9166666666667C297,457.8333333333333,297,463.6666666666667,297,466.5833333333333L297,469.5" marker-end="url(#arrowhead)" fill="none"/></g><g class="sc-dAbbOL iStBUT edge"><path id="state-Wait Job Completion:state-Failed with retryCounter &gt; 3:catch:0" d="M436.90796019900495,233.5L447.83996683250416,237.79166666666666C458.7719734660033,242.08333333333334,480.63598673300163,250.66666666666666,491.56799336650084,259.25C502.5,267.8333333333333,502.5,276.4166666666667,502.5,280.7083333333333L502.5,285" marker-end="url(#arrowhead)" fill="none"/><g data-testid="graph-Wait Job Completion-0" class="edge-label" transform="translate(491.56799336650084,259.25)"><rect x="-25" y="-8.25" width="50" height="16.5" class="sc-feUZmu jLkyCY"/><text class="sc-fUnMCh dtiIdW label"><tspan xml:space="preserve" text-anchor="middle" alignment-baseline="central">Catch #1</tspan><title>Catch #1</title></text></g></g><g class="sc-dAbbOL iStBUT edge"><path id="state-Failed with retryCounter &gt; 3:state-Update retry counter:choiceRule:0" d="M480.31592039800995,334L476.4299336650083,338.2916666666667C472.5439469320066,342.5833333333333,464.7719734660033,351.1666666666667,464.7719734660033,359.75C464.7719734660033,368.3333333333333,472.5439469320066,376.9166666666667,476.42993366500826,381.2083333333333L480.31592039800995,385.5" marker-end="url(#arrowhead)" fill="none"/><g data-testid="graph-Failed with retryCounter &gt; 3-0" class="edge-label" transform="translate(464.7719734660033,359.75)"><rect x="-22" y="-8.25" width="44" height="16.5" class="sc-feUZmu jLkyCY"/><text class="sc-fUnMCh dtiIdW label"><tspan xml:space="preserve" text-anchor="middle" alignment-baseline="central">Rule #1</tspan><title>Rule #1</title></text></g></g><g class="sc-dAbbOL iStBUT edge"><path id="state-Failed with retryCounter &gt; 3:state-Send External Task Token Failure:choiceDefault" d="M628.7786069651742,334L650.8988391376452,338.2916666666667C673.0190713101161,342.5833333333333,717.2595356550581,351.1666666666667,743.2657545605307,359.75C769.2719734660033,368.3333333333333,777.0439469320066,376.9166666666667,780.9299336650083,381.2083333333333L784.8159203980099,385.5" marker-end="url(#arrowhead)" fill="none"/><g data-testid="graph-Failed with retryCounter &gt; 3-Default" class="edge-label" transform="translate(743.2657545605307,359.75)"><rect x="-22" y="-8.25" width="44" height="16.5" class="sc-feUZmu jLkyCY"/><text class="sc-fUnMCh dtiIdW label"><tspan xml:space="preserve" text-anchor="middle" alignment-baseline="central">Default</tspan><title>Default</title></text></g></g><g class="sc-dAbbOL iStBUT edge"><path id="state-Update retry counter:state-Run Copy Job:normal" d="M622.5,394.0686922060766L665.5833333333334,388.3489101717305C708.6666666666666,382.6291281373844,794.8333333333334,371.18956406869216,837.9166666666666,357.0947820343461C881,343,881,326.25,881,309.5C881,292.75,881,276,881,259.25C881,242.5,881,225.75,881,210.375C881,195,881,181,830.3333333333334,168.9811320754717C779.6666666666666,156.96226415094338,678.3333333333334,146.9245283018868,627.6666666666666,141.9056603773585L577,136.88679245283018" marker-end="url(#arrowhead)" fill="none"/></g><g class="sc-dAbbOL iStBUT edge"><path id="state-Send External Task Token Failure:end:normal" d="M807,434.5L807,437.4166666666667C807,440.3333333333333,807,446.1666666666667,723.3316697851704,453.2667498440748C639.6633395703409,460.36683302148293,472.3266791406818,468.7336660429659,388.6583489258523,472.91708255370736L304.99001871102274,477.10049906444885" marker-end="url(#arrowhead)" fill="none"/></g></g></g><g class="branchInsertArea" data-insertion-index="2" data-parent-state-id="Parallel" id="Parallel:2" x="951.5" y="0" width="20" height="485.5"><rect x="951.5" y="0" width="20" height="485.5" stroke="none" fill="none"/><path d="M961.5,0 l0,485.5" stroke="none" fill="none"/></g></g><g class="sc-dAbbOL iStBUT"><path id="Parallel-Upload single file" class="path starting-connection" d="M645.75,44L645.75,47.75C645.75,51.5,645.75,59,564.7916666666666,62.75C483.8333333333333,66.5,321.9166666666667,66.5,240.95833333333334,70.25C160,74,160,81.5,160,85.25L160,89" fill="none"/></g><g class="sc-dAbbOL iStBUT"><path id="Parallel-Source List &gt; 0" class="path starting-connection" d="M645.75,44L645.75,47.75C645.75,51.5,645.75,59,651.0416666666666,62.75C656.3333333333334,66.5,666.9166666666666,66.5,672.2083333333334,70.25C677.5,74,677.5,81.5,677.5,85.25L677.5,89" fill="none"/></g></g></g><g class="new-look-state-node "><rect x="-120" y="-299.75" width="240" height="49" rx="3" ry="3"/><g class="handle" transform="translate(-120,-299.75)"><path d="M5,16 L5,34 M8,16 L8,34"/></g><g class="icon" transform="translate(-104,-299.25)"><rect fill="var(--color-background-container-header-etndi4, #fafafa)" x="0.0361026108" y="0.0181291967" width="48" height="48"/><line x1="47.5" y1="0.49122807" x2="47.5" y2="47.5" stroke="var(--color-board-placeholder-active-qurjro, #d5dbdb)" stroke-linecap="square"/><line x1="0.5" y1="0.49122807" x2="0.5" y2="47.5" stroke="var(--color-board-placeholder-active-qurjro, #d5dbdb)" stroke-linecap="square"/><use href="#icon-flow-parallel"/></g><g class="text-lines" transform="translate(-48,-299.75)"><text transform="translate(0,17)" class="line1"><tspan xml:space="preserve" text-anchor="start">Parallel state</tspan></text><text transform="translate(0,35.5)" class="line2 label"><tspan xml:space="preserve" text-anchor="start">Parallel</tspan></text></g></g></g></g></g><g class="node-container" transform="translate(645.75,743)"><g class="sc-ikkxIA lodPSx node state Pass" data-testid="graph-Pass" data-state-id="Pass" data-state-type="Pass"><g class="new-look-state-node "><rect x="-120" y="-24.5" width="240" height="49" rx="3" ry="3"/><g class="handle" transform="translate(-120,-24.5)"><path d="M5,16 L5,34 M8,16 L8,34"/></g><g class="icon" transform="translate(-104,-24)"><rect fill="var(--color-background-container-header-etndi4, #fafafa)" x="0.0361026108" y="0.0181291967" width="48" height="48"/><line x1="47.5" y1="0.49122807" x2="47.5" y2="47.5" stroke="var(--color-board-placeholder-active-qurjro, #d5dbdb)" stroke-linecap="square"/><line x1="0.5" y1="0.49122807" x2="0.5" y2="47.5" stroke="var(--color-board-placeholder-active-qurjro, #d5dbdb)" stroke-linecap="square"/><use href="#icon-flow-pass"/></g><g class="text-lines" transform="translate(-48,-24.5)"><text transform="translate(0,17)" class="line1"><tspan xml:space="preserve" text-anchor="start">Pass state</tspan></text><text transform="translate(0,35.5)" class="line2 label"><tspan xml:space="preserve" text-anchor="start">Pass</tspan></text></g></g></g></g><g class="node-container" transform="translate(645.75,810.5)"><g><circle class="sc-uVWWZ jEBwKg shape" r="8"/></g></g></g><g class="edges"><g class="sc-dAbbOL iStBUT edge"><path id="state-Find files with single multipart uploads:state-Parallel:normal" d="M645.75,49L645.75,51.916666666666664C645.75,54.833333333333336,645.75,60.666666666666664,645.75,66.5C645.75,72.33333333333333,645.75,78.16666666666667,645.75,81.08333333333333L645.75,84" marker-end="url(#arrowhead)" fill="none"/></g><g class="sc-dAbbOL iStBUT edge"><path id="state-Parallel:state-Pass:normal" d="M645.75,683.5L645.75,686.4166666666666C645.75,689.3333333333334,645.75,695.1666666666666,645.75,701C645.75,706.8333333333334,645.75,712.6666666666666,645.75,715.5833333333334L645.75,718.5" marker-end="url(#arrowhead)" fill="none"/></g><g class="sc-dAbbOL iStBUT edge"><path id="state-Pass:end:normal" d="M645.75,767.5L645.75,770.4166666666666C645.75,773.3333333333334,645.75,779.1666666666666,645.75,785C645.75,790.8333333333334,645.75,796.6666666666666,645.75,799.5833333333334L645.75,802.5" marker-end="url(#arrowhead)" fill="none"/></g></g></g><g class="branchInsertArea" data-insertion-index="1" data-parent-state-id="Run top level and recursive in parallel" id="Run top level and recursive in parallel:1" x="1291.5" y="0" width="20" height="818.5"><rect x="1291.5" y="0" width="20" height="818.5" stroke="none" fill="none"/><path d="M1301.5,0 l0,818.5" stroke="none" fill="none"/></g></g><g class="branch" transform="translate(1331.5,89)"><g transform=""><g class="nodes"><g class="node-container" transform="translate(140,144.5)"><g class="sc-ikkxIA lodPSx node state container Map" data-state-id="For each subfolder" data-state-type="Map"><g class="new-look-state-node "><g class="bounding-box" transform="translate(0,5)"><g class="shape new-look-state-node-sub"><rect rx="3" ry="3" x="-140" y="-144.5" width="280" height="284" class="sc-hCPjZK fZMwc"/><rect x="-105" y="-100.5" width="210" height="26" class="sc-hCPjZK sc-Nxspf fZMwc kYgSu"/><svg x="-90" y="-104" width="25" height="25" viewBox="0 -8 25 25" xmlns="http://www.w3.org/2000/svg"><g id="Symbols" stroke="none" stroke-width="1" fill="none" fill-rule="evenodd" opacity="0.867687044"><g id="ONE-MAP---graph---inline-map" transform="translate(-55.000000, -217.000000)" fill="#687078" fill-rule="nonzero"><g id="Group-15" transform="translate(36.000000, 213.000000)"><g id="script" transform="translate(19.000000, 4.000000)"><path d="M11.60121,15.4462891 C12.5601274,15.4462891 13.2010167,15.2896753 13.5238779,14.9764478 C13.8467393,14.6632203 14.0081699,14.0388817 14.0081699,13.1034319 L14.0081699,12.7383526 C14.0081699,12.1034319 14.1135348,10.6632203 14.3242646,10.4177176 C14.5349944,10.172215 14.9129549,10.0494637 15.4581458,10.0494637 L15.8177397,10.0494637 L15.8177397,6.83676525 L15.4581458,6.83676525 C14.9129549,6.83676525 14.5349944,6.71507213 14.3242646,6.47168589 C14.1135348,6.22829964 14.0081699,4.7870298 14.0081699,4.14787636 L14.0081699,3.782797 C14.0081699,2.84734726 13.8467393,2.22406684 13.5238779,1.91295573 C13.2010167,1.60184462 12.5601274,1.44628906 11.60121,1.44628906 L9.8177397,1.44628906 L9.8177397,3.65263827 L10.519528,3.65263827 C10.9255213,3.65263827 11.1971501,3.74364356 11.3344144,3.92565414 C11.4716788,4.10766472 11.540311,5.49708271 11.540311,6.09390811 L11.540311,6.42089224 C11.540311,7.11930494 11.6340761,7.61031023 11.8216063,7.89390811 C12.0091365,8.17750599 12.3464975,8.35951658 12.8336895,8.43993986 C12.3503642,8.52882875 12.0139698,8.71718853 11.8245063,9.00501922 C11.6350428,9.29284991 11.540311,9.7838552 11.540311,10.4780351 L11.540311,10.7796224 C11.540311,11.3849134 11.4707122,12.7785642 11.3315144,12.9605748 C11.1923168,13.1425854 10.9216547,13.2335906 10.519528,13.2335906 L9.8177397,13.2335906 L9.8177397,15.4462891 L11.60121,15.4462891 Z" id="}"/><path d="M3.03295652,15.4462891 C3.99187387,15.4462891 4.63276319,15.2896753 4.95562448,14.9764478 C5.27848577,14.6632203 5.43991641,14.0388817 5.43991641,13.1034319 L5.43991641,12.7383526 C5.43991641,12.1034319 5.54528132,10.6632203 5.75601114,10.4177176 C5.96674096,10.172215 6.34470133,10.0494637 6.88989225,10.0494637 L7.24948625,10.0494637 L7.24948625,6.83676525 L6.88989225,6.83676525 C6.34470133,6.83676525 5.96674096,6.71507213 5.75601114,6.47168589 C5.54528132,6.22829964 5.43991641,4.7870298 5.43991641,4.14787636 L5.43991641,3.782797 C5.43991641,2.84734726 5.27848577,2.22406684 4.95562448,1.91295573 C4.63276319,1.60184462 3.99187387,1.44628906 3.03295652,1.44628906 L1.24948625,1.44628906 L1.24948625,3.65263827 L1.95127455,3.65263827 C2.35726778,3.65263827 2.62889659,3.74364356 2.76616097,3.92565414 C2.90342535,4.10766472 2.97205754,4.49708271 2.97205754,5.09390811 L2.97205754,5.42089224 C2.97205754,6.11930494 3.06582265,7.61031023 3.25335285,7.89390811 C3.44088306,8.17750599 3.7782441,8.35951658 4.26543598,8.43993986 C3.7821107,8.52882875 3.44571631,8.71718853 3.25625281,9.00501922 C3.0667893,9.29284991 2.97205754,9.7838552 2.97205754,10.4780351 L2.97205754,10.7796224 C2.97205754,11.3849134 2.9024587,12.7785642 2.76326102,12.9605748 C2.62406334,13.1425854 2.35340119,13.2335906 1.95127455,13.2335906 L1.24948625,13.2335906 L1.24948625,15.4462891 L3.03295652,15.4462891 Z" id="}-copy" transform="translate(4.249486, 8.446289) scale(-1, 1) translate(-4.249486, -8.446289) "/></g></g></g></g></svg><text x="-65" y="-83.5" class="line1"><tspan class="item-source" xml:space="preserve" text-anchor="start"><tspan>Item source</tspan><tspan class="item-source_name"><tspan>: JSON Payload</tspan></tspan></tspan></text></g><g class="content" transform="translate(-140,-144.5)"><g class="branch" transform="translate(20,124)"><g transform=""><g class="nodes"><g class="node-container" transform="translate(120,24.5)"><g class="sc-ikkxIA lodPSx node state Task" data-testid="graph-Launch copy job sync" data-state-id="Launch copy job sync" data-state-type="Task"><g class="new-look-state-node "><rect x="-120" y="-24.5" width="240" height="49" rx="3" ry="3"/><g class="handle" transform="translate(-120,-24.5)"><path d="M5,16 L5,34 M8,16 L8,34"/></g><g class="icon" transform="translate(-104,-24)"><rect fill="var(--color-background-container-header-etndi4, #fafafa)" x="0.0361026108" y="0.0181291967" width="48" height="48"/><line x1="47.5" y1="0.49122807" x2="47.5" y2="47.5" stroke="var(--color-board-placeholder-active-qurjro, #d5dbdb)" stroke-linecap="square"/><line x1="0.5" y1="0.49122807" x2="0.5" y2="47.5" stroke="var(--color-board-placeholder-active-qurjro, #d5dbdb)" stroke-linecap="square"/><use href="#icon-service-events" aria-hidden="true"><title>Amazon EventBridge</title></use></g><g class="text-lines" transform="translate(-48,-24.5)"><text transform="translate(0,17)" class="line1"><tspan xml:space="preserve" text-anchor="start">EventBridge: PutEvents</tspan></text><text transform="translate(0,35.5)" class="line2 label"><tspan xml:space="preserve" text-anchor="start">Launch copy job sync</tspan></text></g></g></g></g><g class="node-container" transform="translate(120,92)"><g><circle class="sc-uVWWZ jEBwKg shape" r="8"/></g></g></g><g class="edges"><g class="sc-dAbbOL iStBUT edge"><path id="state-Launch copy job sync:end:normal" d="M120,49L120,51.916666666666664C120,54.833333333333336,120,60.666666666666664,120,66.5C120,72.33333333333333,120,78.16666666666667,120,81.08333333333333L120,84" marker-end="url(#arrowhead)" fill="none"/></g></g></g></g><g class="sc-dAbbOL iStBUT"><path id="For each subfolder-Launch copy job sync" class="path starting-connection" d="M140,69L140,73.58333333333333C140,78.16666666666667,140,87.33333333333333,140,91.91666666666667C140,96.5,140,96.5,140,101.08333333333333C140,105.66666666666667,140,114.83333333333333,140,119.41666666666667L140,124" fill="none"/></g></g></g><g class="new-look-state-node "><rect x="-120" y="-144.5" width="240" height="49" rx="3" ry="3"/><g class="handle" transform="translate(-120,-144.5)"><path d="M5,16 L5,34 M8,16 L8,34"/></g><g class="icon" transform="translate(-104,-144)"><rect fill="var(--color-background-container-header-etndi4, #fafafa)" x="0.0361026108" y="0.0181291967" width="48" height="48"/><line x1="47.5" y1="0.49122807" x2="47.5" y2="47.5" stroke="var(--color-board-placeholder-active-qurjro, #d5dbdb)" stroke-linecap="square"/><line x1="0.5" y1="0.49122807" x2="0.5" y2="47.5" stroke="var(--color-board-placeholder-active-qurjro, #d5dbdb)" stroke-linecap="square"/><use href="#icon-flow-map"/></g><g class="text-lines" transform="translate(-48,-144.5)"><text transform="translate(0,17)" class="line1"><tspan xml:space="preserve" text-anchor="start">Map state</tspan></text><text transform="translate(0,35.5)" class="line2 label"><tspan xml:space="preserve" text-anchor="start">For each subfolder</tspan></text></g></g></g></g></g><g class="node-container" transform="translate(140,332)"><g><circle class="sc-uVWWZ jEBwKg shape" r="8"/></g></g></g><g class="edges"><g class="sc-dAbbOL iStBUT edge"><path id="state-For each subfolder:end:normal" d="M140,289L140,291.9166666666667C140,294.8333333333333,140,300.6666666666667,140,306.5C140,312.3333333333333,140,318.1666666666667,140,321.0833333333333L140,324" marker-end="url(#arrowhead)" fill="none"/></g></g></g><g class="branchInsertArea" data-insertion-index="2" data-parent-state-id="Run top level and recursive in parallel" id="Run top level and recursive in parallel:2" x="280" y="0" width="20" height="818.5"><rect x="280" y="0" width="20" height="818.5" stroke="none" fill="none"/><path d="M290,0 l0,818.5" stroke="none" fill="none"/></g></g><g class="sc-dAbbOL iStBUT"><path id="Run top level and recursive in parallel-Find files with single multipart uploads" class="path starting-connection" d="M815.75,44L815.75,47.75C815.75,51.5,815.75,59,790.75,62.75C765.75,66.5,715.75,66.5,690.75,70.25C665.75,74,665.75,81.5,665.75,85.25L665.75,89" fill="none"/></g><g class="sc-dAbbOL iStBUT"><path id="Run top level and recursive in parallel-For each subfolder" class="path starting-connection" d="M815.75,44L815.75,47.75C815.75,51.5,815.75,59,925.0416666666666,62.75C1034.3333333333333,66.5,1252.9166666666667,66.5,1362.2083333333333,70.25C1471.5,74,1471.5,81.5,1471.5,85.25L1471.5,89" fill="none"/></g></g></g><g class="new-look-state-node "><rect x="-160" y="-466.25" width="320" height="49" rx="3" ry="3"/><g class="handle" transform="translate(-160,-466.25)"><path d="M5,16 L5,34 M8,16 L8,34"/></g><g class="icon" transform="translate(-144,-465.75)"><rect fill="var(--color-background-container-header-etndi4, #fafafa)" x="0.0361026108" y="0.0181291967" width="48" height="48"/><line x1="47.5" y1="0.49122807" x2="47.5" y2="47.5" stroke="var(--color-board-placeholder-active-qurjro, #d5dbdb)" stroke-linecap="square"/><line x1="0.5" y1="0.49122807" x2="0.5" y2="47.5" stroke="var(--color-board-placeholder-active-qurjro, #d5dbdb)" stroke-linecap="square"/><use href="#icon-flow-parallel"/></g><g class="text-lines" transform="translate(-88,-466.25)"><text transform="translate(0,17)" class="line1"><tspan xml:space="preserve" text-anchor="start">Parallel state</tspan></text><text transform="translate(0,35.5)" class="line2 label"><tspan xml:space="preserve" text-anchor="start">Run top level and recursive in parallel</tspan></text></g></g></g></g></g><g class="node-container" transform="translate(815.75,1239)"><g class="sc-ikkxIA lodPSx node state Task" data-testid="graph-Send External Task Token Success" data-state-id="Send External Task Token Success" data-state-type="Task"><g class="new-look-state-node "><rect x="-147.5" y="-24.5" width="295" height="49" rx="3" ry="3"/><g class="handle" transform="translate(-147.5,-24.5)"><path d="M5,16 L5,34 M8,16 L8,34"/></g><g class="icon" transform="translate(-131.5,-24)"><rect fill="var(--color-background-container-header-etndi4, #fafafa)" x="0.0361026108" y="0.0181291967" width="48" height="48"/><line x1="47.5" y1="0.49122807" x2="47.5" y2="47.5" stroke="var(--color-board-placeholder-active-qurjro, #d5dbdb)" stroke-linecap="square"/><line x1="0.5" y1="0.49122807" x2="0.5" y2="47.5" stroke="var(--color-board-placeholder-active-qurjro, #d5dbdb)" stroke-linecap="square"/><use href="#icon-service-states" aria-hidden="true"><title>Step Functions</title></use></g><g class="text-lines" transform="translate(-75.5,-24.5)"><text transform="translate(0,17)" class="line1"><tspan xml:space="preserve" text-anchor="start">Step Functions: SendTaskSuccess</tspan></text><text transform="translate(0,35.5)" class="line2 label"><tspan xml:space="preserve" text-anchor="start">Send External Task Token Success</tspan></text></g></g></g></g><g class="node-container" transform="translate(815.75,1320.5)"><g><circle class="sc-hknOHE gHgSNu shape" r="22"/><text class="sc-fBWQRz kzYAMD label"><tspan xml:space="preserve" text-anchor="middle" alignment-baseline="central">End</tspan></text></g></g></g><g class="edges"><g class="sc-dAbbOL iStBUT edge"><path id="state-Set variables from inputs:state-Generate copy job list:normal" d="M815.75,128L815.75,130.91666666666666C815.75,133.83333333333334,815.75,139.66666666666666,815.75,145.5C815.75,151.33333333333334,815.75,157.16666666666666,815.75,160.08333333333334L815.75,163" marker-end="url(#arrowhead)" fill="none"/></g><g class="sc-dAbbOL iStBUT edge"><path id="start:state-Set variables from inputs" d="M815.75,44L815.75,46.916666666666664C815.75,49.833333333333336,815.75,55.666666666666664,815.75,61.5C815.75,67.33333333333333,815.75,73.16666666666667,815.75,76.08333333333333L815.75,79" marker-end="url(#arrowhead)" fill="none"/></g><g class="sc-dAbbOL iStBUT edge"><path id="state-Generate copy job list:state-Run top level and recursive in parallel:normal" d="M815.75,212L815.75,214.91666666666666C815.75,217.83333333333334,815.75,223.66666666666666,815.75,229.5C815.75,235.33333333333334,815.75,241.16666666666666,815.75,244.08333333333334L815.75,247" marker-end="url(#arrowhead)" fill="none"/></g><g class="sc-dAbbOL iStBUT edge"><path id="state-Run top level and recursive in parallel:state-Send External Task Token Success:normal" d="M815.75,1179.5L815.75,1182.4166666666667C815.75,1185.3333333333333,815.75,1191.1666666666667,815.75,1197C815.75,1202.8333333333333,815.75,1208.6666666666667,815.75,1211.5833333333333L815.75,1214.5" marker-end="url(#arrowhead)" fill="none"/></g><g class="sc-dAbbOL iStBUT edge"><path id="state-Send External Task Token Success:end:normal" d="M815.75,1263.5L815.75,1266.4166666666667C815.75,1269.3333333333333,815.75,1275.1666666666667,815.75,1281C815.75,1286.8333333333333,815.75,1292.6666666666667,815.75,1295.5833333333333L815.75,1298.5" marker-end="url(#arrowhead)" fill="none"/></g></g><defs><marker id="arrowhead" markerWidth="8" markerHeight="6" refX="7" refY="3" orient="auto" class="sc-bbSZdi iYnlgu"><polygon points="0 0, 8 3, 0 6"/></marker><marker id="highlighted-arrowhead" markerWidth="6" markerHeight="4" refX="5" refY="2" orient="auto" class="sc-bbSZdi iYnlgu"><polygon points="0 0, 6 2, 0 4"/></marker><marker id="error-arrowhead" markerWidth="6" markerHeight="4" refX="5" refY="2" orient="auto" class="sc-bbSZdi iYnlgu"><polygon points="0 0, 6 2, 0 4"/></marker><marker id="large-arrowhead" markerWidth="10" markerHeight="8" refX="9" refY="4" orient="auto" class="sc-bbSZdi iYnlgu"><polygon points="0 0, 10 4, 0 8"/></marker><marker id="large-highlighted-arrowhead" markerWidth="5.5" markerHeight="4" refX="4.5" refY="2" orient="auto" class="sc-bbSZdi iYnlgu"><polygon points="0 0, 5.5 2, 0 4"/></marker><marker id="large-error-arrowhead" markerWidth="10" markerHeight="8" refX="9" refY="4" orient="auto" class="sc-bbSZdi iYnlgu"><polygon points="0 0, 10 4, 0 8"/></marker><linearGradient x1="0%" y1="100%" x2="100%" y2="0%" id="gradient-orange"><stop stop-color="#C8511B" offset="0%"/><stop stop-color="#FF9900" offset="100%"/></linearGradient><linearGradient x1="0%" y1="100%" x2="100%" y2="0%" id="gradient-turquoise"><stop stop-color="#055F4E" offset="0%"/><stop stop-color="#56C0A7" offset="100%"/></linearGradient><linearGradient x1="0%" y1="100%" x2="100%" y2="0%" id="gradient-blue"><stop stop-color="#2E27AD" offset="0%"/><stop stop-color="#527FFF" offset="100%"/></linearGradient><linearGradient x1="0%" y1="100%" x2="100%" y2="0%" id="gradient-pink"><stop stop-color="#B0084D" offset="0%"/><stop stop-color="#FF4F8B" offset="100%"/></linearGradient><linearGradient x1="0%" y1="100%" x2="100%" y2="0%" id="gradient-red"><stop stop-color="#BD0816" offset="0%"/><stop stop-color="#FF5252" offset="100%"/></linearGradient><linearGradient x1="0%" y1="100%" x2="100%" y2="0%" id="gradient-green"><stop stop-color="#1B660F" offset="0%"/><stop stop-color="#6CAE3E" offset="100%"/></linearGradient><linearGradient x1="0%" y1="100%" x2="100%" y2="0%" id="gradient-purple"><stop stop-color="#4D27A8" offset="0%"/><stop stop-color="#A166FF" offset="100%"/></linearGradient><linearGradient x1="0%" y1="100%" x2="100%" y2="0%" id="gradient-grey"><stop stop-color="#DCDCDC" offset="0%"/><stop stop-color="#F6F5F7" offset="100%"/></linearGradient><linearGradient x1="0%" y1="100%" x2="100%" y2="0%" id="gradient-light-pink"><stop stop-color="#DD344C" offset="0%"/><stop stop-color="#DD344C" offset="100%"/></linearGradient>,<linearGradient x1="0%" y1="100%" x2="100%" y2="0%" id="gradient-ag"><stop stop-color="#BC1356" offset="0%"/><stop stop-color="#F34482" offset="100%"/></linearGradient><linearGradient x1="0%" y1="100%" x2="100%" y2="0%" id="gradient-athena"><stop stop-color="#5930B5" offset="0%"/><stop stop-color="#945DF2" offset="100%"/></linearGradient><linearGradient x1="0%" y1="100%" x2="100%" y2="0%" id="gradient-emr"><stop stop-color="#5930B5" offset="0%"/><stop stop-color="#945DF2" offset="100%"/></linearGradient><linearGradient x1="0%" y1="100%" x2="100%" y2="0%" id="gradient-glue"><stop stop-color="#5930B5" offset="0%"/><stop stop-color="#945DF2" offset="100%"/></linearGradient><linearGradient x1="0%" y1="100%" x2="100%" y2="0%" id="gradient-sns"><stop stop-color="#BC1356" offset="0%"/><stop stop-color="#F34482" offset="100%"/></linearGradient><linearGradient x1="0%" y1="100%" x2="100%" y2="0%" id="gradient-states"><stop stop-color="#BC1356" offset="0%"/><stop stop-color="#F34482" offset="100%"/></linearGradient><linearGradient x1="0%" y1="100%" x2="100%" y2="0%" id="gradient-generic"><stop stop-color="#ccc" offset="0%"/><stop stop-color="#ddd" offset="100%"/></linearGradient><g stroke="none" stroke-width="1" fill="none" fill-rule="evenodd" id="icon-flow-pass"><g transform="translate(10.500000, 8.750000)" fill="#0073BB" fill-rule="nonzero"><path d="M13.8217363,31.2803301 L13.7368454,31.3532508 L13.7368454,31.3532508 L13.6534426,31.407053 L13.6534426,31.407053 L13.6052878,31.4313839 L13.6052878,31.4313839 L13.5081671,31.4681458 L13.5081671,31.4681458 L13.4513711,31.4828395 L13.4513711,31.4828395 L13.3846755,31.4942127 L13.3846755,31.4942127 L13.3412428,31.498357 L13.3412428,31.498357 L13.241495,31.498357 L13.241495,31.498357 L13.1802045,31.4917588 L13.1802045,31.4917588 L13.1314644,31.4828361 L13.1314644,31.4828361 L13.0652921,31.4652652 L12.9776235,31.4314294 L12.9776235,31.4314294 L12.9293782,31.4070608 L12.9293782,31.4070608 L12.8294824,31.3409596 L12.7610762,31.2803301 L12.7610762,31.2803301 L8.26107616,26.7803301 C7.96818295,26.4874369 7.96818295,26.0125631 8.26107616,25.7196699 C8.52734273,25.4534034 8.94400641,25.4291973 9.2376179,25.6470518 L9.32173634,25.7196699 L12.5814063,28.979 L12.581,19.7495522 L3.5,19.75 C1.6314366,19.75 0.104873551,18.2857224 0.00517886273,16.4420352 L0,16.25 L0,12.25 C0,10.3814366 1.4642776,8.85487355 3.3079648,8.75517886 L3.5,8.75 L11.686,8.74955216 L11.686,10.2495522 L3.5,10.25 C2.4456382,10.25 1.58183488,11.0658778 1.50548574,12.1007377 L1.5,12.25 L1.5,16.25 C1.5,17.3043618 2.31587779,18.1681651 3.35073766,18.2445143 L3.5,18.25 L22.5,18.25 C23.5543618,18.25 24.4181651,17.4341222 24.4945143,16.3992623 L24.5,16.25 L24.5,12.25 C24.5,11.1956382 23.6841222,10.3318349 22.6492623,10.2554857 L22.5,10.25 L15.686,10.2495522 L15.686,8.74955216 L22.5,8.75 C24.3685634,8.75 25.8951264,10.2142776 25.9948211,12.0579648 L26,12.25 L26,16.25 C26,18.1185634 24.5357224,19.6451264 22.6920352,19.7448211 L22.5,19.75 L14.081,19.7495522 L14.0814063,28.899 L17.2610762,25.7196699 L17.3451946,25.6470518 C17.6388061,25.4291973 18.0554698,25.4534034 18.3217363,25.7196699 C18.5880029,25.9859365 18.6122089,26.4026002 18.3943545,26.6962117 L18.3217363,26.7803301 L13.8217363,31.2803301 Z" fill="false"/><polygon points="14.0818291 0 14.0818291 14.5 12.5818291 14.5 12.5818291 0" fill="false"/></g></g><g stroke="none" stroke-width="1" fill="none" fill-rule="evenodd" id="icon-flow-map"><g transform="translate(7.250000, 12.250000)" fill="#0073BB" fill-rule="nonzero"><path d="M18.75 6.75C19.3023 6.75 19.75 7.19772 19.75 7.75V10.75C19.75 11.3023 19.3023 11.75 18.75 11.75H17V14.75H18.75C19.3023 14.75 19.75 15.1977 19.75 15.75V18.75C19.75 19.3023 19.3023 19.75 18.75 19.75H13.75C13.1977 19.75 12.75 19.3023 12.75 18.75V15.75C12.75 15.1977 13.1977 14.75 13.75 14.75H15.5V11.75H13.75C13.1977 11.75 12.75 11.3023 12.75 10.75V7.75C12.75 7.19772 13.1977 6.75 13.75 6.75H18.75ZM18.25 16.25H14.25V18.25H18.25V16.25ZM18.25 8.25H14.25V10.25H18.25V8.25Z" fill="false"/><path d="M4.36774 12.9782L4.25582 12.9874L4.16664 12.9828L4.0991 12.9721L4.01773 12.9507L3.91439 12.9084L3.84086 12.8662L3.80379 12.8403L3.71967 12.7677L0.21967 9.26773C-0.0732233 8.97484 -0.0732233 8.49996 0.21967 8.20707C0.485936 7.9408 0.9026 7.9166 1.19621 8.13445L1.28033 8.20707L3.5 10.427V5.75C3.5 2.64821 5.95602 0.120063 9.02944 0.00415208L9.25 0H24.25C27.3101 0 29.8183 2.39279 29.9906 5.418L29.9991 5.65629L30 7.75C30 8.16421 29.6642 8.5 29.25 8.5C28.8358 8.5 28.5 8.16421 28.5 7.75L28.4992 5.66855C28.4572 3.42607 26.6797 1.6129 24.4594 1.50507L24.25 1.5H9.25C6.97183 1.5 5.11231 3.29251 5.0049 5.54408L5 5.75V10.426L7.21967 8.20707L7.30379 8.13445C7.5974 7.9166 8.01406 7.9408 8.28033 8.20707C8.5466 8.47334 8.5708 8.89 8.35295 9.18361L8.28033 9.26773L4.78033 12.7677C4.7427 12.8054 4.70207 12.8382 4.65921 12.8661L4.58539 12.9085L4.50826 12.9417L4.44164 12.9626L4.36774 12.9782Z" fill="false"/><path d="M29.1567 12.4673L29.2442 12.4615L29.3612 12.4698L29.4099 12.4787L29.4761 12.4963L29.5349 12.5175L29.6052 12.5507L29.6962 12.6086L29.7803 12.6812L33.2803 16.1812C33.5732 16.4741 33.5732 16.949 33.2803 17.2419C33.0141 17.5081 32.5974 17.5323 32.3038 17.3145L32.2197 17.2419L30 15.0225V19.75C30 22.8518 27.544 25.3799 24.4706 25.4959L24.25 25.5H9.25C6.22365 25.5 3.73213 23.158 3.5153 20.1725L3.503 19.9226L3.5 17.75C3.5 17.3358 3.83579 17 4.25 17C4.6297 17 4.94349 17.2822 4.99315 17.6482L5 17.75L5.00248 19.8967C5.07738 22.112 6.8452 23.8894 9.04276 23.995L9.25 24H24.25C26.5282 24 28.3877 22.2075 28.4951 19.9559L28.5 19.75V15.0215L26.2803 17.2419L26.1962 17.3145C25.9026 17.5323 25.4859 17.5081 25.2197 17.2419C24.9534 16.9756 24.9292 16.5589 25.1471 16.2653L25.2197 16.1812L28.7197 12.6812L28.797 12.6137L28.8948 12.5507L28.965 12.5176L29.0427 12.4906L29.09 12.4787L29.1567 12.4673Z" fill="false"/></g></g><g stroke="none" stroke-width="1" fill="none" fill-rule="evenodd" id="icon-flow-distributedmap"><use href="#icon-flow-map"/></g><g stroke="none" stroke-width="1" fill="none" fill-rule="evenodd" id="icon-flow-choice"><g transform="translate(9.252020, 8.729185)" fill="#0073BB" fill-rule="nonzero"><path d="M13.7176503,0.219669914 C13.9839168,-0.0465966484 14.4005805,-0.0708026996 14.694192,0.147051761 L14.7783104,0.219669914 L26.7991257,12.2404852 C27.0653923,12.5067518 27.0895983,12.9234154 26.8717439,13.2170269 L26.7991257,13.3011454 L19.848,20.251 L27.063,27.58 L27.0635443,24.4725437 C27.0635443,24.0583302 27.3993308,23.7225437 27.8135443,23.7225437 C28.1901021,23.7225437 28.5018441,24.0000532 28.5554124,24.3617142 L28.5635443,24.4725437 L28.5635443,29.4222912 C28.5635443,29.4735748 28.5583971,29.5236562 28.5485912,29.5720469 L28.5290567,29.6477745 L28.4912259,29.7440224 L28.4674556,29.7898473 L28.4399848,29.8348433 L28.3922808,29.8993609 L28.3266417,29.9693147 L28.2903734,30.0012261 L28.2103598,30.0588356 L28.1372883,30.0990133 L28.0408973,30.1372113 L27.9243738,30.1641593 C27.8841362,30.1698129 27.8491297,30.1722912 27.8135443,30.1722912 L22.8637969,30.1722912 C22.4495833,30.1722912 22.1137969,29.8365048 22.1137969,29.4222912 C22.1137969,29.0457334 22.3913063,28.7339914 22.7529674,28.6804231 L22.8637969,28.6722912 L26.032,28.672 L18.787,21.312 L14.7783104,25.3219606 C14.5120439,25.5882272 14.0953802,25.6124333 13.8017687,25.3945788 L13.7176503,25.3219606 L9.63,21.234 L2.386,28.671 L5.69974747,28.6722912 L5.81057697,28.6804231 C6.17223802,28.7339914 6.44974747,29.0457334 6.44974747,29.4222912 C6.44974747,29.801987 6.16759359,30.1157822 5.80151803,30.1654446 L5.69974747,30.1722912 L0.75,30.1722912 L0.645175107,30.1650238 L0.571316134,30.150876 L0.491748953,30.1266437 L0.399838514,30.0857012 L0.323957521,30.0396165 L0.243169757,29.975129 L0.170912131,29.8989347 L0.109961584,29.8134582 L0.0656949991,29.7297074 L0.0297396696,29.6320944 L0.0076057584,29.5294944 L6.67910172e-13,29.4222912 L6.67910172e-13,24.4725437 L0.00813192572,24.3617142 C0.0617002376,24.0000532 0.373442216,23.7225437 0.75,23.7225437 C1.12969577,23.7225437 1.44349096,24.0046976 1.49315338,24.3707732 L1.5,24.4725437 L1.499,27.433 L8.569,20.174 L1.69683498,13.3011454 C1.43056842,13.0348788 1.40636237,12.6182151 1.62421683,12.3246036 L1.69683498,12.2404852 L13.7176503,0.219669914 Z M14.3527697,23.728356 L25.2081355,12.7708153 L14.2479803,1.81066017 L3.28782524,12.7708153 L9.616,19.099 L14.3527697,23.728356 Z" fill="false"/><path d="M15.2319803,14.0468153 L15.2319803,13.2668153 C16.0033137,12.8508153 16.5579803,12.4218153 16.8959803,11.9798153 C17.2339803,11.5378153 17.4029803,11.0178153 17.4029803,10.4198153 C17.4029803,9.65714861 17.151647,9.06131528 16.6489803,8.63231528 C16.1463137,8.20331528 15.448647,7.98881528 14.5559803,7.98881528 C13.6979803,7.98881528 12.874647,8.19248195 12.0859803,8.59981528 L12.0859803,8.59981528 L12.0859803,10.3288153 C12.8313137,9.98214861 13.4943137,9.80881528 14.0749803,9.80881528 C14.395647,9.80881528 14.6404803,9.87814861 14.8094803,10.0168153 C14.9784803,10.1554819 15.0629803,10.3591486 15.0629803,10.6278153 C15.0629803,10.9138153 14.9763137,11.1651486 14.8029803,11.3818153 C14.629647,11.5984819 14.343647,11.8151486 13.9449803,12.0318153 L13.9449803,12.0318153 L13.1909803,12.4348153 L13.3339803,14.0468153 L15.2319803,14.0468153 Z M14.3089803,17.4398153 C14.7249803,17.4398153 15.0608137,17.3141486 15.3164803,17.0628153 C15.572147,16.8114819 15.6999803,16.4821486 15.6999803,16.0748153 C15.6999803,15.6674819 15.572147,15.3381486 15.3164803,15.0868153 C15.0608137,14.8354819 14.7249803,14.7098153 14.3089803,14.7098153 C13.8929803,14.7098153 13.557147,14.8354819 13.3014803,15.0868153 C13.0458137,15.3381486 12.9179803,15.6674819 12.9179803,16.0748153 C12.9179803,16.4821486 13.0458137,16.8114819 13.3014803,17.0628153 C13.557147,17.3141486 13.8929803,17.4398153 14.3089803,17.4398153 Z" fill="false"/></g></g><g stroke="none" stroke-width="1" fill="none" fill-rule="evenodd" id="icon-flow-parallel"><g transform="translate(7.794758, 8.750000)" fill="#0073BB" fill-rule="nonzero"><path d="M16.199562,30.9615157 L16.1088907,30.9567289 L16.0428411,30.9462621 L15.9289205,30.9134016 L15.8581395,30.8824655 L15.747534,30.8144639 L15.6634156,30.7418457 L12.1634156,27.2418457 C11.8705224,26.9489525 11.8705224,26.4740788 12.1634156,26.1811856 C12.4296821,25.914919 12.8463458,25.890713 13.1399573,26.1085674 L13.2240758,26.1811856 L15.455,28.412 L15.455,12.999 L4.95524179,12.999 L4.955,28.446 L7.21966991,26.1811856 L7.30378835,26.1085674 C7.59739984,25.890713 8.01406352,25.914919 8.28033009,26.1811856 C8.54659665,26.4474521 8.5708027,26.8641158 8.35294824,27.1577273 L8.28033009,27.2418457 L4.78033009,30.7418457 L4.69621165,30.8144639 L4.689,30.818 C4.66089447,30.8406686 4.6237969,30.8633711 4.58539483,30.8825712 L4.50825575,30.9158403 L4.44163507,30.9367462 L4.36774058,30.9522701 L4.27779844,30.9610057 L4.22212648,30.9610007 L4.09909543,30.9462621 L3.99176083,30.9158467 L3.9143938,30.8824655 L3.82554184,30.8300094 L3.80378835,30.8144639 L3.71966991,30.7418457 L0.219669914,27.2418457 C-0.0732233047,26.9489525 -0.0732233047,26.4740788 0.219669914,26.1811856 C0.485936477,25.914919 0.902600159,25.890713 1.19621165,26.1085674 L1.28033009,26.1811856 L3.455,28.356 L3.45524179,12.25 C3.45524179,11.8703042 3.73739568,11.556509 4.10347124,11.5068466 L4.20524179,11.5 L15.455,11.502 L15.4552418,-1.42108547e-13 L16.9552418,-1.42108547e-13 L16.955,11.495 L28.1555171,11.5 C28.5351143,11.5001394 28.8487603,11.7822674 28.8983985,12.1482549 L28.9052418,12.25 L28.905,28.44 L31.1641955,26.1811856 L31.2483139,26.1085674 C31.5419254,25.890713 31.9585891,25.914919 32.2248557,26.1811856 C32.4911222,26.4474521 32.5153283,26.8641158 32.2974738,27.1577273 L32.2248557,27.2418457 L28.7248557,30.7418457 C28.6845386,30.7821628 28.6407734,30.8169302 28.5945094,30.8461478 L28.5328469,30.8811 L28.4268027,30.9248089 L28.3112733,30.9524264 L28.1887092,30.9615157 L28.1087231,30.9566189 L28.0352714,30.9445058 L27.9277401,30.9126603 L27.8920604,30.8980433 L27.8568141,30.8814079 C27.8351606,30.8704626 27.8145136,30.8587698 27.7943421,30.8460217 C27.7482777,30.8169302 27.7045126,30.7821628 27.6641955,30.7418457 L24.1641955,27.2418457 C23.8713023,26.9489525 23.8713023,26.4740788 24.1641955,26.1811856 C24.4304621,25.914919 24.8471258,25.890713 25.1407372,26.1085674 L25.2248557,26.1811856 L27.405,28.362 L27.4052418,12.999 L16.955,12.992 L16.955,28.389 L19.1634156,26.1811856 L19.247534,26.1085674 C19.5411455,25.890713 19.9578092,25.914919 20.2240758,26.1811856 C20.4903423,26.4474521 20.5145484,26.8641158 20.2966939,27.1577273 L20.2240758,27.2418457 L16.7240758,30.7418457 L16.6399573,30.8144639 L16.636,30.816 L16.589136,30.8490255 L16.5330413,30.8806066 L16.4260228,30.9248089 L16.3532729,30.9444467 L16.2795333,30.9566255 L16.199562,30.9615157 Z" fill="false"/></g></g><g stroke="none" stroke-width="1" fill="none" fill-rule="evenodd" id="icon-flow-distributedmap"><use href="#icon-flow-map"/></g><g stroke="none" stroke-width="1" fill="none" fill-rule="evenodd" id="icon-service-lam"><polygon fill="url(#gradient-orange)" fill-rule="nonzero" points="0 0 48 0 48 48 0 48"/><g transform="translate(11, 10)" fill="#FFFFFF"><path d="M26.5889213,27.8937088 L19.6925948,27.8937088 C19.4772752,27.8931074 19.2813916,27.7706914 19.1888047,27.578869 L9.43766764,7.45673404 L5.31218659,7.45673404 C5.00303594,7.45673404 4.75241983,7.20943823 4.75241983,6.90438337 L4.75241983,0.828526005 C4.75241983,0.523471153 5.00303594,0.276175335 5.31218659,0.276175335 L13.9325948,0.276175335 C14.1479143,0.276776788 14.3437979,0.399192787 14.4363848,0.591015217 L24.1427405,20.7131501 L26.5889213,20.7131501 C26.8980719,20.7131501 27.148688,20.9604459 27.148688,21.2655008 L27.148688,27.3413582 C27.148688,27.646413 26.8980719,27.8937088 26.5889213,27.8937088 Z M20.0452478,26.7890075 L26.0291545,26.7890075 L26.0291545,21.8178515 L23.7900875,21.8178515 C23.5747679,21.81725 23.3788843,21.694834 23.2862974,21.5030116 L13.5799417,1.38087667 L5.87755102,1.38087667 L5.87755102,6.3520327 L9.79591837,6.3520327 C10.0112379,6.35263416 10.2071215,6.47505016 10.2997085,6.66687259 L20.0452478,26.7890075 Z"/><path d="M8.10542274,27.8937099 L0.82845481,27.8937099 C0.635054571,27.8940907 0.455155006,27.7959347 0.352653061,27.634104 C0.243858391,27.4681848 0.233185428,27.2575536 0.324664723,27.0817533 L7.93749271,11.3894708 C8.03007964,11.1976484 8.22596323,11.0752324 8.4412828,11.0746298 L8.4412828,11.0746298 C8.65533487,11.0742082 8.85089022,11.1942751 8.94507289,11.3839473 L12.5891545,18.7799228 C12.6634688,18.931712 12.6634688,19.1086786 12.5891545,19.2604679 L8.6148105,27.5457279 C8.53147526,27.7523199 8.33072312,27.8894609 8.10542274,27.8937099 L8.10542274,27.8937099 Z M1.72408163,26.7890075 L7.75276968,26.7890075 L11.4640233,19.0560981 L8.44688047,12.8973881 L1.72408163,26.7890075 Z"/></g></g><g stroke="none" stroke-width="1" fill="none" fill-rule="evenodd" id="icon-service-states"><polygon fill="url(#gradient-states)" fill-rule="nonzero" points="0 0 48 0 48 48 0 48"/><g transform="translate(7.714286, 7.714286)" fill="#FFFFFF"><path d="M26.9059233,12.3928716 L26.9059233,8.47912299 C26.9059233,8.11887237 26.6121138,7.82683155 26.2496813,7.82683155 L17.0622929,7.82683155 L17.0622929,6.45701954 C18.7127174,6.12215613 19.8399485,4.59949006 19.6706454,2.9336515 C19.5013424,1.26781294 18.0905083,0 16.4060508,0 C14.7215933,0 13.3107593,1.26781294 13.1414562,2.9336515 C12.9721531,4.59949006 14.0993842,6.12215613 15.7498088,6.45701954 L15.7498088,7.82683155 L6.56242033,7.82683155 C6.19998786,7.82683155 5.9061783,8.11887237 5.9061783,8.47912299 L5.9061783,11.0882887 L0.656242033,11.0882887 C0.293809566,11.0882887 0,11.3803295 0,11.7405802 L0,15.0020373 C0,15.362288 0.293809566,15.6543288 0.656242033,15.6543288 L5.9061783,15.6543288 L5.9061783,16.9589116 L0.656242033,16.9589116 C0.293809566,16.9589116 0,17.2509525 0,17.6112031 L0,20.8726603 C0,21.2329109 0.293809566,21.5249517 0.656242033,21.5249517 L5.9061783,21.5249517 L5.9061783,24.1341174 C5.9061783,24.494368 6.19998786,24.7864089 6.56242033,24.7864089 L15.7498088,24.7864089 L15.7498088,26.1562209 C14.0993842,26.4910843 12.9721531,28.0137504 13.1414562,29.6795889 C13.3107593,31.3454275 14.7215933,32.6132404 16.4060508,32.6132404 C18.0905083,32.6132404 19.5013424,31.3454275 19.6706454,29.6795889 C19.8399485,28.0137504 18.7127174,26.4910843 17.0622929,26.1562209 L17.0622929,24.7864089 L26.2496813,24.7864089 C26.6121138,24.7864089 26.9059233,24.494368 26.9059233,24.1341174 L26.9059233,20.8726603 L25.5934393,20.8726603 L25.5934393,23.481826 L7.21866236,23.481826 L7.21866236,21.5249517 L12.4685986,21.5249517 C12.8310311,21.5249517 13.1248407,21.2329109 13.1248407,20.8726603 L13.1248407,17.6112031 C13.1248407,17.2509525 12.8310311,16.9589116 12.4685986,16.9589116 L7.21866236,16.9589116 L7.21866236,15.6543288 L12.4685986,15.6543288 C12.8310311,15.6543288 13.1248407,15.362288 13.1248407,15.0020373 L13.1248407,11.7405802 C13.1248407,11.3803295 12.8310311,11.0882887 12.4685986,11.0882887 L7.21866236,11.0882887 L7.21866236,9.13141442 L25.5934393,9.13141442 L25.5934393,12.3928716 L26.9059233,12.3928716 Z M18.3747769,29.3524489 C18.3747769,30.4332008 17.4933482,31.3093232 16.4060508,31.3093232 C15.3187534,31.3093232 14.4373247,30.4332008 14.4373247,29.3524489 C14.4373247,28.2716971 15.3187534,27.3955746 16.4060508,27.3955746 C17.4933482,27.3955746 18.3747769,28.2716971 18.3747769,29.3524489 L18.3747769,29.3524489 Z M11.8123566,18.2634945 L11.8123566,20.2203688 L1.31248407,20.2203688 L1.31248407,18.2634945 L11.8123566,18.2634945 Z M11.8123566,12.3928716 L11.8123566,14.3497459 L1.31248407,14.3497459 L1.31248407,12.3928716 L11.8123566,12.3928716 Z M14.4373247,3.2607915 C14.4373247,2.18003967 15.3187534,1.3039172 16.4060508,1.3039172 C17.4933482,1.3039172 18.3747769,2.18003967 18.3747769,3.2607915 C18.3747769,4.34154334 17.4933482,5.21766581 16.4060508,5.21766581 C15.3187534,5.21766581 14.4373247,4.34154334 14.4373247,3.2607915 Z"/><path d="M32.7614824,13.0452962 L19.4197022,13.0452962 C19.0512792,13.0452962 18.7526132,13.3292132 18.7526132,13.6794425 L18.7526132,18.1184669 C18.7526132,18.4686963 19.0512792,18.7526132 19.4197022,18.7526132 L32.7614824,18.7526132 C33.1299055,18.7526132 33.4285714,18.4686963 33.4285714,18.1184669 L33.4285714,13.6794425 C33.4285714,13.3292132 33.1299055,13.0452962 32.7614824,13.0452962 Z M32.0943934,17.4843206 L20.0867913,17.4843206 L20.0867913,14.3135889 L32.0943934,14.3135889 L32.0943934,17.4843206 Z"/></g></g><g stroke="none" stroke-width="1" fill="none" fill-rule="evenodd" id="icon-service-events"><g fill="url(#gradient-pink)" fill-rule="nonzero"><rect x="0" y="0" width="48" height="48"/></g><path d="M31.2584891,38.2790698 C30.1297571,38.2790698 29.2116636,37.367814 29.2116636,36.2474884 C29.2116636,35.1271628 30.1297571,34.215907 31.2584891,34.215907 C32.3872211,34.215907 33.3053146,35.1271628 33.3053146,36.2474884 C33.3053146,37.367814 32.3872211,38.2790698 31.2584891,38.2790698 L31.2584891,38.2790698 Z M26.4152555,28.9069767 L20.5442511,28.9069767 L17.6083857,23.8604651 L20.5442511,18.8139535 L26.4152555,18.8139535 L29.3511208,23.8604651 L26.4152555,28.9069767 Z M16.4680323,13.5050233 C15.3393003,13.5050233 14.4204804,12.5937674 14.4204804,11.4734419 C14.4204804,10.3531163 15.3393003,9.44186047 16.4680323,9.44186047 C17.5960379,9.44186047 18.5148577,10.3531163 18.5148577,11.4734419 C18.5148577,12.5937674 17.5960379,13.5050233 16.4680323,13.5050233 L16.4680323,13.5050233 Z M31.2584891,32.7740465 C30.8677183,32.7740465 30.4980114,32.8526279 30.1464629,32.9701395 L27.9093364,29.2227442 L30.8190535,24.2209302 C30.948342,23.9974419 30.948342,23.7234884 30.8190535,23.5 L27.4633638,17.7325581 C27.3340753,17.5090698 27.0943832,17.372093 26.8343535,17.372093 L20.8333343,17.372093 L18.8315419,14.0190465 C19.5251964,13.383907 19.9675373,12.4820233 19.9675373,11.4734419 C19.9675373,9.55865116 18.397917,8 16.4680323,8 C14.5374211,8 12.9678009,9.55865116 12.9678009,11.4734419 C12.9678009,13.3889535 14.5374211,14.9468837 16.4680323,14.9468837 C16.8588031,14.9468837 17.22851,14.8683023 17.5800585,14.7507907 L19.4293195,17.847186 L16.1411794,23.5 C16.0111645,23.7234884 16.0111645,23.9974419 16.1411794,24.2209302 L19.4961428,29.9883721 C19.6254313,30.2118605 19.8651234,30.3488372 20.125153,30.3488372 L26.8343535,30.3488372 C26.8532384,30.3488372 26.8706705,30.3430698 26.8881027,30.3416279 L28.8949795,33.7018837 C28.201325,34.3370233 27.7589841,35.238907 27.7589841,36.2474884 C27.7589841,38.1622791 29.3286043,39.7209302 31.2584891,39.7209302 C33.1883739,39.7209302 34.7579941,38.1622791 34.7579941,36.2474884 C34.7579941,34.3319767 33.1883739,32.7740465 31.2584891,32.7740465 L31.2584891,32.7740465 Z M34.6265266,19.2724651 C33.4977946,19.2724651 32.5789748,18.3612093 32.5789748,17.2408837 C32.5789748,16.1205581 33.4977946,15.2093023 34.6265266,15.2093023 C35.7545323,15.2093023 36.6733521,16.1205581 36.6733521,17.2408837 C36.6733521,18.3612093 35.7545323,19.2724651 34.6265266,19.2724651 L34.6265266,19.2724651 Z M36.8222518,19.9234651 C37.6110568,19.2861628 38.1260317,18.3273256 38.1260317,17.2408837 C38.1260317,15.326093 36.5564114,13.7674419 34.6265266,13.7674419 C34.1667536,13.7674419 33.7302233,13.8611628 33.3285575,14.0219302 L31.3616293,11.1951628 C31.2250775,11.0005116 31.0013648,10.8837209 30.7631254,10.8837209 L24.2260674,10.8837209 L24.2260674,12.3255814 L30.3825233,12.3255814 L32.1206544,14.8243256 C31.50835,15.450093 31.1262953,16.3015116 31.1262953,17.2408837 C31.1262953,19.1563953 32.6959155,20.7143256 34.6265266,20.7143256 C34.9395791,20.7143256 35.2381047,20.6602558 35.5279143,20.5831163 L37.4352825,23.8604651 L34.6606646,28.6301395 L35.9186851,29.3510698 L38.9024889,24.2209302 C39.0325037,23.9974419 39.0325037,23.7234884 38.9024889,23.5 L36.8222518,19.9234651 Z M12.8363334,32.2492093 C11.7076014,32.2492093 10.7887816,31.3379535 10.7887816,30.2176279 C10.7887816,29.0973023 11.7076014,28.1860465 12.8363334,28.1860465 C13.9643391,28.1860465 14.8831589,29.0973023 14.8831589,30.2176279 C14.8831589,31.3379535 13.9643391,32.2492093 12.8363334,32.2492093 L12.8363334,32.2492093 Z M14.936908,32.9780698 C15.7809148,32.3436512 16.3358384,31.3480465 16.3358384,30.2176279 C16.3358384,28.3028372 14.7662182,26.744186 12.8363334,26.744186 C12.3308009,26.744186 11.8528693,26.8559302 11.4192445,27.0476977 L9.56489904,23.8604651 L12.7891213,18.3172326 L11.5311008,17.5963023 L8.09696636,23.5 C7.96767788,23.7234884 7.96767788,23.9974419 8.09696636,24.2209302 L10.2411214,27.9077674 C9.68547145,28.5234419 9.33610202,29.3272791 9.33610202,30.2176279 C9.33610202,32.1331395 10.9057223,33.6910698 12.8363334,33.6910698 C13.1014474,33.6910698 13.357119,33.6564651 13.6048009,33.6009535 L15.6385522,36.5257674 C15.7743778,36.7204186 15.9973641,36.8372093 16.2363299,36.8372093 L22.7733878,36.8372093 L22.7733878,35.3953488 L16.6183846,35.3953488 L14.936908,32.9780698 Z" fill="#FFFFFF"/></g></defs></g></svg>
