<!DOCTYPE svg PUBLIC "-//W3C//DTD SVG 1.1//EN" "https://www.w3.org/Graphics/SVG/1.1/DTD/svg11.dtd"><svg xmlns="http://www.w3.org/2000/svg" class="sc-bDpDS hIXa-DQ graph" data-testid="graph" role="img" aria-labelledby="polymath-graph-title" width="605" height="396"><title id="polymath-graph-title">Workflow Studio State Machine Graph</title><g transform="translate(12,12)" class="new-look-graph"><g class="nodes"><g class="node-container" transform="translate(290.5,22)"><g><circle class="sc-hknOHE gHgSNu shape" r="22"/><text class="sc-fBWQRz kzYAMD label"><tspan xml:space="preserve" text-anchor="middle" alignment-baseline="central">Start</tspan></text></g></g><g class="node-container" transform="translate(290.5,186)"><g class="sc-ikkxIA lodPSx node state container Parallel" data-testid="graph-Run tasks" data-state-id="Run tasks" data-state-type="Parallel"><g class="new-look-state-node "><g class="bounding-box" transform="translate(0,5)"><rect class="sc-hCPjZK fZMwc shape" rx="7" ry="7" x="-290.5" y="-107" width="581" height="209"/><g class="content" transform="translate(-290.5,-107)"><g class="branch" transform="translate(20,89)"><g class="branchInsertArea" data-insertion-index="0" data-parent-state-id="Run tasks" id="Run tasks:0" x="-20" y="0" width="20" height="100"><rect x="-20" y="0" width="20" height="100" stroke="none" fill="none"/><path d="M-10,0 l0,100" stroke="none" fill="none"/></g><g transform=""><g class="nodes"><g class="node-container" transform="translate(140.5,24.5)"><g class="sc-ikkxIA lodPSx node state Task" data-testid="graph-Add job id and task token to db" data-state-id="Add job id and task token to db" data-state-type="Task"><g class="new-look-state-node "><rect x="-140.5" y="-24.5" width="281" height="49" rx="3" ry="3"/><g class="handle" transform="translate(-140.5,-24.5)"><path d="M5,16 L5,34 M8,16 L8,34"/></g><g class="icon" transform="translate(-124.5,-24)"><rect fill="var(--color-background-container-header-etndi4, #fafafa)" x="0.0361026108" y="0.0181291967" width="48" height="48"/><line x1="47.5" y1="0.49122807" x2="47.5" y2="47.5" stroke="var(--color-board-placeholder-active-qurjro, #d5dbdb)" stroke-linecap="square"/><line x1="0.5" y1="0.49122807" x2="0.5" y2="47.5" stroke="var(--color-board-placeholder-active-qurjro, #d5dbdb)" stroke-linecap="square"/><use href="#icon-service-ddb" aria-hidden="true"><title>DynamoDB</title></use></g><g class="text-lines" transform="translate(-68.5,-24.5)"><text transform="translate(0,17)" class="line1"><tspan xml:space="preserve" text-anchor="start">DynamoDB: PutItem</tspan></text><text transform="translate(0,35.5)" class="line2 label"><tspan xml:space="preserve" text-anchor="start">Add job id and task token to db</tspan></text></g></g></g></g><g class="node-container" transform="translate(140.5,92)"><g><circle class="sc-uVWWZ jEBwKg shape" r="8"/></g></g></g><g class="edges"><g class="sc-dAbbOL iStBUT edge"><path id="state-Add job id and task token to db:end:normal" d="M140.5,49L140.5,51.916666666666664C140.5,54.833333333333336,140.5,60.666666666666664,140.5,66.5C140.5,72.33333333333333,140.5,78.16666666666667,140.5,81.08333333333333L140.5,84" marker-end="url(#arrowhead)" fill="none"/></g></g></g><g class="branchInsertArea" data-insertion-index="1" data-parent-state-id="Run tasks" id="Run tasks:1" x="281" y="0" width="20" height="100"><rect x="281" y="0" width="20" height="100" stroke="none" fill="none"/><path d="M291,0 l0,100" stroke="none" fill="none"/></g></g><g class="branch" transform="translate(321,89)"><g transform=""><g class="nodes"><g class="node-container" transform="translate(120,24.5)"><g class="sc-ikkxIA lodPSx node state Task" data-testid="graph-Enable HeartBeat Rule" data-state-id="Enable HeartBeat Rule" data-state-type="Task"><g class="new-look-state-node "><rect x="-120" y="-24.5" width="240" height="49" rx="3" ry="3"/><g class="handle" transform="translate(-120,-24.5)"><path d="M5,16 L5,34 M8,16 L8,34"/></g><g class="icon" transform="translate(-104,-24)"><rect fill="var(--color-background-container-header-etndi4, #fafafa)" x="0.0361026108" y="0.0181291967" width="48" height="48"/><line x1="47.5" y1="0.49122807" x2="47.5" y2="47.5" stroke="var(--color-board-placeholder-active-qurjro, #d5dbdb)" stroke-linecap="square"/><line x1="0.5" y1="0.49122807" x2="0.5" y2="47.5" stroke="var(--color-board-placeholder-active-qurjro, #d5dbdb)" stroke-linecap="square"/><use href="#icon-service-events" aria-hidden="true"><title>Amazon EventBridge</title></use></g><g class="text-lines" transform="translate(-48,-24.5)"><text transform="translate(0,17)" class="line1"><tspan xml:space="preserve" text-anchor="start">EventBridge: EnableRule</tspan></text><text transform="translate(0,35.5)" class="line2 label"><tspan xml:space="preserve" text-anchor="start">Enable HeartBeat Rule</tspan></text></g></g></g></g><g class="node-container" transform="translate(120,92)"><g><circle class="sc-uVWWZ jEBwKg shape" r="8"/></g></g></g><g class="edges"><g class="sc-dAbbOL iStBUT edge"><path id="state-Enable HeartBeat Rule:end:normal" d="M120,49L120,51.916666666666664C120,54.833333333333336,120,60.666666666666664,120,66.5C120,72.33333333333333,120,78.16666666666667,120,81.08333333333333L120,84" marker-end="url(#arrowhead)" fill="none"/></g></g></g><g class="branchInsertArea" data-insertion-index="2" data-parent-state-id="Run tasks" id="Run tasks:2" x="240" y="0" width="20" height="100"><rect x="240" y="0" width="20" height="100" stroke="none" fill="none"/><path d="M250,0 l0,100" stroke="none" fill="none"/></g></g><g class="sc-dAbbOL iStBUT"><path id="Run tasks-Add job id and task token to db" class="path starting-connection" d="M290.5,44L290.5,47.75C290.5,51.5,290.5,59,268.8333333333333,62.75C247.16666666666666,66.5,203.83333333333334,66.5,182.16666666666666,70.25C160.5,74,160.5,81.5,160.5,85.25L160.5,89" fill="none"/></g><g class="sc-dAbbOL iStBUT"><path id="Run tasks-Enable HeartBeat Rule" class="path starting-connection" d="M290.5,44L290.5,47.75C290.5,51.5,290.5,59,315.5833333333333,62.75C340.6666666666667,66.5,390.8333333333333,66.5,415.9166666666667,70.25C441,74,441,81.5,441,85.25L441,89" fill="none"/></g></g></g><g class="new-look-state-node "><rect x="-120" y="-107" width="240" height="49" rx="3" ry="3"/><g class="handle" transform="translate(-120,-107)"><path d="M5,16 L5,34 M8,16 L8,34"/></g><g class="icon" transform="translate(-104,-106.5)"><rect fill="var(--color-background-container-header-etndi4, #fafafa)" x="0.0361026108" y="0.0181291967" width="48" height="48"/><line x1="47.5" y1="0.49122807" x2="47.5" y2="47.5" stroke="var(--color-board-placeholder-active-qurjro, #d5dbdb)" stroke-linecap="square"/><line x1="0.5" y1="0.49122807" x2="0.5" y2="47.5" stroke="var(--color-board-placeholder-active-qurjro, #d5dbdb)" stroke-linecap="square"/><use href="#icon-flow-parallel"/></g><g class="text-lines" transform="translate(-48,-107)"><text transform="translate(0,17)" class="line1"><tspan xml:space="preserve" text-anchor="start">Parallel state</tspan></text><text transform="translate(0,35.5)" class="line2 label"><tspan xml:space="preserve" text-anchor="start">Run tasks</tspan></text></g></g></g></g></g><g class="node-container" transform="translate(290.5,350)"><g><circle class="sc-hknOHE gHgSNu shape" r="22"/><text class="sc-fBWQRz kzYAMD label"><tspan xml:space="preserve" text-anchor="middle" alignment-baseline="central">End</tspan></text></g></g></g><g class="edges"><g class="sc-dAbbOL iStBUT edge"><path id="state-Run tasks:end:normal" d="M290.5,293L290.5,295.9166666666667C290.5,298.8333333333333,290.5,304.6666666666667,290.5,310.5C290.5,316.3333333333333,290.5,322.1666666666667,290.5,325.0833333333333L290.5,328" marker-end="url(#arrowhead)" fill="none"/></g><g class="sc-dAbbOL iStBUT edge"><path id="start:state-Run tasks" d="M290.5,44L290.5,46.916666666666664C290.5,49.833333333333336,290.5,55.666666666666664,290.5,61.5C290.5,67.33333333333333,290.5,73.16666666666667,290.5,76.08333333333333L290.5,79" marker-end="url(#arrowhead)" fill="none"/></g></g><defs><marker id="arrowhead" markerWidth="8" markerHeight="6" refX="7" refY="3" orient="auto" class="sc-bbSZdi iYnlgu"><polygon points="0 0, 8 3, 0 6"/></marker><marker id="highlighted-arrowhead" markerWidth="6" markerHeight="4" refX="5" refY="2" orient="auto" class="sc-bbSZdi iYnlgu"><polygon points="0 0, 6 2, 0 4"/></marker><marker id="error-arrowhead" markerWidth="6" markerHeight="4" refX="5" refY="2" orient="auto" class="sc-bbSZdi iYnlgu"><polygon points="0 0, 6 2, 0 4"/></marker><marker id="large-arrowhead" markerWidth="10" markerHeight="8" refX="9" refY="4" orient="auto" class="sc-bbSZdi iYnlgu"><polygon points="0 0, 10 4, 0 8"/></marker><marker id="large-highlighted-arrowhead" markerWidth="5.5" markerHeight="4" refX="4.5" refY="2" orient="auto" class="sc-bbSZdi iYnlgu"><polygon points="0 0, 5.5 2, 0 4"/></marker><marker id="large-error-arrowhead" markerWidth="10" markerHeight="8" refX="9" refY="4" orient="auto" class="sc-bbSZdi iYnlgu"><polygon points="0 0, 10 4, 0 8"/></marker><linearGradient x1="0%" y1="100%" x2="100%" y2="0%" id="gradient-orange"><stop stop-color="#C8511B" offset="0%"/><stop stop-color="#FF9900" offset="100%"/></linearGradient><linearGradient x1="0%" y1="100%" x2="100%" y2="0%" id="gradient-turquoise"><stop stop-color="#055F4E" offset="0%"/><stop stop-color="#56C0A7" offset="100%"/></linearGradient><linearGradient x1="0%" y1="100%" x2="100%" y2="0%" id="gradient-blue"><stop stop-color="#2E27AD" offset="0%"/><stop stop-color="#527FFF" offset="100%"/></linearGradient><linearGradient x1="0%" y1="100%" x2="100%" y2="0%" id="gradient-pink"><stop stop-color="#B0084D" offset="0%"/><stop stop-color="#FF4F8B" offset="100%"/></linearGradient><linearGradient x1="0%" y1="100%" x2="100%" y2="0%" id="gradient-red"><stop stop-color="#BD0816" offset="0%"/><stop stop-color="#FF5252" offset="100%"/></linearGradient><linearGradient x1="0%" y1="100%" x2="100%" y2="0%" id="gradient-green"><stop stop-color="#1B660F" offset="0%"/><stop stop-color="#6CAE3E" offset="100%"/></linearGradient><linearGradient x1="0%" y1="100%" x2="100%" y2="0%" id="gradient-purple"><stop stop-color="#4D27A8" offset="0%"/><stop stop-color="#A166FF" offset="100%"/></linearGradient><linearGradient x1="0%" y1="100%" x2="100%" y2="0%" id="gradient-grey"><stop stop-color="#DCDCDC" offset="0%"/><stop stop-color="#F6F5F7" offset="100%"/></linearGradient><linearGradient x1="0%" y1="100%" x2="100%" y2="0%" id="gradient-light-pink"><stop stop-color="#DD344C" offset="0%"/><stop stop-color="#DD344C" offset="100%"/></linearGradient>,<linearGradient x1="0%" y1="100%" x2="100%" y2="0%" id="gradient-ag"><stop stop-color="#BC1356" offset="0%"/><stop stop-color="#F34482" offset="100%"/></linearGradient><linearGradient x1="0%" y1="100%" x2="100%" y2="0%" id="gradient-athena"><stop stop-color="#5930B5" offset="0%"/><stop stop-color="#945DF2" offset="100%"/></linearGradient><linearGradient x1="0%" y1="100%" x2="100%" y2="0%" id="gradient-emr"><stop stop-color="#5930B5" offset="0%"/><stop stop-color="#945DF2" offset="100%"/></linearGradient><linearGradient x1="0%" y1="100%" x2="100%" y2="0%" id="gradient-glue"><stop stop-color="#5930B5" offset="0%"/><stop stop-color="#945DF2" offset="100%"/></linearGradient><linearGradient x1="0%" y1="100%" x2="100%" y2="0%" id="gradient-sns"><stop stop-color="#BC1356" offset="0%"/><stop stop-color="#F34482" offset="100%"/></linearGradient><linearGradient x1="0%" y1="100%" x2="100%" y2="0%" id="gradient-states"><stop stop-color="#BC1356" offset="0%"/><stop stop-color="#F34482" offset="100%"/></linearGradient><linearGradient x1="0%" y1="100%" x2="100%" y2="0%" id="gradient-generic"><stop stop-color="#ccc" offset="0%"/><stop stop-color="#ddd" offset="100%"/></linearGradient><g stroke="none" stroke-width="1" fill="none" fill-rule="evenodd" id="icon-flow-parallel"><g transform="translate(7.794758, 8.750000)" fill="#0073BB" fill-rule="nonzero"><path d="M16.199562,30.9615157 L16.1088907,30.9567289 L16.0428411,30.9462621 L15.9289205,30.9134016 L15.8581395,30.8824655 L15.747534,30.8144639 L15.6634156,30.7418457 L12.1634156,27.2418457 C11.8705224,26.9489525 11.8705224,26.4740788 12.1634156,26.1811856 C12.4296821,25.914919 12.8463458,25.890713 13.1399573,26.1085674 L13.2240758,26.1811856 L15.455,28.412 L15.455,12.999 L4.95524179,12.999 L4.955,28.446 L7.21966991,26.1811856 L7.30378835,26.1085674 C7.59739984,25.890713 8.01406352,25.914919 8.28033009,26.1811856 C8.54659665,26.4474521 8.5708027,26.8641158 8.35294824,27.1577273 L8.28033009,27.2418457 L4.78033009,30.7418457 L4.69621165,30.8144639 L4.689,30.818 C4.66089447,30.8406686 4.6237969,30.8633711 4.58539483,30.8825712 L4.50825575,30.9158403 L4.44163507,30.9367462 L4.36774058,30.9522701 L4.27779844,30.9610057 L4.22212648,30.9610007 L4.09909543,30.9462621 L3.99176083,30.9158467 L3.9143938,30.8824655 L3.82554184,30.8300094 L3.80378835,30.8144639 L3.71966991,30.7418457 L0.219669914,27.2418457 C-0.0732233047,26.9489525 -0.0732233047,26.4740788 0.219669914,26.1811856 C0.485936477,25.914919 0.902600159,25.890713 1.19621165,26.1085674 L1.28033009,26.1811856 L3.455,28.356 L3.45524179,12.25 C3.45524179,11.8703042 3.73739568,11.556509 4.10347124,11.5068466 L4.20524179,11.5 L15.455,11.502 L15.4552418,-1.42108547e-13 L16.9552418,-1.42108547e-13 L16.955,11.495 L28.1555171,11.5 C28.5351143,11.5001394 28.8487603,11.7822674 28.8983985,12.1482549 L28.9052418,12.25 L28.905,28.44 L31.1641955,26.1811856 L31.2483139,26.1085674 C31.5419254,25.890713 31.9585891,25.914919 32.2248557,26.1811856 C32.4911222,26.4474521 32.5153283,26.8641158 32.2974738,27.1577273 L32.2248557,27.2418457 L28.7248557,30.7418457 C28.6845386,30.7821628 28.6407734,30.8169302 28.5945094,30.8461478 L28.5328469,30.8811 L28.4268027,30.9248089 L28.3112733,30.9524264 L28.1887092,30.9615157 L28.1087231,30.9566189 L28.0352714,30.9445058 L27.9277401,30.9126603 L27.8920604,30.8980433 L27.8568141,30.8814079 C27.8351606,30.8704626 27.8145136,30.8587698 27.7943421,30.8460217 C27.7482777,30.8169302 27.7045126,30.7821628 27.6641955,30.7418457 L24.1641955,27.2418457 C23.8713023,26.9489525 23.8713023,26.4740788 24.1641955,26.1811856 C24.4304621,25.914919 24.8471258,25.890713 25.1407372,26.1085674 L25.2248557,26.1811856 L27.405,28.362 L27.4052418,12.999 L16.955,12.992 L16.955,28.389 L19.1634156,26.1811856 L19.247534,26.1085674 C19.5411455,25.890713 19.9578092,25.914919 20.2240758,26.1811856 C20.4903423,26.4474521 20.5145484,26.8641158 20.2966939,27.1577273 L20.2240758,27.2418457 L16.7240758,30.7418457 L16.6399573,30.8144639 L16.636,30.816 L16.589136,30.8490255 L16.5330413,30.8806066 L16.4260228,30.9248089 L16.3532729,30.9444467 L16.2795333,30.9566255 L16.199562,30.9615157 Z" fill="false"/></g></g><g stroke="none" stroke-width="1" fill="none" fill-rule="evenodd" id="icon-service-ddb"><polygon fill="url(#gradient-blue)" fill-rule="nonzero" points="0 0 48 0 48 48 0 48"/><path d="M34.5810287,19.5947556 L32.1910412,19.5947556 C31.9723757,19.5947556 31.7677101,19.4862534 31.6430441,19.3049671 C31.5183781,19.1230069 31.4897116,18.8911762 31.5670445,18.6842807 L33.2290358,14.2033421 L27.287067,14.2033421 L24.559748,20.2686823 L27.5243991,20.2686823 C27.738398,20.2686823 27.9397302,20.372467 28.0657296,20.5490358 C28.1903956,20.7242568 28.2250621,20.9500222 28.1563958,21.1555699 L25.7164086,28.5559589 L34.5810287,19.5947556 Z M36.6616844,19.3972951 L24.6624141,31.5279756 C24.5344148,31.6580435 24.3630824,31.7254361 24.1910833,31.7254361 C24.0697506,31.7254361 23.9490845,31.6924137 23.8410851,31.6250211 C23.5777532,31.4605829 23.4604204,31.1350764 23.5590866,30.8385486 L26.5990706,21.6165357 L23.5244201,21.6165357 C23.2977546,21.6165357 23.0870891,21.4999464 22.9637564,21.3078773 C22.841757,21.1144603 22.8237571,20.8725206 22.9177566,20.6636034 L26.2510724,13.2504097 C26.3590719,13.0098179 26.5957373,12.8554887 26.8577359,12.8554887 L34.1910307,12.8554887 C34.4096962,12.8554887 34.6143618,12.9639909 34.7390278,13.1452772 C34.8636938,13.3272374 34.8923603,13.5590681 34.8156941,13.7659636 L33.1530362,18.2469022 L36.1903535,18.2469022 C36.4596854,18.2469022 36.7036842,18.4113403 36.8063503,18.662715 C36.9096831,18.9147636 36.85235,19.2045521 36.6616844,19.3972951 L36.6616844,19.3972951 Z M30.8577149,32.241664 C29.0510577,33.4992112 25.7330752,34.163029 22.5457586,34.163029 C19.3351088,34.163029 15.9877931,33.4904502 14.1904692,32.214033 L14.1911358,34.7581063 C14.1911358,35.8673896 17.3697858,37.4140514 22.5457586,37.4140514 C27.542399,37.4140514 30.8577149,35.6126453 30.8577149,34.4211429 L30.8577149,32.241664 Z M32.2337077,30.0621851 C32.2337077,30.1868615 32.2123744,30.3068204 32.1910412,30.4261055 L32.1910412,34.4211429 C32.1910412,36.8149305 27.8643973,38.7619048 22.5457586,38.7619048 C17.9437828,38.7619048 13.2984739,37.5023358 12.8971426,35.0950696 L12.8578095,35.0950696 L12.8571429,31.7254361 L12.8571429,22.9643891 L12.8571429,13.5294154 L12.8578095,13.5294154 C12.8578095,10.8653831 17.8491166,9.42857143 22.5457586,9.42857143 C25.1730781,9.42857143 27.6990648,9.85516703 29.4770555,10.5991821 L28.9663915,11.8445986 C27.3450667,11.1652805 25.0044123,10.7764248 22.5457586,10.7764248 C17.3697858,10.7764248 14.1911358,12.3796964 14.1911358,13.5294154 C14.1911358,14.6791343 17.3697858,16.2824059 22.5457586,16.2824059 C22.6757579,16.2824059 22.8117572,16.2830798 22.9430898,16.2776884 L22.9950896,17.624194 C22.8450903,17.6302593 22.6957578,17.6302593 22.5457586,17.6302593 C19.3344421,17.6302593 15.9877931,16.9576805 14.1904692,15.6812633 L14.1904692,18.5865613 L14.1911358,18.5865613 L14.1911358,18.598018 C14.1944692,18.9511556 14.5171341,19.3602291 15.1004644,19.7443674 C16.4217908,20.60295 18.8004449,21.1899401 21.4597643,21.3119208 L21.399098,22.6584264 C18.6484457,22.5317282 16.2324584,21.9460859 14.6751333,21.0477416 C14.4684677,21.24655 14.1911358,21.751995 14.1911358,22.0256092 C14.1911358,23.1753282 17.3697858,24.7785998 22.5457586,24.7785998 C23.037756,24.7785998 23.5224201,24.7617516 23.9870843,24.7287292 L24.0810839,26.0732129 C23.5850865,26.1089311 23.0684225,26.1264532 22.5457586,26.1264532 C19.3344421,26.1264532 15.9877931,25.4538743 14.1904692,24.1774572 L14.1904692,26.6238111 L14.1911358,26.6238111 C14.1944692,26.9884054 14.5171341,27.3974789 15.1004644,27.7816171 C16.6124564,28.7648762 19.4664414,29.3774755 22.5457586,29.3774755 L22.7657574,29.3774755 L22.7657574,30.7253289 L22.5457586,30.7253289 C19.360442,30.7253289 15.9724598,30.053424 14.1911358,29.0297294 C13.9764703,29.2285377 14.1911358,29.7036561 14.1911358,30.0621851 C14.1911358,31.211904 17.3697858,32.8151756 22.5457586,32.8151756 C27.722398,32.8151756 30.9003813,31.211904 30.9003813,30.0621851 C30.9003813,29.6558073 30.5010501,29.2790822 30.1723852,29.0364686 C29.8997199,29.2009067 29.5997215,29.3586056 29.2577233,29.5028259 L28.745726,28.2580833 C29.0997241,28.1091455 29.4057225,27.9494249 29.6550545,27.7836389 C30.3890507,27.2943681 30.8577149,26.5982018 30.8577149,26.3340226 L32.1910412,26.3340226 C32.1910412,26.9607744 31.7770434,27.6320054 31.2463795,28.1839514 C32.041042,28.8774219 32.2337077,29.5695446 32.2337077,30.0621851 L32.2337077,30.0621851 Z M14.9517985,35.0209377 C15.4791291,35.2932041 16.0957925,35.5358177 16.7864555,35.7413653 L17.1624536,34.4481 C16.5517901,34.2668137 16.0117929,34.0552007 15.558462,33.8206742 L14.9517985,35.0209377 Z M16.7864555,27.654245 L17.1624536,26.3616536 C16.5517901,26.1796934 16.0117929,25.9687543 15.558462,25.7342278 L14.9517985,26.9338173 C15.4791291,27.2067576 16.0957925,27.4486973 16.7864555,27.654245 L16.7864555,27.654245 Z M14.9517985,18.8473709 L15.558462,17.6471075 C16.0117929,17.881634 16.5517901,18.092573 17.1624536,18.2745332 L16.7864555,19.5677986 C16.0957925,19.3622509 15.4791291,19.1196373 14.9517985,18.8473709 L14.9517985,18.8473709 Z" fill="#FFFFFF"/></g><g stroke="none" stroke-width="1" fill="none" fill-rule="evenodd" id="icon-service-events"><g fill="url(#gradient-pink)" fill-rule="nonzero"><rect x="0" y="0" width="48" height="48"/></g><path d="M31.2584891,38.2790698 C30.1297571,38.2790698 29.2116636,37.367814 29.2116636,36.2474884 C29.2116636,35.1271628 30.1297571,34.215907 31.2584891,34.215907 C32.3872211,34.215907 33.3053146,35.1271628 33.3053146,36.2474884 C33.3053146,37.367814 32.3872211,38.2790698 31.2584891,38.2790698 L31.2584891,38.2790698 Z M26.4152555,28.9069767 L20.5442511,28.9069767 L17.6083857,23.8604651 L20.5442511,18.8139535 L26.4152555,18.8139535 L29.3511208,23.8604651 L26.4152555,28.9069767 Z M16.4680323,13.5050233 C15.3393003,13.5050233 14.4204804,12.5937674 14.4204804,11.4734419 C14.4204804,10.3531163 15.3393003,9.44186047 16.4680323,9.44186047 C17.5960379,9.44186047 18.5148577,10.3531163 18.5148577,11.4734419 C18.5148577,12.5937674 17.5960379,13.5050233 16.4680323,13.5050233 L16.4680323,13.5050233 Z M31.2584891,32.7740465 C30.8677183,32.7740465 30.4980114,32.8526279 30.1464629,32.9701395 L27.9093364,29.2227442 L30.8190535,24.2209302 C30.948342,23.9974419 30.948342,23.7234884 30.8190535,23.5 L27.4633638,17.7325581 C27.3340753,17.5090698 27.0943832,17.372093 26.8343535,17.372093 L20.8333343,17.372093 L18.8315419,14.0190465 C19.5251964,13.383907 19.9675373,12.4820233 19.9675373,11.4734419 C19.9675373,9.55865116 18.397917,8 16.4680323,8 C14.5374211,8 12.9678009,9.55865116 12.9678009,11.4734419 C12.9678009,13.3889535 14.5374211,14.9468837 16.4680323,14.9468837 C16.8588031,14.9468837 17.22851,14.8683023 17.5800585,14.7507907 L19.4293195,17.847186 L16.1411794,23.5 C16.0111645,23.7234884 16.0111645,23.9974419 16.1411794,24.2209302 L19.4961428,29.9883721 C19.6254313,30.2118605 19.8651234,30.3488372 20.125153,30.3488372 L26.8343535,30.3488372 C26.8532384,30.3488372 26.8706705,30.3430698 26.8881027,30.3416279 L28.8949795,33.7018837 C28.201325,34.3370233 27.7589841,35.238907 27.7589841,36.2474884 C27.7589841,38.1622791 29.3286043,39.7209302 31.2584891,39.7209302 C33.1883739,39.7209302 34.7579941,38.1622791 34.7579941,36.2474884 C34.7579941,34.3319767 33.1883739,32.7740465 31.2584891,32.7740465 L31.2584891,32.7740465 Z M34.6265266,19.2724651 C33.4977946,19.2724651 32.5789748,18.3612093 32.5789748,17.2408837 C32.5789748,16.1205581 33.4977946,15.2093023 34.6265266,15.2093023 C35.7545323,15.2093023 36.6733521,16.1205581 36.6733521,17.2408837 C36.6733521,18.3612093 35.7545323,19.2724651 34.6265266,19.2724651 L34.6265266,19.2724651 Z M36.8222518,19.9234651 C37.6110568,19.2861628 38.1260317,18.3273256 38.1260317,17.2408837 C38.1260317,15.326093 36.5564114,13.7674419 34.6265266,13.7674419 C34.1667536,13.7674419 33.7302233,13.8611628 33.3285575,14.0219302 L31.3616293,11.1951628 C31.2250775,11.0005116 31.0013648,10.8837209 30.7631254,10.8837209 L24.2260674,10.8837209 L24.2260674,12.3255814 L30.3825233,12.3255814 L32.1206544,14.8243256 C31.50835,15.450093 31.1262953,16.3015116 31.1262953,17.2408837 C31.1262953,19.1563953 32.6959155,20.7143256 34.6265266,20.7143256 C34.9395791,20.7143256 35.2381047,20.6602558 35.5279143,20.5831163 L37.4352825,23.8604651 L34.6606646,28.6301395 L35.9186851,29.3510698 L38.9024889,24.2209302 C39.0325037,23.9974419 39.0325037,23.7234884 38.9024889,23.5 L36.8222518,19.9234651 Z M12.8363334,32.2492093 C11.7076014,32.2492093 10.7887816,31.3379535 10.7887816,30.2176279 C10.7887816,29.0973023 11.7076014,28.1860465 12.8363334,28.1860465 C13.9643391,28.1860465 14.8831589,29.0973023 14.8831589,30.2176279 C14.8831589,31.3379535 13.9643391,32.2492093 12.8363334,32.2492093 L12.8363334,32.2492093 Z M14.936908,32.9780698 C15.7809148,32.3436512 16.3358384,31.3480465 16.3358384,30.2176279 C16.3358384,28.3028372 14.7662182,26.744186 12.8363334,26.744186 C12.3308009,26.744186 11.8528693,26.8559302 11.4192445,27.0476977 L9.56489904,23.8604651 L12.7891213,18.3172326 L11.5311008,17.5963023 L8.09696636,23.5 C7.96767788,23.7234884 7.96767788,23.9974419 8.09696636,24.2209302 L10.2411214,27.9077674 C9.68547145,28.5234419 9.33610202,29.3272791 9.33610202,30.2176279 C9.33610202,32.1331395 10.9057223,33.6910698 12.8363334,33.6910698 C13.1014474,33.6910698 13.357119,33.6564651 13.6048009,33.6009535 L15.6385522,36.5257674 C15.7743778,36.7204186 15.9973641,36.8372093 16.2363299,36.8372093 L22.7733878,36.8372093 L22.7733878,35.3953488 L16.6183846,35.3953488 L14.936908,32.9780698 Z" fill="#FFFFFF"/></g></defs></g><style data-styled="true" data-styled-version="5.3.11">.lodPSx{cursor:pointer;}/*!sc*/
data-styled.g24[id="sc-ikkxIA"]{content:"lodPSx,"}/*!sc*/
.iStBUT{stroke:#555;background-color:#555;stroke-width:1px;}/*!sc*/
data-styled.g25[id="sc-dAbbOL"]{content:"iStBUT,"}/*!sc*/
.iYnlgu{fill:var(--color-text-form-secondary-btuye6,#687078);}/*!sc*/
data-styled.g53[id="sc-bbSZdi"]{content:"iYnlgu,"}/*!sc*/
.kzYAMD{font-weight:400;font-size:12px;line-height:16px;font-family:Amazon Ember,Arial,Roboto,Arial,sans-serif;text-shadow:none;fill:var(--color-text-button-primary-default-qh066v,#16191f);}/*!sc*/
data-styled.g54[id="sc-fBWQRz"]{content:"kzYAMD,"}/*!sc*/
.gHgSNu{fill:#fff9cc;stroke:var(--color-text-form-secondary-btuye6,#687078);stroke-width:0.6px;}/*!sc*/
data-styled.g55[id="sc-hknOHE"]{content:"gHgSNu,"}/*!sc*/
.jEBwKg{fill:#fff9cc;stroke:var(--color-text-form-secondary-btuye6,#687078);stroke-width:0.6px;}/*!sc*/
data-styled.g56[id="sc-uVWWZ"]{content:"jEBwKg,"}/*!sc*/
.fZMwc{stroke:var(--color-border-control-default-ie1oqq,#687078);stroke-width:1px;fill:var(--color-background-container-content-x1dxuu,#ffffff);opacity:0.5;}/*!sc*/
.node &gt; .new-look-state-node.has-errors &gt; .bounding-box &gt; .sc-hCPjZK{stroke:var(--color-border-status-error-si9bvu,#d13212);fill:var(--color-background-status-error-qqw3y6,#fdf3f1);}/*!sc*/
.selected &gt; .node &gt; .new-look-state-node &gt; .bounding-box &gt; .sc-hCPjZK{stroke:var(--color-border-status-info-fjyzd6,#0073bb);fill:var(--color-background-status-info-60ssq8,#f1faff);}/*!sc*/
.selected &gt; .node &gt; .new-look-state-node.has-errors &gt; .bounding-box &gt; .sc-hCPjZK{stroke:var(--color-border-status-error-si9bvu,#d13212);fill:#fde0da;}/*!sc*/
data-styled.g57[id="sc-hCPjZK"]{content:"fZMwc,"}/*!sc*/
</style><style>
.new-look-state-node &gt; rect:first-of-type {
  stroke: #687078;
  stroke-width: 1px;
  fill: #FFFFFF;
}

.new-look-state-node .error-icon circle {
 stroke-linejoin: round;
}

.new-look-state-node .error-icon circle, .new-look-state-node .error-icon path {
 stroke: var(--color-border-status-error-si9bvu, #d13212);
 fill: none;
 stroke-width: 2px;
}

.new-look-state-node.has-errors &gt; rect:first-of-type {
 stroke: var(--color-border-status-error-si9bvu, #d13212);
 fill: var(--color-background-status-error-qqw3y6, #fdf3f1);
}

.new-look-state-node.has-errors &gt; .bounding-box &gt; .new-look-state-node-sub &gt; rect {
  stroke: var(--color-border-status-error-si9bvu, #d13212);
  fill: var(--color-background-status-error-qqw3y6, #fdf3f1);
}

.new-look-state-node .handle path {
  stroke: var(--color-border-dropdown-item-hover-t6obhh, #879596);
  stroke-width: 1px;
  fill: none;
}

.new-look-state-node {
  font-weight: 400;
  font-family: Amazon Ember, Arial, Roboto, Arial, sans-serif;
  text-shadow: none;
}

.new-look-state-node .line1 {
  fill: #687078;
  font-size: 12px;
}

.new-look-state-node .line2 {
  fill: #16191f;
}

.selected.node &gt; .new-look-state-node &gt; rect,
.selected.node &gt; .new-look-state-node &gt; .new-look-state-node &gt; rect,
.selected.node &gt; .new-look-state-node &gt; .bounding-box &gt; rect,
.selected.node &gt; .new-look-state-node.has-errors &gt; rect,
.selected.node &gt; .new-look-state-node.has-errors &gt; .bounding-box &gt; rect,
.selected.node &gt; .new-look-state-node.has-errors &gt; .new-look-state-node &gt; rect,
.selected.node &gt; .new-look-state-node &gt; .bounding-box &gt; .new-look-state-node-sub &gt; rect
 {
  stroke: var(--color-border-status-info-fjyzd6, #0073bb);
  fill: var(--color-background-status-info-60ssq8, #f1faff);
  stroke-width: 1px;
}

.new-look-state-node-sub .item-source.not-specified {
  height: 15px;
  color: #687078;
  font-family: "Amazon Ember";
  font-size: 12px;
  letter-spacing: 0;
  line-height: 16px;
  font-weight: 400;
}
.new-look-state-node-sub .item-source .item-source_name{
  font-weight: 600;
}
.new-look-state-node-sub .item-source.not-specified .item-source_name{
  font-weight: 400;
}

.new-look-state-node-sub .item-source.not-specified {
  font-style: italic;
}

.new-look-state-node-sub &gt; rect,
.new-look-state-node &gt; .bounding-box &gt; rect {
  stroke: var(--color-border-control-default-ie1oqq, #687078);
  fill: #ffffff;
}

.new-look-graph .drag-source {
  opacity: 0.2;
}

.new-look-graph .edge, .new-look-graph path.starting-connection {
  stroke-width: 1px;
  stroke: var(--color-text-form-secondary-btuye6, #687078);
  marker-end: url(#large-arrowhead);
}

.new-look-graph .edge-label {
  cursor: pointer;
}

.new-look-graph .edge-label rect {
  stroke-width: 1px;
  stroke: var(--color-border-control-default-ie1oqq, #687078);
  fill: #fafafa;
}

.new-look-graph .edge-label.selected rect {
  stroke: var(--color-border-status-info-fjyzd6, #0073bb);
  fill: var(--color-background-status-info-60ssq8, #f1faff);
  stroke-width: 0.6px;
}



.new-look-graph .edge-label .label {
  fill: var(--color-text-form-secondary-btuye6, #687078);
  font-family: Amazon Ember, Arial, Roboto, Arial, sans-serif;
}

/* centering the shape text */
@-moz-document url-prefix() {
  .new-look-graph .shape + text,
  .new-look-graph .edge-label text {
    transform: translateY(3.5px);
  }
}

.new-look-graph .edge path {
  marker-end: url(#large-arrowhead) !important;
}

.new-look-graph .edge.selected path{
  stroke: var(--color-border-status-info-fjyzd6, #0073bb);
  stroke-width: 1.1px;
}

.new-look-graph .edge.dragging-over path, .new-look-graph  g.dragging-over .starting-connection {
  stroke: #5C86FF;
  stroke-width: 2px;
}

.new-look-graph .edge.dragging-over path, .new-look-graph .dragging-over path.starting-connection {
  marker-end: url(#large-highlighted-arrowhead) !important;
}

.new-look-graph .edge.dragging-over .edge-label text {
  fill: #5C86FF;
}

#large-highlighted-arrowhead {
  fill: #5C86FF;
}

#large-highlighted-arrowhead path {
  stroke: none;
}

.new-look-graph .edge.drop-not-supported path, g.drop-not-supported .starting-connection {
  stroke: red;
}

.new-look-graph .edge.drop-not-supported .edge-label text {
  fill: red;
}

.new-look-graph .edge.drop-not-supported path {
  marker-end: url(#large-error-arrowhead) !important;
}

#large-error-arrowhead {
  fill: red;
}

.node-container * &gt; .icon  {
  &gt; rect {
    fill: #fafafa;
  }
  &gt; line {
    stroke: #d5dbdb;
  }
}


.node.Placeholder.dragging-over rect {
  stroke: var(--color-border-status-info-fjyzd6, #0073bb);
  fill: var(--color-background-status-info-60ssq8, #f1faff);
  stroke-width: 2px;
}

.node.Placeholder.dragging-over .label {
  fill: var(--color-text-status-info-f9d9f2, #0073bb);
}

g.Placeholder rect {
  stroke-dasharray: 5 4;
  stroke: var(--color-border-dropdown-item-hover-t6obhh, #879596);
  fill: #ffffff;
  stroke-width: 1px;
}

g.Placeholder .label {
  font-style: italic;
  fill: var(--color-text-input-placeholder-lhl4lu, #687078);
}

.node.Placeholder.drop-not-supported rect {
  stroke: red;
}

.node.Placeholder.drop-not-supported .label {
  fill: red;
}
</style><style>.line2 { font-size: 14px }</style></svg>
