<!DOCTYPE svg PUBLIC "-//W3C//DTD SVG 1.1//EN" "https://www.w3.org/Graphics/SVG/1.1/DTD/svg11.dtd"><svg xmlns="http://www.w3.org/2000/svg" class="sc-bDpDS hIXa-DQ graph" data-testid="graph" role="img" aria-labelledby="polymath-graph-title" width="1063" height="785"><title id="polymath-graph-title">Workflow Studio State Machine Graph</title><g transform="translate(12,12)" class="new-look-graph"><g class="nodes"><g class="node-container" transform="translate(463,22)"><g><circle class="sc-hknOHE gHgSNu shape" r="22"/><text class="sc-fBWQRz kzYAMD label"><tspan xml:space="preserve" text-anchor="middle" alignment-baseline="central">Start</tspan></text></g></g><g class="node-container" transform="translate(463,103.5)"><g class="sc-ikkxIA lodPSx node state Wait" data-testid="graph-Wait 5" data-state-id="Wait 5" data-state-type="Wait"><g class="new-look-state-node "><rect x="-120" y="-24.5" width="240" height="49" rx="3" ry="3"/><g class="handle" transform="translate(-120,-24.5)"><path d="M5,16 L5,34 M8,16 L8,34"/></g><g class="icon" transform="translate(-104,-24)"><rect fill="var(--color-background-container-header-etndi4, #fafafa)" x="0.0361026108" y="0.0181291967" width="48" height="48"/><line x1="47.5" y1="0.49122807" x2="47.5" y2="47.5" stroke="var(--color-board-placeholder-active-qurjro, #d5dbdb)" stroke-linecap="square"/><line x1="0.5" y1="0.49122807" x2="0.5" y2="47.5" stroke="var(--color-board-placeholder-active-qurjro, #d5dbdb)" stroke-linecap="square"/><use href="#icon-flow-wait"/></g><g class="text-lines" transform="translate(-48,-24.5)"><text transform="translate(0,17)" class="line1"><tspan xml:space="preserve" text-anchor="start">Wait state</tspan></text><text transform="translate(0,35.5)" class="line2 label"><tspan xml:space="preserve" text-anchor="start">Wait 5</tspan></text></g></g></g></g><g class="node-container" transform="translate(463,187.5)"><g class="sc-ikkxIA lodPSx node state Pass" data-testid="graph-Get Inputs from Payload" data-state-id="Get Inputs from Payload" data-state-type="Pass"><g class="new-look-state-node "><rect x="-120" y="-24.5" width="240" height="49" rx="3" ry="3"/><g class="handle" transform="translate(-120,-24.5)"><path d="M5,16 L5,34 M8,16 L8,34"/></g><g class="icon" transform="translate(-104,-24)"><rect fill="var(--color-background-container-header-etndi4, #fafafa)" x="0.0361026108" y="0.0181291967" width="48" height="48"/><line x1="47.5" y1="0.49122807" x2="47.5" y2="47.5" stroke="var(--color-board-placeholder-active-qurjro, #d5dbdb)" stroke-linecap="square"/><line x1="0.5" y1="0.49122807" x2="0.5" y2="47.5" stroke="var(--color-board-placeholder-active-qurjro, #d5dbdb)" stroke-linecap="square"/><use href="#icon-flow-pass"/></g><g class="text-lines" transform="translate(-48,-24.5)"><text transform="translate(0,17)" class="line1"><tspan xml:space="preserve" text-anchor="start">Pass state</tspan></text><text transform="translate(0,35.5)" class="line2 label"><tspan xml:space="preserve" text-anchor="start">Get Inputs from Payload</tspan></text></g></g></g></g><g class="node-container" transform="translate(463,271.5)"><g class="sc-ikkxIA lodPSx node state Task" data-testid="graph-Get Job ID from DB" data-state-id="Get Job ID from DB" data-state-type="Task"><g class="new-look-state-node "><rect x="-120" y="-24.5" width="240" height="49" rx="3" ry="3"/><g class="handle" transform="translate(-120,-24.5)"><path d="M5,16 L5,34 M8,16 L8,34"/></g><g class="icon" transform="translate(-104,-24)"><rect fill="var(--color-background-container-header-etndi4, #fafafa)" x="0.0361026108" y="0.0181291967" width="48" height="48"/><line x1="47.5" y1="0.49122807" x2="47.5" y2="47.5" stroke="var(--color-board-placeholder-active-qurjro, #d5dbdb)" stroke-linecap="square"/><line x1="0.5" y1="0.49122807" x2="0.5" y2="47.5" stroke="var(--color-board-placeholder-active-qurjro, #d5dbdb)" stroke-linecap="square"/><use href="#icon-service-ddb" aria-hidden="true"><title>DynamoDB</title></use></g><g class="text-lines" transform="translate(-48,-24.5)"><text transform="translate(0,17)" class="line1"><tspan xml:space="preserve" text-anchor="start">DynamoDB: GetItem</tspan></text><text transform="translate(0,35.5)" class="line2 label"><tspan xml:space="preserve" text-anchor="start">Get Job ID from DB</tspan></text></g></g></g></g><g class="node-container" transform="translate(463,355.5)"><g class="sc-ikkxIA lodPSx node state Choice" data-testid="graph-Job ID in DB" data-state-id="Job ID in DB" data-state-type="Choice"><g class="new-look-state-node "><rect x="-120" y="-24.5" width="240" height="49" rx="3" ry="3"/><g class="handle" transform="translate(-120,-24.5)"><path d="M5,16 L5,34 M8,16 L8,34"/></g><g class="icon" transform="translate(-104,-24)"><rect fill="var(--color-background-container-header-etndi4, #fafafa)" x="0.0361026108" y="0.0181291967" width="48" height="48"/><line x1="47.5" y1="0.49122807" x2="47.5" y2="47.5" stroke="var(--color-board-placeholder-active-qurjro, #d5dbdb)" stroke-linecap="square"/><line x1="0.5" y1="0.49122807" x2="0.5" y2="47.5" stroke="var(--color-board-placeholder-active-qurjro, #d5dbdb)" stroke-linecap="square"/><use href="#icon-flow-choice"/></g><g class="text-lines" transform="translate(-48,-24.5)"><text transform="translate(0,17)" class="line1"><tspan xml:space="preserve" text-anchor="start">Choice state</tspan></text><text transform="translate(0,35.5)" class="line2 label"><tspan xml:space="preserve" text-anchor="start">Job ID in DB</tspan></text></g></g></g></g><g class="node-container" transform="translate(380,456)"><g class="sc-ikkxIA lodPSx node state Choice" data-testid="graph-Job Status" data-state-id="Job Status" data-state-type="Choice"><g class="new-look-state-node "><rect x="-120" y="-24.5" width="240" height="49" rx="3" ry="3"/><g class="handle" transform="translate(-120,-24.5)"><path d="M5,16 L5,34 M8,16 L8,34"/></g><g class="icon" transform="translate(-104,-24)"><rect fill="var(--color-background-container-header-etndi4, #fafafa)" x="0.0361026108" y="0.0181291967" width="48" height="48"/><line x1="47.5" y1="0.49122807" x2="47.5" y2="47.5" stroke="var(--color-board-placeholder-active-qurjro, #d5dbdb)" stroke-linecap="square"/><line x1="0.5" y1="0.49122807" x2="0.5" y2="47.5" stroke="var(--color-board-placeholder-active-qurjro, #d5dbdb)" stroke-linecap="square"/><use href="#icon-flow-choice"/></g><g class="text-lines" transform="translate(-48,-24.5)"><text transform="translate(0,17)" class="line1"><tspan xml:space="preserve" text-anchor="start">Choice state</tspan></text><text transform="translate(0,35.5)" class="line2 label"><tspan xml:space="preserve" text-anchor="start">Job Status</tspan></text></g></g></g></g><g class="node-container" transform="translate(639,657)"><g class="sc-ikkxIA lodPSx node state Succeed" data-testid="graph-Not in DB" data-state-id="Not in DB" data-state-type="Succeed"><g class="new-look-state-node "><rect x="-120" y="-24.5" width="240" height="49" rx="3" ry="3"/><g class="handle" transform="translate(-120,-24.5)"><path d="M5,16 L5,34 M8,16 L8,34"/></g><g class="icon" transform="translate(-104,-24)"><rect fill="var(--color-background-container-header-etndi4, #fafafa)" x="0.0361026108" y="0.0181291967" width="48" height="48"/><line x1="47.5" y1="0.49122807" x2="47.5" y2="47.5" stroke="var(--color-board-placeholder-active-qurjro, #d5dbdb)" stroke-linecap="square"/><line x1="0.5" y1="0.49122807" x2="0.5" y2="47.5" stroke="var(--color-board-placeholder-active-qurjro, #d5dbdb)" stroke-linecap="square"/><use href="#icon-flow-succeed"/></g><g class="text-lines" transform="translate(-48,-24.5)"><text transform="translate(0,17)" class="line1"><tspan xml:space="preserve" text-anchor="start">Succeed state</tspan></text><text transform="translate(0,35.5)" class="line2 label"><tspan xml:space="preserve" text-anchor="start">Not in DB</tspan></text></g></g></g></g><g class="node-container" transform="translate(428,556.5)"><g class="sc-ikkxIA lodPSx node state Task" data-testid="graph-Send Task Success" data-state-id="Send Task Success" data-state-type="Task"><g class="new-look-state-node "><rect x="-131" y="-24.5" width="262" height="49" rx="3" ry="3"/><g class="handle" transform="translate(-131,-24.5)"><path d="M5,16 L5,34 M8,16 L8,34"/></g><g class="icon" transform="translate(-115,-24)"><rect fill="var(--color-background-container-header-etndi4, #fafafa)" x="0.0361026108" y="0.0181291967" width="48" height="48"/><line x1="47.5" y1="0.49122807" x2="47.5" y2="47.5" stroke="var(--color-board-placeholder-active-qurjro, #d5dbdb)" stroke-linecap="square"/><line x1="0.5" y1="0.49122807" x2="0.5" y2="47.5" stroke="var(--color-board-placeholder-active-qurjro, #d5dbdb)" stroke-linecap="square"/><use href="#icon-service-states" aria-hidden="true"><title>Step Functions</title></use></g><g class="text-lines" transform="translate(-59,-24.5)"><text transform="translate(0,17)" class="line1"><tspan xml:space="preserve" text-anchor="start">Step Functions: SendTaskSuccess</tspan></text><text transform="translate(0,35.5)" class="line2 label"><tspan xml:space="preserve" text-anchor="start">Send Task Success</tspan></text></g></g></g></g><g class="node-container" transform="translate(919,657)"><g class="sc-ikkxIA lodPSx node state Succeed" data-testid="graph-Non-Terminal Status" data-state-id="Non-Terminal Status" data-state-type="Succeed"><g class="new-look-state-node "><rect x="-120" y="-24.5" width="240" height="49" rx="3" ry="3"/><g class="handle" transform="translate(-120,-24.5)"><path d="M5,16 L5,34 M8,16 L8,34"/></g><g class="icon" transform="translate(-104,-24)"><rect fill="var(--color-background-container-header-etndi4, #fafafa)" x="0.0361026108" y="0.0181291967" width="48" height="48"/><line x1="47.5" y1="0.49122807" x2="47.5" y2="47.5" stroke="var(--color-board-placeholder-active-qurjro, #d5dbdb)" stroke-linecap="square"/><line x1="0.5" y1="0.49122807" x2="0.5" y2="47.5" stroke="var(--color-board-placeholder-active-qurjro, #d5dbdb)" stroke-linecap="square"/><use href="#icon-flow-succeed"/></g><g class="text-lines" transform="translate(-48,-24.5)"><text transform="translate(0,17)" class="line1"><tspan xml:space="preserve" text-anchor="start">Succeed state</tspan></text><text transform="translate(0,35.5)" class="line2 label"><tspan xml:space="preserve" text-anchor="start">Non-Terminal Status</tspan></text></g></g></g></g><g class="node-container" transform="translate(128.5,556.5)"><g class="sc-ikkxIA lodPSx node state Task" data-testid="graph-Send Task Failure" data-state-id="Send Task Failure" data-state-type="Task"><g class="new-look-state-node "><rect x="-128.5" y="-24.5" width="257" height="49" rx="3" ry="3"/><g class="handle" transform="translate(-128.5,-24.5)"><path d="M5,16 L5,34 M8,16 L8,34"/></g><g class="icon" transform="translate(-112.5,-24)"><rect fill="var(--color-background-container-header-etndi4, #fafafa)" x="0.0361026108" y="0.0181291967" width="48" height="48"/><line x1="47.5" y1="0.49122807" x2="47.5" y2="47.5" stroke="var(--color-board-placeholder-active-qurjro, #d5dbdb)" stroke-linecap="square"/><line x1="0.5" y1="0.49122807" x2="0.5" y2="47.5" stroke="var(--color-board-placeholder-active-qurjro, #d5dbdb)" stroke-linecap="square"/><use href="#icon-service-states" aria-hidden="true"><title>Step Functions</title></use></g><g class="text-lines" transform="translate(-56.5,-24.5)"><text transform="translate(0,17)" class="line1"><tspan xml:space="preserve" text-anchor="start">Step Functions: SendTaskFailure</tspan></text><text transform="translate(0,35.5)" class="line2 label"><tspan xml:space="preserve" text-anchor="start">Send Task Failure</tspan></text></g></g></g></g><g class="node-container" transform="translate(245.25,657)"><g class="sc-ikkxIA lodPSx node state Task" data-testid="graph-Delete Job ID from Database" data-state-id="Delete Job ID from Database" data-state-type="Task"><g class="new-look-state-node "><rect x="-132" y="-24.5" width="264" height="49" rx="3" ry="3"/><g class="handle" transform="translate(-132,-24.5)"><path d="M5,16 L5,34 M8,16 L8,34"/></g><g class="icon" transform="translate(-116,-24)"><rect fill="var(--color-background-container-header-etndi4, #fafafa)" x="0.0361026108" y="0.0181291967" width="48" height="48"/><line x1="47.5" y1="0.49122807" x2="47.5" y2="47.5" stroke="var(--color-board-placeholder-active-qurjro, #d5dbdb)" stroke-linecap="square"/><line x1="0.5" y1="0.49122807" x2="0.5" y2="47.5" stroke="var(--color-board-placeholder-active-qurjro, #d5dbdb)" stroke-linecap="square"/><use href="#icon-service-ddb" aria-hidden="true"><title>DynamoDB</title></use></g><g class="text-lines" transform="translate(-60,-24.5)"><text transform="translate(0,17)" class="line1"><tspan xml:space="preserve" text-anchor="start">DynamoDB: DeleteItem</tspan></text><text transform="translate(0,35.5)" class="line2 label"><tspan xml:space="preserve" text-anchor="start">Delete Job ID from Database</tspan></text></g></g></g></g><g class="node-container" transform="translate(672,738.5)"><g><circle class="sc-hknOHE gHgSNu shape" r="22"/><text class="sc-fBWQRz kzYAMD label"><tspan xml:space="preserve" text-anchor="middle" alignment-baseline="central">End</tspan></text></g></g></g><g class="edges"><g class="sc-dAbbOL iStBUT edge"><path id="state-Wait 5:state-Get Inputs from Payload:normal" d="M463,128L463,130.91666666666666C463,133.83333333333334,463,139.66666666666666,463,145.5C463,151.33333333333334,463,157.16666666666666,463,160.08333333333334L463,163" marker-end="url(#arrowhead)" fill="none"/></g><g class="sc-dAbbOL iStBUT edge"><path id="start:state-Wait 5" d="M463,44L463,46.916666666666664C463,49.833333333333336,463,55.666666666666664,463,61.5C463,67.33333333333333,463,73.16666666666667,463,76.08333333333333L463,79" marker-end="url(#arrowhead)" fill="none"/></g><g class="sc-dAbbOL iStBUT edge"><path id="state-Get Inputs from Payload:state-Get Job ID from DB:normal" d="M463,212L463,214.91666666666666C463,217.83333333333334,463,223.66666666666666,463,229.5C463,235.33333333333334,463,241.16666666666666,463,244.08333333333334L463,247" marker-end="url(#arrowhead)" fill="none"/></g><g class="sc-dAbbOL iStBUT edge"><path id="state-Get Job ID from DB:state-Job ID in DB:normal" d="M463,296L463,298.9166666666667C463,301.8333333333333,463,307.6666666666667,463,313.5C463,319.3333333333333,463,325.1666666666667,463,328.0833333333333L463,331" marker-end="url(#arrowhead)" fill="none"/></g><g class="sc-dAbbOL iStBUT edge"><path id="state-Job ID in DB:state-Job Status:choiceRule:0" d="M422.5323383084577,380L415.4436152570481,384.2916666666667C408.35489220563846,388.5833333333333,394.17744610281926,397.1666666666667,387.08872305140966,405.75C380,414.3333333333333,380,422.9166666666667,380,427.2083333333333L380,431.5" marker-end="url(#arrowhead)" fill="none"/><g data-testid="graph-Job ID in DB-0" class="edge-label" transform="translate(387.08872305140966,405.75)"><rect x="-47" y="-8.25" width="94" height="16.5" class="sc-feUZmu jLkyCY"/><text class="sc-fUnMCh dtiIdW label"><tspan xml:space="preserve" text-anchor="middle" alignment-baseline="central">Job ID in DataBase</tspan><title>Job ID in DataBase</title></text></g></g><g class="sc-dAbbOL iStBUT edge"><path id="state-Job ID in DB:state-Not in DB:choiceDefault" d="M534.1840796019901,380L546.653399668325,384.2916666666667C559.1227197346601,388.5833333333333,584.06135986733,397.1666666666667,596.530679933665,409.8333333333333C609,422.5,609,439.25,609,456C609,472.75,609,489.5,609,506.25C609,523,609,539.75,609,556.5C609,573.25,609,590,611.5621890547263,602.6666666666666C614.1243781094528,615.3333333333334,619.2487562189054,623.9166666666666,621.8109452736318,628.2083333333334L624.3731343283582,632.5" marker-end="url(#arrowhead)" fill="none"/><g data-testid="graph-Job ID in DB-Default" class="edge-label" transform="translate(596.530679933665,409.8333333333333)"><rect x="-22" y="-8.25" width="44" height="16.5" class="sc-feUZmu jLkyCY"/><text class="sc-fUnMCh dtiIdW label"><tspan xml:space="preserve" text-anchor="middle" alignment-baseline="central">Default</tspan><title>Default</title></text></g></g><g class="sc-dAbbOL iStBUT edge"><path id="state-Job Status:state-Send Task Success:choiceRule:0" d="M403.4029850746269,480.5L407.50248756218906,484.7916666666667C411.6019900497513,489.0833333333333,419.80099502487565,497.6666666666667,423.9004975124378,506.25C428,514.8333333333334,428,523.4166666666666,428,527.7083333333334L428,532" marker-end="url(#arrowhead)" fill="none"/><g data-testid="graph-Job Status-0" class="edge-label" transform="translate(423.9004975124378,506.25)"><rect x="-38.5" y="-8.25" width="77" height="16.5" class="sc-feUZmu jLkyCY"/><text class="sc-fUnMCh dtiIdW label"><tspan xml:space="preserve" text-anchor="middle" alignment-baseline="central">Job Succeeded</tspan><title>Job Succeeded</title></text></g></g><g class="sc-dAbbOL iStBUT edge"><path id="state-Job Status:state-Non-Terminal Status:choiceRule:1" d="M500,467.1873840445269L569.8333333333334,473.6978200371057C639.6666666666666,480.2082560296846,779.3333333333334,493.2291280148423,849.1666666666666,508.11456400742117C919,523,919,539.75,919,556.5C919,573.25,919,590,919,602.6666666666666C919,615.3333333333334,919,623.9166666666666,919,628.2083333333334L919,632.5" marker-end="url(#arrowhead)" fill="none"/><g data-testid="graph-Job Status-1" class="edge-label" transform="translate(849.1666666666666,508.11456400742117)"><rect x="-43.5" y="-8.25" width="87" height="16.5" class="sc-feUZmu jLkyCY"/><text class="sc-fUnMCh dtiIdW label"><tspan xml:space="preserve" text-anchor="middle" alignment-baseline="central">Job Still Running</tspan><title>Job Still Running</title></text></g></g><g class="sc-dAbbOL iStBUT edge"><path id="state-Job Status:state-Send Task Failure:choiceDefault" d="M260,479.9761431411531L238.08333333333334,484.35511928429423C216.16666666666666,488.7340954274354,172.33333333333334,497.4920477137177,150.41666666666666,506.1626905235255C128.5,514.8333333333334,128.5,523.4166666666666,128.5,527.7083333333334L128.5,532" marker-end="url(#arrowhead)" fill="none"/><g data-testid="graph-Job Status-Default" class="edge-label" transform="translate(150.41666666666666,506.1626905235255)"><rect x="-22" y="-8.25" width="44" height="16.5" class="sc-feUZmu jLkyCY"/><text class="sc-fUnMCh dtiIdW label"><tspan xml:space="preserve" text-anchor="middle" alignment-baseline="central">Default</tspan><title>Default</title></text></g></g><g class="sc-dAbbOL iStBUT edge"><path id="state-Send Task Success:state-Delete Job ID from Database:normal" d="M324.271144278607,581L306.1009535655058,585.2916666666666C287.93076285240465,589.5833333333334,251.5903814262023,598.1666666666666,235.98237976782752,606.75C220.37437810945275,615.3333333333334,225.49875621890547,623.9166666666666,228.06094527363186,628.2083333333334L230.62313432835822,632.5" marker-end="url(#arrowhead)" fill="none"/></g><g class="sc-dAbbOL iStBUT edge"><path id="state-Send Task Success:state-Not in DB:catch:0" d="M559,578.7390202702703L586.5,583.407516891892C614,588.0760135135135,669,597.4130067567568,689.2404643449419,606.3731700450451C709.480928689884,615.3333333333334,694.9618573797679,623.9166666666666,687.7023217247098,628.2083333333334L680.4427860696518,632.5" marker-end="url(#arrowhead)" fill="none"/><g data-testid="graph-Send Task Success-0" class="edge-label" transform="translate(689.2404643449419,606.3731700450451)"><rect x="-25" y="-8.25" width="50" height="16.5" class="sc-feUZmu jLkyCY"/><text class="sc-fUnMCh dtiIdW label"><tspan xml:space="preserve" text-anchor="middle" alignment-baseline="central">Catch #1</tspan><title>Catch #1</title></text></g></g><g class="sc-dAbbOL iStBUT edge"><path id="state-Delete Job ID from Database:end:normal" d="M245.25,681.5L245.25,684.4166666666666C245.25,687.3333333333334,245.25,693.1666666666666,312.72393995477745,702.3287243777709C380.19787990955496,711.4907820888751,515.1457598191099,723.9815641777501,582.6196997738874,730.2269552221875L650.0936397286648,736.4723462666251" marker-end="url(#arrowhead)" fill="none"/></g><g class="sc-dAbbOL iStBUT edge"><path id="state-Send Task Failure:state-Delete Job ID from Database:normal" d="M185.4228855721393,581L195.39407131011612,585.2916666666666C205.36525704809287,589.5833333333334,225.30762852404644,598.1666666666666,235.27881426202325,606.75C245.25,615.3333333333334,245.25,623.9166666666666,245.25,628.2083333333334L245.25,632.5" marker-end="url(#arrowhead)" fill="none"/></g><g class="sc-dAbbOL iStBUT edge"><path id="state-Not in DB:end:normal" d="M639,681.5L639,684.4166666666666C639,687.3333333333334,639,693.1666666666666,642.149155522883,699.852777065269C645.2983110457661,706.5388874638716,651.5966220915323,714.0777749277431,654.7457776144153,717.8472186596788L657.8949331372984,721.6166623916147" marker-end="url(#arrowhead)" fill="none"/></g><g class="sc-dAbbOL iStBUT edge"><path id="state-Non-Terminal Status:end:normal" d="M919,681.5L919,684.4166666666666C919,687.3333333333334,919,693.1666666666666,881.4539947089097,702.087654017536C843.9079894178195,711.0086413684054,768.8159788356392,723.0172827368107,731.2699735445489,729.0216034210134L693.7239682534587,735.0259241052161" marker-end="url(#arrowhead)" fill="none"/></g></g><defs><marker id="arrowhead" markerWidth="8" markerHeight="6" refX="7" refY="3" orient="auto" class="sc-bbSZdi iYnlgu"><polygon points="0 0, 8 3, 0 6"/></marker><marker id="highlighted-arrowhead" markerWidth="6" markerHeight="4" refX="5" refY="2" orient="auto" class="sc-bbSZdi iYnlgu"><polygon points="0 0, 6 2, 0 4"/></marker><marker id="error-arrowhead" markerWidth="6" markerHeight="4" refX="5" refY="2" orient="auto" class="sc-bbSZdi iYnlgu"><polygon points="0 0, 6 2, 0 4"/></marker><marker id="large-arrowhead" markerWidth="10" markerHeight="8" refX="9" refY="4" orient="auto" class="sc-bbSZdi iYnlgu"><polygon points="0 0, 10 4, 0 8"/></marker><marker id="large-highlighted-arrowhead" markerWidth="5.5" markerHeight="4" refX="4.5" refY="2" orient="auto" class="sc-bbSZdi iYnlgu"><polygon points="0 0, 5.5 2, 0 4"/></marker><marker id="large-error-arrowhead" markerWidth="10" markerHeight="8" refX="9" refY="4" orient="auto" class="sc-bbSZdi iYnlgu"><polygon points="0 0, 10 4, 0 8"/></marker><linearGradient x1="0%" y1="100%" x2="100%" y2="0%" id="gradient-orange"><stop stop-color="#C8511B" offset="0%"/><stop stop-color="#FF9900" offset="100%"/></linearGradient><linearGradient x1="0%" y1="100%" x2="100%" y2="0%" id="gradient-turquoise"><stop stop-color="#055F4E" offset="0%"/><stop stop-color="#56C0A7" offset="100%"/></linearGradient><linearGradient x1="0%" y1="100%" x2="100%" y2="0%" id="gradient-blue"><stop stop-color="#2E27AD" offset="0%"/><stop stop-color="#527FFF" offset="100%"/></linearGradient><linearGradient x1="0%" y1="100%" x2="100%" y2="0%" id="gradient-pink"><stop stop-color="#B0084D" offset="0%"/><stop stop-color="#FF4F8B" offset="100%"/></linearGradient><linearGradient x1="0%" y1="100%" x2="100%" y2="0%" id="gradient-red"><stop stop-color="#BD0816" offset="0%"/><stop stop-color="#FF5252" offset="100%"/></linearGradient><linearGradient x1="0%" y1="100%" x2="100%" y2="0%" id="gradient-green"><stop stop-color="#1B660F" offset="0%"/><stop stop-color="#6CAE3E" offset="100%"/></linearGradient><linearGradient x1="0%" y1="100%" x2="100%" y2="0%" id="gradient-purple"><stop stop-color="#4D27A8" offset="0%"/><stop stop-color="#A166FF" offset="100%"/></linearGradient><linearGradient x1="0%" y1="100%" x2="100%" y2="0%" id="gradient-grey"><stop stop-color="#DCDCDC" offset="0%"/><stop stop-color="#F6F5F7" offset="100%"/></linearGradient><linearGradient x1="0%" y1="100%" x2="100%" y2="0%" id="gradient-light-pink"><stop stop-color="#DD344C" offset="0%"/><stop stop-color="#DD344C" offset="100%"/></linearGradient>,<linearGradient x1="0%" y1="100%" x2="100%" y2="0%" id="gradient-ag"><stop stop-color="#BC1356" offset="0%"/><stop stop-color="#F34482" offset="100%"/></linearGradient><linearGradient x1="0%" y1="100%" x2="100%" y2="0%" id="gradient-athena"><stop stop-color="#5930B5" offset="0%"/><stop stop-color="#945DF2" offset="100%"/></linearGradient><linearGradient x1="0%" y1="100%" x2="100%" y2="0%" id="gradient-emr"><stop stop-color="#5930B5" offset="0%"/><stop stop-color="#945DF2" offset="100%"/></linearGradient><linearGradient x1="0%" y1="100%" x2="100%" y2="0%" id="gradient-glue"><stop stop-color="#5930B5" offset="0%"/><stop stop-color="#945DF2" offset="100%"/></linearGradient><linearGradient x1="0%" y1="100%" x2="100%" y2="0%" id="gradient-sns"><stop stop-color="#BC1356" offset="0%"/><stop stop-color="#F34482" offset="100%"/></linearGradient><linearGradient x1="0%" y1="100%" x2="100%" y2="0%" id="gradient-states"><stop stop-color="#BC1356" offset="0%"/><stop stop-color="#F34482" offset="100%"/></linearGradient><linearGradient x1="0%" y1="100%" x2="100%" y2="0%" id="gradient-generic"><stop stop-color="#ccc" offset="0%"/><stop stop-color="#ddd" offset="100%"/></linearGradient><g stroke="none" stroke-width="1" fill="none" fill-rule="evenodd" id="icon-flow-pass"><g transform="translate(10.500000, 8.750000)" fill="#0073BB" fill-rule="nonzero"><path d="M13.8217363,31.2803301 L13.7368454,31.3532508 L13.7368454,31.3532508 L13.6534426,31.407053 L13.6534426,31.407053 L13.6052878,31.4313839 L13.6052878,31.4313839 L13.5081671,31.4681458 L13.5081671,31.4681458 L13.4513711,31.4828395 L13.4513711,31.4828395 L13.3846755,31.4942127 L13.3846755,31.4942127 L13.3412428,31.498357 L13.3412428,31.498357 L13.241495,31.498357 L13.241495,31.498357 L13.1802045,31.4917588 L13.1802045,31.4917588 L13.1314644,31.4828361 L13.1314644,31.4828361 L13.0652921,31.4652652 L12.9776235,31.4314294 L12.9776235,31.4314294 L12.9293782,31.4070608 L12.9293782,31.4070608 L12.8294824,31.3409596 L12.7610762,31.2803301 L12.7610762,31.2803301 L8.26107616,26.7803301 C7.96818295,26.4874369 7.96818295,26.0125631 8.26107616,25.7196699 C8.52734273,25.4534034 8.94400641,25.4291973 9.2376179,25.6470518 L9.32173634,25.7196699 L12.5814063,28.979 L12.581,19.7495522 L3.5,19.75 C1.6314366,19.75 0.104873551,18.2857224 0.00517886273,16.4420352 L0,16.25 L0,12.25 C0,10.3814366 1.4642776,8.85487355 3.3079648,8.75517886 L3.5,8.75 L11.686,8.74955216 L11.686,10.2495522 L3.5,10.25 C2.4456382,10.25 1.58183488,11.0658778 1.50548574,12.1007377 L1.5,12.25 L1.5,16.25 C1.5,17.3043618 2.31587779,18.1681651 3.35073766,18.2445143 L3.5,18.25 L22.5,18.25 C23.5543618,18.25 24.4181651,17.4341222 24.4945143,16.3992623 L24.5,16.25 L24.5,12.25 C24.5,11.1956382 23.6841222,10.3318349 22.6492623,10.2554857 L22.5,10.25 L15.686,10.2495522 L15.686,8.74955216 L22.5,8.75 C24.3685634,8.75 25.8951264,10.2142776 25.9948211,12.0579648 L26,12.25 L26,16.25 C26,18.1185634 24.5357224,19.6451264 22.6920352,19.7448211 L22.5,19.75 L14.081,19.7495522 L14.0814063,28.899 L17.2610762,25.7196699 L17.3451946,25.6470518 C17.6388061,25.4291973 18.0554698,25.4534034 18.3217363,25.7196699 C18.5880029,25.9859365 18.6122089,26.4026002 18.3943545,26.6962117 L18.3217363,26.7803301 L13.8217363,31.2803301 Z" fill="false"/><polygon points="14.0818291 0 14.0818291 14.5 12.5818291 14.5 12.5818291 0" fill="false"/></g></g><g stroke-width="1" fill="none" fill-rule="evenodd" id="icon-flow-wait"><path d="M26.75,8.85825893 L26.75,10.3582589 L25,10.3582589 L25.0010332,13.2887186 C27.2395643,13.4625704 29.3159269,14.2145278 31.0809903,15.3954598 L32.3188424,13.6912711 L34.7458934,15.4546269 L33.3682881,17.3513419 C35.4674483,19.6240431 36.75,22.6622436 36.75,26 C36.75,33.0416306 31.0416306,38.75 24,38.75 C16.9583694,38.75 11.25,33.0416306 11.25,26 C11.25,22.7657627 12.4542298,19.8127884 14.4387685,17.5649977 L12.9047966,15.4546269 L15.3318476,13.6912711 L16.6858812,15.555197 C18.2387522,14.4657629 20.0456704,13.7138336 22.0001068,13.4059384 L22,10.3582589 L20.25,10.3582589 L20.25,8.85825893 L26.75,8.85825893 Z M24,14.75 C17.7867966,14.75 12.75,19.7867966 12.75,26 C12.75,32.2132034 17.7867966,37.25 24,37.25 C30.2132034,37.25 35.25,32.2132034 35.25,26 C35.25,19.7867966 30.2132034,14.75 24,14.75 Z M24.4666648,19.3452148 L24.466,26.499 L30.9387207,26.4993034 L30.9387207,27.9993034 L23.7166648,27.9993034 C23.336969,27.9993034 23.0231738,27.7171495 22.9735114,27.3510739 L22.9666648,27.2493034 L22.9666648,19.3452148 L24.4666648,19.3452148 Z" fill-rule="nonzero" fill="#0073BB"/></g><g stroke="none" stroke-width="1" fill="none" fill-rule="evenodd" id="icon-flow-choice"><g transform="translate(9.252020, 8.729185)" fill="#0073BB" fill-rule="nonzero"><path d="M13.7176503,0.219669914 C13.9839168,-0.0465966484 14.4005805,-0.0708026996 14.694192,0.147051761 L14.7783104,0.219669914 L26.7991257,12.2404852 C27.0653923,12.5067518 27.0895983,12.9234154 26.8717439,13.2170269 L26.7991257,13.3011454 L19.848,20.251 L27.063,27.58 L27.0635443,24.4725437 C27.0635443,24.0583302 27.3993308,23.7225437 27.8135443,23.7225437 C28.1901021,23.7225437 28.5018441,24.0000532 28.5554124,24.3617142 L28.5635443,24.4725437 L28.5635443,29.4222912 C28.5635443,29.4735748 28.5583971,29.5236562 28.5485912,29.5720469 L28.5290567,29.6477745 L28.4912259,29.7440224 L28.4674556,29.7898473 L28.4399848,29.8348433 L28.3922808,29.8993609 L28.3266417,29.9693147 L28.2903734,30.0012261 L28.2103598,30.0588356 L28.1372883,30.0990133 L28.0408973,30.1372113 L27.9243738,30.1641593 C27.8841362,30.1698129 27.8491297,30.1722912 27.8135443,30.1722912 L22.8637969,30.1722912 C22.4495833,30.1722912 22.1137969,29.8365048 22.1137969,29.4222912 C22.1137969,29.0457334 22.3913063,28.7339914 22.7529674,28.6804231 L22.8637969,28.6722912 L26.032,28.672 L18.787,21.312 L14.7783104,25.3219606 C14.5120439,25.5882272 14.0953802,25.6124333 13.8017687,25.3945788 L13.7176503,25.3219606 L9.63,21.234 L2.386,28.671 L5.69974747,28.6722912 L5.81057697,28.6804231 C6.17223802,28.7339914 6.44974747,29.0457334 6.44974747,29.4222912 C6.44974747,29.801987 6.16759359,30.1157822 5.80151803,30.1654446 L5.69974747,30.1722912 L0.75,30.1722912 L0.645175107,30.1650238 L0.571316134,30.150876 L0.491748953,30.1266437 L0.399838514,30.0857012 L0.323957521,30.0396165 L0.243169757,29.975129 L0.170912131,29.8989347 L0.109961584,29.8134582 L0.0656949991,29.7297074 L0.0297396696,29.6320944 L0.0076057584,29.5294944 L6.67910172e-13,29.4222912 L6.67910172e-13,24.4725437 L0.00813192572,24.3617142 C0.0617002376,24.0000532 0.373442216,23.7225437 0.75,23.7225437 C1.12969577,23.7225437 1.44349096,24.0046976 1.49315338,24.3707732 L1.5,24.4725437 L1.499,27.433 L8.569,20.174 L1.69683498,13.3011454 C1.43056842,13.0348788 1.40636237,12.6182151 1.62421683,12.3246036 L1.69683498,12.2404852 L13.7176503,0.219669914 Z M14.3527697,23.728356 L25.2081355,12.7708153 L14.2479803,1.81066017 L3.28782524,12.7708153 L9.616,19.099 L14.3527697,23.728356 Z" fill="false"/><path d="M15.2319803,14.0468153 L15.2319803,13.2668153 C16.0033137,12.8508153 16.5579803,12.4218153 16.8959803,11.9798153 C17.2339803,11.5378153 17.4029803,11.0178153 17.4029803,10.4198153 C17.4029803,9.65714861 17.151647,9.06131528 16.6489803,8.63231528 C16.1463137,8.20331528 15.448647,7.98881528 14.5559803,7.98881528 C13.6979803,7.98881528 12.874647,8.19248195 12.0859803,8.59981528 L12.0859803,8.59981528 L12.0859803,10.3288153 C12.8313137,9.98214861 13.4943137,9.80881528 14.0749803,9.80881528 C14.395647,9.80881528 14.6404803,9.87814861 14.8094803,10.0168153 C14.9784803,10.1554819 15.0629803,10.3591486 15.0629803,10.6278153 C15.0629803,10.9138153 14.9763137,11.1651486 14.8029803,11.3818153 C14.629647,11.5984819 14.343647,11.8151486 13.9449803,12.0318153 L13.9449803,12.0318153 L13.1909803,12.4348153 L13.3339803,14.0468153 L15.2319803,14.0468153 Z M14.3089803,17.4398153 C14.7249803,17.4398153 15.0608137,17.3141486 15.3164803,17.0628153 C15.572147,16.8114819 15.6999803,16.4821486 15.6999803,16.0748153 C15.6999803,15.6674819 15.572147,15.3381486 15.3164803,15.0868153 C15.0608137,14.8354819 14.7249803,14.7098153 14.3089803,14.7098153 C13.8929803,14.7098153 13.557147,14.8354819 13.3014803,15.0868153 C13.0458137,15.3381486 12.9179803,15.6674819 12.9179803,16.0748153 C12.9179803,16.4821486 13.0458137,16.8114819 13.3014803,17.0628153 C13.557147,17.3141486 13.8929803,17.4398153 14.3089803,17.4398153 Z" fill="false"/></g></g><g stroke="none" stroke-width="1" fill="none" fill-rule="evenodd" id="icon-flow-succeed"><g transform="translate(11.250000, 12.250000)" fill="#2AB512" fill-rule="nonzero"><path d="M12.75,0 C5.70836944,0 0,5.70836944 0,12.75 C0,19.7916306 5.70836944,25.5 12.75,25.5 C19.7916306,25.5 25.5,19.7916306 25.5,12.75 C25.5,5.70836944 19.7916306,0 12.75,0 Z M12.75,1.5 C18.9632034,1.5 24,6.53679656 24,12.75 C24,18.9632034 18.9632034,24 12.75,24 C6.53679656,24 1.5,18.9632034 1.5,12.75 C1.5,6.53679656 6.53679656,1.5 12.75,1.5 Z"/><path d="M17.482151,9.3912361 C17.7750442,9.09834288 18.2499179,9.09834288 18.5428111,9.3912361 C18.8090777,9.65750266 18.8332838,10.0741663 18.6154293,10.3677778 L18.5428111,10.4518963 L11.1581958,17.8365117 C10.9013427,18.0933647 10.5030038,18.1258243 10.2104294,17.9293959 L10.1171609,17.8554362 L6.98253225,14.9408143 C6.67918728,14.6587599 6.66192789,14.1841999 6.94398232,13.8808549 C7.20039544,13.6050868 7.61590405,13.565753 7.91723953,13.7727921 L8.0039417,13.842305 L10.608,16.264 L17.482151,9.3912361 Z"/></g></g><g stroke="none" stroke-width="1" fill="none" fill-rule="evenodd" id="icon-service-ddb"><polygon fill="url(#gradient-blue)" fill-rule="nonzero" points="0 0 48 0 48 48 0 48"/><path d="M34.5810287,19.5947556 L32.1910412,19.5947556 C31.9723757,19.5947556 31.7677101,19.4862534 31.6430441,19.3049671 C31.5183781,19.1230069 31.4897116,18.8911762 31.5670445,18.6842807 L33.2290358,14.2033421 L27.287067,14.2033421 L24.559748,20.2686823 L27.5243991,20.2686823 C27.738398,20.2686823 27.9397302,20.372467 28.0657296,20.5490358 C28.1903956,20.7242568 28.2250621,20.9500222 28.1563958,21.1555699 L25.7164086,28.5559589 L34.5810287,19.5947556 Z M36.6616844,19.3972951 L24.6624141,31.5279756 C24.5344148,31.6580435 24.3630824,31.7254361 24.1910833,31.7254361 C24.0697506,31.7254361 23.9490845,31.6924137 23.8410851,31.6250211 C23.5777532,31.4605829 23.4604204,31.1350764 23.5590866,30.8385486 L26.5990706,21.6165357 L23.5244201,21.6165357 C23.2977546,21.6165357 23.0870891,21.4999464 22.9637564,21.3078773 C22.841757,21.1144603 22.8237571,20.8725206 22.9177566,20.6636034 L26.2510724,13.2504097 C26.3590719,13.0098179 26.5957373,12.8554887 26.8577359,12.8554887 L34.1910307,12.8554887 C34.4096962,12.8554887 34.6143618,12.9639909 34.7390278,13.1452772 C34.8636938,13.3272374 34.8923603,13.5590681 34.8156941,13.7659636 L33.1530362,18.2469022 L36.1903535,18.2469022 C36.4596854,18.2469022 36.7036842,18.4113403 36.8063503,18.662715 C36.9096831,18.9147636 36.85235,19.2045521 36.6616844,19.3972951 L36.6616844,19.3972951 Z M30.8577149,32.241664 C29.0510577,33.4992112 25.7330752,34.163029 22.5457586,34.163029 C19.3351088,34.163029 15.9877931,33.4904502 14.1904692,32.214033 L14.1911358,34.7581063 C14.1911358,35.8673896 17.3697858,37.4140514 22.5457586,37.4140514 C27.542399,37.4140514 30.8577149,35.6126453 30.8577149,34.4211429 L30.8577149,32.241664 Z M32.2337077,30.0621851 C32.2337077,30.1868615 32.2123744,30.3068204 32.1910412,30.4261055 L32.1910412,34.4211429 C32.1910412,36.8149305 27.8643973,38.7619048 22.5457586,38.7619048 C17.9437828,38.7619048 13.2984739,37.5023358 12.8971426,35.0950696 L12.8578095,35.0950696 L12.8571429,31.7254361 L12.8571429,22.9643891 L12.8571429,13.5294154 L12.8578095,13.5294154 C12.8578095,10.8653831 17.8491166,9.42857143 22.5457586,9.42857143 C25.1730781,9.42857143 27.6990648,9.85516703 29.4770555,10.5991821 L28.9663915,11.8445986 C27.3450667,11.1652805 25.0044123,10.7764248 22.5457586,10.7764248 C17.3697858,10.7764248 14.1911358,12.3796964 14.1911358,13.5294154 C14.1911358,14.6791343 17.3697858,16.2824059 22.5457586,16.2824059 C22.6757579,16.2824059 22.8117572,16.2830798 22.9430898,16.2776884 L22.9950896,17.624194 C22.8450903,17.6302593 22.6957578,17.6302593 22.5457586,17.6302593 C19.3344421,17.6302593 15.9877931,16.9576805 14.1904692,15.6812633 L14.1904692,18.5865613 L14.1911358,18.5865613 L14.1911358,18.598018 C14.1944692,18.9511556 14.5171341,19.3602291 15.1004644,19.7443674 C16.4217908,20.60295 18.8004449,21.1899401 21.4597643,21.3119208 L21.399098,22.6584264 C18.6484457,22.5317282 16.2324584,21.9460859 14.6751333,21.0477416 C14.4684677,21.24655 14.1911358,21.751995 14.1911358,22.0256092 C14.1911358,23.1753282 17.3697858,24.7785998 22.5457586,24.7785998 C23.037756,24.7785998 23.5224201,24.7617516 23.9870843,24.7287292 L24.0810839,26.0732129 C23.5850865,26.1089311 23.0684225,26.1264532 22.5457586,26.1264532 C19.3344421,26.1264532 15.9877931,25.4538743 14.1904692,24.1774572 L14.1904692,26.6238111 L14.1911358,26.6238111 C14.1944692,26.9884054 14.5171341,27.3974789 15.1004644,27.7816171 C16.6124564,28.7648762 19.4664414,29.3774755 22.5457586,29.3774755 L22.7657574,29.3774755 L22.7657574,30.7253289 L22.5457586,30.7253289 C19.360442,30.7253289 15.9724598,30.053424 14.1911358,29.0297294 C13.9764703,29.2285377 14.1911358,29.7036561 14.1911358,30.0621851 C14.1911358,31.211904 17.3697858,32.8151756 22.5457586,32.8151756 C27.722398,32.8151756 30.9003813,31.211904 30.9003813,30.0621851 C30.9003813,29.6558073 30.5010501,29.2790822 30.1723852,29.0364686 C29.8997199,29.2009067 29.5997215,29.3586056 29.2577233,29.5028259 L28.745726,28.2580833 C29.0997241,28.1091455 29.4057225,27.9494249 29.6550545,27.7836389 C30.3890507,27.2943681 30.8577149,26.5982018 30.8577149,26.3340226 L32.1910412,26.3340226 C32.1910412,26.9607744 31.7770434,27.6320054 31.2463795,28.1839514 C32.041042,28.8774219 32.2337077,29.5695446 32.2337077,30.0621851 L32.2337077,30.0621851 Z M14.9517985,35.0209377 C15.4791291,35.2932041 16.0957925,35.5358177 16.7864555,35.7413653 L17.1624536,34.4481 C16.5517901,34.2668137 16.0117929,34.0552007 15.558462,33.8206742 L14.9517985,35.0209377 Z M16.7864555,27.654245 L17.1624536,26.3616536 C16.5517901,26.1796934 16.0117929,25.9687543 15.558462,25.7342278 L14.9517985,26.9338173 C15.4791291,27.2067576 16.0957925,27.4486973 16.7864555,27.654245 L16.7864555,27.654245 Z M14.9517985,18.8473709 L15.558462,17.6471075 C16.0117929,17.881634 16.5517901,18.092573 17.1624536,18.2745332 L16.7864555,19.5677986 C16.0957925,19.3622509 15.4791291,19.1196373 14.9517985,18.8473709 L14.9517985,18.8473709 Z" fill="#FFFFFF"/></g><g stroke="none" stroke-width="1" fill="none" fill-rule="evenodd" id="icon-service-states"><polygon fill="url(#gradient-states)" fill-rule="nonzero" points="0 0 48 0 48 48 0 48"/><g transform="translate(7.714286, 7.714286)" fill="#FFFFFF"><path d="M26.9059233,12.3928716 L26.9059233,8.47912299 C26.9059233,8.11887237 26.6121138,7.82683155 26.2496813,7.82683155 L17.0622929,7.82683155 L17.0622929,6.45701954 C18.7127174,6.12215613 19.8399485,4.59949006 19.6706454,2.9336515 C19.5013424,1.26781294 18.0905083,0 16.4060508,0 C14.7215933,0 13.3107593,1.26781294 13.1414562,2.9336515 C12.9721531,4.59949006 14.0993842,6.12215613 15.7498088,6.45701954 L15.7498088,7.82683155 L6.56242033,7.82683155 C6.19998786,7.82683155 5.9061783,8.11887237 5.9061783,8.47912299 L5.9061783,11.0882887 L0.656242033,11.0882887 C0.293809566,11.0882887 0,11.3803295 0,11.7405802 L0,15.0020373 C0,15.362288 0.293809566,15.6543288 0.656242033,15.6543288 L5.9061783,15.6543288 L5.9061783,16.9589116 L0.656242033,16.9589116 C0.293809566,16.9589116 0,17.2509525 0,17.6112031 L0,20.8726603 C0,21.2329109 0.293809566,21.5249517 0.656242033,21.5249517 L5.9061783,21.5249517 L5.9061783,24.1341174 C5.9061783,24.494368 6.19998786,24.7864089 6.56242033,24.7864089 L15.7498088,24.7864089 L15.7498088,26.1562209 C14.0993842,26.4910843 12.9721531,28.0137504 13.1414562,29.6795889 C13.3107593,31.3454275 14.7215933,32.6132404 16.4060508,32.6132404 C18.0905083,32.6132404 19.5013424,31.3454275 19.6706454,29.6795889 C19.8399485,28.0137504 18.7127174,26.4910843 17.0622929,26.1562209 L17.0622929,24.7864089 L26.2496813,24.7864089 C26.6121138,24.7864089 26.9059233,24.494368 26.9059233,24.1341174 L26.9059233,20.8726603 L25.5934393,20.8726603 L25.5934393,23.481826 L7.21866236,23.481826 L7.21866236,21.5249517 L12.4685986,21.5249517 C12.8310311,21.5249517 13.1248407,21.2329109 13.1248407,20.8726603 L13.1248407,17.6112031 C13.1248407,17.2509525 12.8310311,16.9589116 12.4685986,16.9589116 L7.21866236,16.9589116 L7.21866236,15.6543288 L12.4685986,15.6543288 C12.8310311,15.6543288 13.1248407,15.362288 13.1248407,15.0020373 L13.1248407,11.7405802 C13.1248407,11.3803295 12.8310311,11.0882887 12.4685986,11.0882887 L7.21866236,11.0882887 L7.21866236,9.13141442 L25.5934393,9.13141442 L25.5934393,12.3928716 L26.9059233,12.3928716 Z M18.3747769,29.3524489 C18.3747769,30.4332008 17.4933482,31.3093232 16.4060508,31.3093232 C15.3187534,31.3093232 14.4373247,30.4332008 14.4373247,29.3524489 C14.4373247,28.2716971 15.3187534,27.3955746 16.4060508,27.3955746 C17.4933482,27.3955746 18.3747769,28.2716971 18.3747769,29.3524489 L18.3747769,29.3524489 Z M11.8123566,18.2634945 L11.8123566,20.2203688 L1.31248407,20.2203688 L1.31248407,18.2634945 L11.8123566,18.2634945 Z M11.8123566,12.3928716 L11.8123566,14.3497459 L1.31248407,14.3497459 L1.31248407,12.3928716 L11.8123566,12.3928716 Z M14.4373247,3.2607915 C14.4373247,2.18003967 15.3187534,1.3039172 16.4060508,1.3039172 C17.4933482,1.3039172 18.3747769,2.18003967 18.3747769,3.2607915 C18.3747769,4.34154334 17.4933482,5.21766581 16.4060508,5.21766581 C15.3187534,5.21766581 14.4373247,4.34154334 14.4373247,3.2607915 Z"/><path d="M32.7614824,13.0452962 L19.4197022,13.0452962 C19.0512792,13.0452962 18.7526132,13.3292132 18.7526132,13.6794425 L18.7526132,18.1184669 C18.7526132,18.4686963 19.0512792,18.7526132 19.4197022,18.7526132 L32.7614824,18.7526132 C33.1299055,18.7526132 33.4285714,18.4686963 33.4285714,18.1184669 L33.4285714,13.6794425 C33.4285714,13.3292132 33.1299055,13.0452962 32.7614824,13.0452962 Z M32.0943934,17.4843206 L20.0867913,17.4843206 L20.0867913,14.3135889 L32.0943934,14.3135889 L32.0943934,17.4843206 Z"/></g></g></defs></g><style data-styled="true" data-styled-version="5.3.11">.lodPSx{cursor:pointer;}/*!sc*/
data-styled.g24[id="sc-ikkxIA"]{content:"lodPSx,"}/*!sc*/
.iStBUT{stroke:#555;background-color:#555;stroke-width:1px;}/*!sc*/
data-styled.g25[id="sc-dAbbOL"]{content:"iStBUT,"}/*!sc*/
.jLkyCY{stroke-width:0;stroke:none;fill:#f2f3f3;}/*!sc*/
data-styled.g26[id="sc-feUZmu"]{content:"jLkyCY,"}/*!sc*/
.dtiIdW{font-size:10px;line-height:12.5;stroke:none;}/*!sc*/
data-styled.g27[id="sc-fUnMCh"]{content:"dtiIdW,"}/*!sc*/
.iYnlgu{fill:var(--color-text-form-secondary-btuye6,#687078);}/*!sc*/
data-styled.g53[id="sc-bbSZdi"]{content:"iYnlgu,"}/*!sc*/
.kzYAMD{font-weight:400;font-size:12px;line-height:16px;font-family:Amazon Ember,Arial,Roboto,Arial,sans-serif;text-shadow:none;fill:var(--color-text-button-primary-default-qh066v,#16191f);}/*!sc*/
data-styled.g54[id="sc-fBWQRz"]{content:"kzYAMD,"}/*!sc*/
.gHgSNu{fill:#fff9cc;stroke:var(--color-text-form-secondary-btuye6,#687078);stroke-width:0.6px;}/*!sc*/
data-styled.g55[id="sc-hknOHE"]{content:"gHgSNu,"}/*!sc*/
</style><style>
.new-look-state-node &gt; rect:first-of-type {
  stroke: #687078;
  stroke-width: 1px;
  fill: #FFFFFF;
}

.new-look-state-node .error-icon circle {
 stroke-linejoin: round;
}

.new-look-state-node .error-icon circle, .new-look-state-node .error-icon path {
 stroke: var(--color-border-status-error-si9bvu, #d13212);
 fill: none;
 stroke-width: 2px;
}

.new-look-state-node.has-errors &gt; rect:first-of-type {
 stroke: var(--color-border-status-error-si9bvu, #d13212);
 fill: var(--color-background-status-error-qqw3y6, #fdf3f1);
}

.new-look-state-node.has-errors &gt; .bounding-box &gt; .new-look-state-node-sub &gt; rect {
  stroke: var(--color-border-status-error-si9bvu, #d13212);
  fill: var(--color-background-status-error-qqw3y6, #fdf3f1);
}

.new-look-state-node .handle path {
  stroke: var(--color-border-dropdown-item-hover-t6obhh, #879596);
  stroke-width: 1px;
  fill: none;
}

.new-look-state-node {
  font-weight: 400;
  font-family: Amazon Ember, Arial, Roboto, Arial, sans-serif;
  text-shadow: none;
}

.new-look-state-node .line1 {
  fill: #687078;
  font-size: 12px;
}

.new-look-state-node .line2 {
  fill: #16191f;
}

.selected.node &gt; .new-look-state-node &gt; rect,
.selected.node &gt; .new-look-state-node &gt; .new-look-state-node &gt; rect,
.selected.node &gt; .new-look-state-node &gt; .bounding-box &gt; rect,
.selected.node &gt; .new-look-state-node.has-errors &gt; rect,
.selected.node &gt; .new-look-state-node.has-errors &gt; .bounding-box &gt; rect,
.selected.node &gt; .new-look-state-node.has-errors &gt; .new-look-state-node &gt; rect,
.selected.node &gt; .new-look-state-node &gt; .bounding-box &gt; .new-look-state-node-sub &gt; rect
 {
  stroke: var(--color-border-status-info-fjyzd6, #0073bb);
  fill: var(--color-background-status-info-60ssq8, #f1faff);
  stroke-width: 1px;
}

.new-look-state-node-sub .item-source.not-specified {
  height: 15px;
  color: #687078;
  font-family: "Amazon Ember";
  font-size: 12px;
  letter-spacing: 0;
  line-height: 16px;
  font-weight: 400;
}
.new-look-state-node-sub .item-source .item-source_name{
  font-weight: 600;
}
.new-look-state-node-sub .item-source.not-specified .item-source_name{
  font-weight: 400;
}

.new-look-state-node-sub .item-source.not-specified {
  font-style: italic;
}

.new-look-state-node-sub &gt; rect,
.new-look-state-node &gt; .bounding-box &gt; rect {
  stroke: var(--color-border-control-default-ie1oqq, #687078);
  fill: #ffffff;
}

.new-look-graph .drag-source {
  opacity: 0.2;
}

.new-look-graph .edge, .new-look-graph path.starting-connection {
  stroke-width: 1px;
  stroke: var(--color-text-form-secondary-btuye6, #687078);
  marker-end: url(#large-arrowhead);
}

.new-look-graph .edge-label {
  cursor: pointer;
}

.new-look-graph .edge-label rect {
  stroke-width: 1px;
  stroke: var(--color-border-control-default-ie1oqq, #687078);
  fill: #fafafa;
}

.new-look-graph .edge-label.selected rect {
  stroke: var(--color-border-status-info-fjyzd6, #0073bb);
  fill: var(--color-background-status-info-60ssq8, #f1faff);
  stroke-width: 0.6px;
}



.new-look-graph .edge-label .label {
  fill: var(--color-text-form-secondary-btuye6, #687078);
  font-family: Amazon Ember, Arial, Roboto, Arial, sans-serif;
}

/* centering the shape text */
@-moz-document url-prefix() {
  .new-look-graph .shape + text,
  .new-look-graph .edge-label text {
    transform: translateY(3.5px);
  }
}

.new-look-graph .edge path {
  marker-end: url(#large-arrowhead) !important;
}

.new-look-graph .edge.selected path{
  stroke: var(--color-border-status-info-fjyzd6, #0073bb);
  stroke-width: 1.1px;
}

.new-look-graph .edge.dragging-over path, .new-look-graph  g.dragging-over .starting-connection {
  stroke: #5C86FF;
  stroke-width: 2px;
}

.new-look-graph .edge.dragging-over path, .new-look-graph .dragging-over path.starting-connection {
  marker-end: url(#large-highlighted-arrowhead) !important;
}

.new-look-graph .edge.dragging-over .edge-label text {
  fill: #5C86FF;
}

#large-highlighted-arrowhead {
  fill: #5C86FF;
}

#large-highlighted-arrowhead path {
  stroke: none;
}

.new-look-graph .edge.drop-not-supported path, g.drop-not-supported .starting-connection {
  stroke: red;
}

.new-look-graph .edge.drop-not-supported .edge-label text {
  fill: red;
}

.new-look-graph .edge.drop-not-supported path {
  marker-end: url(#large-error-arrowhead) !important;
}

#large-error-arrowhead {
  fill: red;
}

.node-container * &gt; .icon  {
  &gt; rect {
    fill: #fafafa;
  }
  &gt; line {
    stroke: #d5dbdb;
  }
}


.node.Placeholder.dragging-over rect {
  stroke: var(--color-border-status-info-fjyzd6, #0073bb);
  fill: var(--color-background-status-info-60ssq8, #f1faff);
  stroke-width: 2px;
}

.node.Placeholder.dragging-over .label {
  fill: var(--color-text-status-info-f9d9f2, #0073bb);
}

g.Placeholder rect {
  stroke-dasharray: 5 4;
  stroke: var(--color-border-dropdown-item-hover-t6obhh, #879596);
  fill: #ffffff;
  stroke-width: 1px;
}

g.Placeholder .label {
  font-style: italic;
  fill: var(--color-text-input-placeholder-lhl4lu, #687078);
}

.node.Placeholder.drop-not-supported rect {
  stroke: red;
}

.node.Placeholder.drop-not-supported .label {
  fill: red;
}
</style><style>.line2 { font-size: 14px }</style></svg>
