<!DOCTYPE svg PUBLIC "-//W3C//DTD SVG 1.1//EN" "https://www.w3.org/Graphics/SVG/1.1/DTD/svg11.dtd"><svg xmlns="http://www.w3.org/2000/svg" class="sc-bDpDS hIXa-DQ graph" data-testid="graph" role="img" aria-labelledby="polymath-graph-title" width="1222" height="1025"><title id="polymath-graph-title">Workflow Studio State Machine Graph</title><g transform="translate(12,12)" class="new-look-graph"><g class="nodes"><g class="node-container" transform="translate(429.3125,22)"><g><circle class="sc-hknOHE gHgSNu shape" r="22"/><text class="sc-fBWQRz kzYAMD label"><tspan xml:space="preserve" text-anchor="middle" alignment-baseline="central">Start</tspan></text></g></g><g class="node-container" transform="translate(429.3125,103.5)"><g class="sc-ikkxIA lodPSx node state Task" data-testid="graph-Scan Table" data-state-id="Scan Table" data-state-type="Task"><g class="new-look-state-node "><rect x="-120" y="-24.5" width="240" height="49" rx="3" ry="3"/><g class="handle" transform="translate(-120,-24.5)"><path d="M5,16 L5,34 M8,16 L8,34"/></g><g class="icon" transform="translate(-104,-24)"><rect fill="var(--color-background-container-header-etndi4, #fafafa)" x="0.0361026108" y="0.0181291967" width="48" height="48"/><line x1="47.5" y1="0.49122807" x2="47.5" y2="47.5" stroke="var(--color-board-placeholder-active-qurjro, #d5dbdb)" stroke-linecap="square"/><line x1="0.5" y1="0.49122807" x2="0.5" y2="47.5" stroke="var(--color-board-placeholder-active-qurjro, #d5dbdb)" stroke-linecap="square"/><use href="#icon-service-ddb" aria-hidden="true"><title>DynamoDB</title></use></g><g class="text-lines" transform="translate(-48,-24.5)"><text transform="translate(0,17)" class="line1"><tspan xml:space="preserve" text-anchor="start">DynamoDB: Scan</tspan></text><text transform="translate(0,35.5)" class="line2 label"><tspan xml:space="preserve" text-anchor="start">Scan Table</tspan></text></g></g></g></g><g class="node-container" transform="translate(429.3125,187.5)"><g class="sc-ikkxIA lodPSx node state Choice" data-testid="graph-Is Empty Table" data-state-id="Is Empty Table" data-state-type="Choice"><g class="new-look-state-node "><rect x="-120" y="-24.5" width="240" height="49" rx="3" ry="3"/><g class="handle" transform="translate(-120,-24.5)"><path d="M5,16 L5,34 M8,16 L8,34"/></g><g class="icon" transform="translate(-104,-24)"><rect fill="var(--color-background-container-header-etndi4, #fafafa)" x="0.0361026108" y="0.0181291967" width="48" height="48"/><line x1="47.5" y1="0.49122807" x2="47.5" y2="47.5" stroke="var(--color-board-placeholder-active-qurjro, #d5dbdb)" stroke-linecap="square"/><line x1="0.5" y1="0.49122807" x2="0.5" y2="47.5" stroke="var(--color-board-placeholder-active-qurjro, #d5dbdb)" stroke-linecap="square"/><use href="#icon-flow-choice"/></g><g class="text-lines" transform="translate(-48,-24.5)"><text transform="translate(0,17)" class="line1"><tspan xml:space="preserve" text-anchor="start">Choice state</tspan></text><text transform="translate(0,35.5)" class="line2 label"><tspan xml:space="preserve" text-anchor="start">Is Empty Table</tspan></text></g></g></g></g><g class="node-container" transform="translate(120,592.5)"><g class="sc-ikkxIA lodPSx node state Task" data-testid="graph-Disable Heartbeat rule" data-state-id="Disable Heartbeat rule" data-state-type="Task"><g class="new-look-state-node "><rect x="-120" y="-24.5" width="240" height="49" rx="3" ry="3"/><g class="handle" transform="translate(-120,-24.5)"><path d="M5,16 L5,34 M8,16 L8,34"/></g><g class="icon" transform="translate(-104,-24)"><rect fill="var(--color-background-container-header-etndi4, #fafafa)" x="0.0361026108" y="0.0181291967" width="48" height="48"/><line x1="47.5" y1="0.49122807" x2="47.5" y2="47.5" stroke="var(--color-board-placeholder-active-qurjro, #d5dbdb)" stroke-linecap="square"/><line x1="0.5" y1="0.49122807" x2="0.5" y2="47.5" stroke="var(--color-board-placeholder-active-qurjro, #d5dbdb)" stroke-linecap="square"/><use href="#icon-service-events" aria-hidden="true"><title>Amazon EventBridge</title></use></g><g class="text-lines" transform="translate(-48,-24.5)"><text transform="translate(0,17)" class="line1"><tspan xml:space="preserve" text-anchor="start">EventBridge: DisableRule</tspan></text><text transform="translate(0,35.5)" class="line2 label"><tspan xml:space="preserve" text-anchor="start">Disable Heartbeat rule</tspan></text></g></g></g></g><g class="node-container" transform="translate(738.625,592.5)"><g class="sc-ikkxIA lodPSx node state container Map" data-state-id="For each job id in the table" data-state-type="Map"><g class="new-look-state-node "><g class="bounding-box" transform="translate(0,5)"><g class="shape new-look-state-node-sub"><rect rx="3" ry="3" x="-458.625" y="-329" width="917.25" height="653" class="sc-hCPjZK fZMwc"/><rect x="-110.5" y="-285" width="221" height="26" class="sc-hCPjZK sc-Nxspf fZMwc kYgSu"/><svg x="-95.5" y="-288.5" width="25" height="25" viewBox="0 -8 25 25" xmlns="http://www.w3.org/2000/svg"><g id="Symbols" stroke="none" stroke-width="1" fill="none" fill-rule="evenodd" opacity="0.867687044"><g id="ONE-MAP---graph---inline-map" transform="translate(-55.000000, -217.000000)" fill="#687078" fill-rule="nonzero"><g id="Group-15" transform="translate(36.000000, 213.000000)"><g id="script" transform="translate(19.000000, 4.000000)"><path d="M11.60121,15.4462891 C12.5601274,15.4462891 13.2010167,15.2896753 13.5238779,14.9764478 C13.8467393,14.6632203 14.0081699,14.0388817 14.0081699,13.1034319 L14.0081699,12.7383526 C14.0081699,12.1034319 14.1135348,10.6632203 14.3242646,10.4177176 C14.5349944,10.172215 14.9129549,10.0494637 15.4581458,10.0494637 L15.8177397,10.0494637 L15.8177397,6.83676525 L15.4581458,6.83676525 C14.9129549,6.83676525 14.5349944,6.71507213 14.3242646,6.47168589 C14.1135348,6.22829964 14.0081699,4.7870298 14.0081699,4.14787636 L14.0081699,3.782797 C14.0081699,2.84734726 13.8467393,2.22406684 13.5238779,1.91295573 C13.2010167,1.60184462 12.5601274,1.44628906 11.60121,1.44628906 L9.8177397,1.44628906 L9.8177397,3.65263827 L10.519528,3.65263827 C10.9255213,3.65263827 11.1971501,3.74364356 11.3344144,3.92565414 C11.4716788,4.10766472 11.540311,5.49708271 11.540311,6.09390811 L11.540311,6.42089224 C11.540311,7.11930494 11.6340761,7.61031023 11.8216063,7.89390811 C12.0091365,8.17750599 12.3464975,8.35951658 12.8336895,8.43993986 C12.3503642,8.52882875 12.0139698,8.71718853 11.8245063,9.00501922 C11.6350428,9.29284991 11.540311,9.7838552 11.540311,10.4780351 L11.540311,10.7796224 C11.540311,11.3849134 11.4707122,12.7785642 11.3315144,12.9605748 C11.1923168,13.1425854 10.9216547,13.2335906 10.519528,13.2335906 L9.8177397,13.2335906 L9.8177397,15.4462891 L11.60121,15.4462891 Z" id="}"/><path d="M3.03295652,15.4462891 C3.99187387,15.4462891 4.63276319,15.2896753 4.95562448,14.9764478 C5.27848577,14.6632203 5.43991641,14.0388817 5.43991641,13.1034319 L5.43991641,12.7383526 C5.43991641,12.1034319 5.54528132,10.6632203 5.75601114,10.4177176 C5.96674096,10.172215 6.34470133,10.0494637 6.88989225,10.0494637 L7.24948625,10.0494637 L7.24948625,6.83676525 L6.88989225,6.83676525 C6.34470133,6.83676525 5.96674096,6.71507213 5.75601114,6.47168589 C5.54528132,6.22829964 5.43991641,4.7870298 5.43991641,4.14787636 L5.43991641,3.782797 C5.43991641,2.84734726 5.27848577,2.22406684 4.95562448,1.91295573 C4.63276319,1.60184462 3.99187387,1.44628906 3.03295652,1.44628906 L1.24948625,1.44628906 L1.24948625,3.65263827 L1.95127455,3.65263827 C2.35726778,3.65263827 2.62889659,3.74364356 2.76616097,3.92565414 C2.90342535,4.10766472 2.97205754,4.49708271 2.97205754,5.09390811 L2.97205754,5.42089224 C2.97205754,6.11930494 3.06582265,7.61031023 3.25335285,7.89390811 C3.44088306,8.17750599 3.7782441,8.35951658 4.26543598,8.43993986 C3.7821107,8.52882875 3.44571631,8.71718853 3.25625281,9.00501922 C3.0667893,9.29284991 2.97205754,9.7838552 2.97205754,10.4780351 L2.97205754,10.7796224 C2.97205754,11.3849134 2.9024587,12.7785642 2.76326102,12.9605748 C2.62406334,13.1425854 2.35340119,13.2335906 1.95127455,13.2335906 L1.24948625,13.2335906 L1.24948625,15.4462891 L3.03295652,15.4462891 Z" id="}-copy" transform="translate(4.249486, 8.446289) scale(-1, 1) translate(-4.249486, -8.446289) "/></g></g></g></g><style data-styled="true" data-styled-version="5.3.11">.lodPSx{cursor:pointer;}/*!sc*/
data-styled.g24[id="sc-ikkxIA"]{content:"lodPSx,"}/*!sc*/
.iStBUT{stroke:#555;background-color:#555;stroke-width:1px;}/*!sc*/
data-styled.g25[id="sc-dAbbOL"]{content:"iStBUT,"}/*!sc*/
.jLkyCY{stroke-width:0;stroke:none;fill:#f2f3f3;}/*!sc*/
data-styled.g26[id="sc-feUZmu"]{content:"jLkyCY,"}/*!sc*/
.dtiIdW{font-size:10px;line-height:12.5;stroke:none;}/*!sc*/
data-styled.g27[id="sc-fUnMCh"]{content:"dtiIdW,"}/*!sc*/
.iYnlgu{fill:var(--color-text-form-secondary-btuye6,#687078);}/*!sc*/
data-styled.g53[id="sc-bbSZdi"]{content:"iYnlgu,"}/*!sc*/
.kzYAMD{font-weight:400;font-size:12px;line-height:16px;font-family:Amazon Ember,Arial,Roboto,Arial,sans-serif;text-shadow:none;fill:var(--color-text-button-primary-default-qh066v,#16191f);}/*!sc*/
data-styled.g54[id="sc-fBWQRz"]{content:"kzYAMD,"}/*!sc*/
.gHgSNu{fill:#fff9cc;stroke:var(--color-text-form-secondary-btuye6,#687078);stroke-width:0.6px;}/*!sc*/
data-styled.g55[id="sc-hknOHE"]{content:"gHgSNu,"}/*!sc*/
.jEBwKg{fill:#fff9cc;stroke:var(--color-text-form-secondary-btuye6,#687078);stroke-width:0.6px;}/*!sc*/
data-styled.g56[id="sc-uVWWZ"]{content:"jEBwKg,"}/*!sc*/
.fZMwc{stroke:var(--color-border-control-default-ie1oqq,#687078);stroke-width:1px;fill:var(--color-background-container-content-x1dxuu,#ffffff);opacity:0.5;}/*!sc*/
.node &gt; .new-look-state-node.has-errors &gt; .bounding-box &gt; .sc-hCPjZK{stroke:var(--color-border-status-error-si9bvu,#d13212);fill:var(--color-background-status-error-qqw3y6,#fdf3f1);}/*!sc*/
.selected &gt; .node &gt; .new-look-state-node &gt; .bounding-box &gt; .sc-hCPjZK{stroke:var(--color-border-status-info-fjyzd6,#0073bb);fill:var(--color-background-status-info-60ssq8,#f1faff);}/*!sc*/
.selected &gt; .node &gt; .new-look-state-node.has-errors &gt; .bounding-box &gt; .sc-hCPjZK{stroke:var(--color-border-status-error-si9bvu,#d13212);fill:#fde0da;}/*!sc*/
data-styled.g57[id="sc-hCPjZK"]{content:"fZMwc,"}/*!sc*/
.kYgSu{opacity:1;}/*!sc*/
data-styled.g58[id="sc-Nxspf"]{content:"kYgSu,"}/*!sc*/
</style><style>
.new-look-state-node &gt; rect:first-of-type {
  stroke: #687078;
  stroke-width: 1px;
  fill: #FFFFFF;
}

.new-look-state-node .error-icon circle {
 stroke-linejoin: round;
}

.new-look-state-node .error-icon circle, .new-look-state-node .error-icon path {
 stroke: var(--color-border-status-error-si9bvu, #d13212);
 fill: none;
 stroke-width: 2px;
}

.new-look-state-node.has-errors &gt; rect:first-of-type {
 stroke: var(--color-border-status-error-si9bvu, #d13212);
 fill: var(--color-background-status-error-qqw3y6, #fdf3f1);
}

.new-look-state-node.has-errors &gt; .bounding-box &gt; .new-look-state-node-sub &gt; rect {
  stroke: var(--color-border-status-error-si9bvu, #d13212);
  fill: var(--color-background-status-error-qqw3y6, #fdf3f1);
}

.new-look-state-node .handle path {
  stroke: var(--color-border-dropdown-item-hover-t6obhh, #879596);
  stroke-width: 1px;
  fill: none;
}

.new-look-state-node {
  font-weight: 400;
  font-family: Amazon Ember, Arial, Roboto, Arial, sans-serif;
  text-shadow: none;
}

.new-look-state-node .line1 {
  fill: #687078;
  font-size: 12px;
}

.new-look-state-node .line2 {
  fill: #16191f;
}

.selected.node &gt; .new-look-state-node &gt; rect,
.selected.node &gt; .new-look-state-node &gt; .new-look-state-node &gt; rect,
.selected.node &gt; .new-look-state-node &gt; .bounding-box &gt; rect,
.selected.node &gt; .new-look-state-node.has-errors &gt; rect,
.selected.node &gt; .new-look-state-node.has-errors &gt; .bounding-box &gt; rect,
.selected.node &gt; .new-look-state-node.has-errors &gt; .new-look-state-node &gt; rect,
.selected.node &gt; .new-look-state-node &gt; .bounding-box &gt; .new-look-state-node-sub &gt; rect
 {
  stroke: var(--color-border-status-info-fjyzd6, #0073bb);
  fill: var(--color-background-status-info-60ssq8, #f1faff);
  stroke-width: 1px;
}

.new-look-state-node-sub .item-source.not-specified {
  height: 15px;
  color: #687078;
  font-family: "Amazon Ember";
  font-size: 12px;
  letter-spacing: 0;
  line-height: 16px;
  font-weight: 400;
}
.new-look-state-node-sub .item-source .item-source_name{
  font-weight: 600;
}
.new-look-state-node-sub .item-source.not-specified .item-source_name{
  font-weight: 400;
}

.new-look-state-node-sub .item-source.not-specified {
  font-style: italic;
}

.new-look-state-node-sub &gt; rect,
.new-look-state-node &gt; .bounding-box &gt; rect {
  stroke: var(--color-border-control-default-ie1oqq, #687078);
  fill: #ffffff;
}

.new-look-graph .drag-source {
  opacity: 0.2;
}

.new-look-graph .edge, .new-look-graph path.starting-connection {
  stroke-width: 1px;
  stroke: var(--color-text-form-secondary-btuye6, #687078);
  marker-end: url(#large-arrowhead);
}

.new-look-graph .edge-label {
  cursor: pointer;
}

.new-look-graph .edge-label rect {
  stroke-width: 1px;
  stroke: var(--color-border-control-default-ie1oqq, #687078);
  fill: #fafafa;
}

.new-look-graph .edge-label.selected rect {
  stroke: var(--color-border-status-info-fjyzd6, #0073bb);
  fill: var(--color-background-status-info-60ssq8, #f1faff);
  stroke-width: 0.6px;
}



.new-look-graph .edge-label .label {
  fill: var(--color-text-form-secondary-btuye6, #687078);
  font-family: Amazon Ember, Arial, Roboto, Arial, sans-serif;
}

/* centering the shape text */
@-moz-document url-prefix() {
  .new-look-graph .shape + text,
  .new-look-graph .edge-label text {
    transform: translateY(3.5px);
  }
}

.new-look-graph .edge path {
  marker-end: url(#large-arrowhead) !important;
}

.new-look-graph .edge.selected path{
  stroke: var(--color-border-status-info-fjyzd6, #0073bb);
  stroke-width: 1.1px;
}

.new-look-graph .edge.dragging-over path, .new-look-graph  g.dragging-over .starting-connection {
  stroke: #5C86FF;
  stroke-width: 2px;
}

.new-look-graph .edge.dragging-over path, .new-look-graph .dragging-over path.starting-connection {
  marker-end: url(#large-highlighted-arrowhead) !important;
}

.new-look-graph .edge.dragging-over .edge-label text {
  fill: #5C86FF;
}

#large-highlighted-arrowhead {
  fill: #5C86FF;
}

#large-highlighted-arrowhead path {
  stroke: none;
}

.new-look-graph .edge.drop-not-supported path, g.drop-not-supported .starting-connection {
  stroke: red;
}

.new-look-graph .edge.drop-not-supported .edge-label text {
  fill: red;
}

.new-look-graph .edge.drop-not-supported path {
  marker-end: url(#large-error-arrowhead) !important;
}

#large-error-arrowhead {
  fill: red;
}

.node-container * &gt; .icon  {
  &gt; rect {
    fill: #fafafa;
  }
  &gt; line {
    stroke: #d5dbdb;
  }
}


.node.Placeholder.dragging-over rect {
  stroke: var(--color-border-status-info-fjyzd6, #0073bb);
  fill: var(--color-background-status-info-60ssq8, #f1faff);
  stroke-width: 2px;
}

.node.Placeholder.dragging-over .label {
  fill: var(--color-text-status-info-f9d9f2, #0073bb);
}

g.Placeholder rect {
  stroke-dasharray: 5 4;
  stroke: var(--color-border-dropdown-item-hover-t6obhh, #879596);
  fill: #ffffff;
  stroke-width: 1px;
}

g.Placeholder .label {
  font-style: italic;
  fill: var(--color-text-input-placeholder-lhl4lu, #687078);
}

.node.Placeholder.drop-not-supported rect {
  stroke: red;
}

.node.Placeholder.drop-not-supported .label {
  fill: red;
}
</style><style>.line2 { font-size: 14px }</style></svg><text x="-70.5" y="-268" class="line1"><tspan class="item-source" xml:space="preserve" text-anchor="start"><tspan>Item source</tspan><tspan class="item-source_name"><tspan>: JSON Payload</tspan></tspan></tspan></text></g><g class="content" transform="translate(-458.625,-329)"><g class="branch" transform="translate(20,124)"><g transform=""><g class="nodes"><g class="node-container" transform="translate(295,24.5)"><g class="sc-ikkxIA lodPSx node state Pass" data-testid="graph-Set input map vars" data-state-id="Set input map vars" data-state-type="Pass"><g class="new-look-state-node "><rect x="-120" y="-24.5" width="240" height="49" rx="3" ry="3"/><g class="handle" transform="translate(-120,-24.5)"><path d="M5,16 L5,34 M8,16 L8,34"/></g><g class="icon" transform="translate(-104,-24)"><rect fill="var(--color-background-container-header-etndi4, #fafafa)" x="0.0361026108" y="0.0181291967" width="48" height="48"/><line x1="47.5" y1="0.49122807" x2="47.5" y2="47.5" stroke="var(--color-board-placeholder-active-qurjro, #d5dbdb)" stroke-linecap="square"/><line x1="0.5" y1="0.49122807" x2="0.5" y2="47.5" stroke="var(--color-board-placeholder-active-qurjro, #d5dbdb)" stroke-linecap="square"/><use href="#icon-flow-pass"/></g><g class="text-lines" transform="translate(-48,-24.5)"><text transform="translate(0,17)" class="line1"><tspan xml:space="preserve" text-anchor="start">Pass state</tspan></text><text transform="translate(0,35.5)" class="line2 label"><tspan xml:space="preserve" text-anchor="start">Set input map vars</tspan></text></g></g></g></g><g class="node-container" transform="translate(295,108.5)"><g class="sc-ikkxIA lodPSx node state Task" data-testid="graph-Job ID is running" data-state-id="Job ID is running" data-state-type="Task"><g class="new-look-state-node "><rect x="-120" y="-24.5" width="240" height="49" rx="3" ry="3"/><g class="handle" transform="translate(-120,-24.5)"><path d="M5,16 L5,34 M8,16 L8,34"/></g><g class="icon" transform="translate(-104,-24)"><rect fill="var(--color-background-container-header-etndi4, #fafafa)" x="0.0361026108" y="0.0181291967" width="48" height="48"/><line x1="47.5" y1="0.49122807" x2="47.5" y2="47.5" stroke="var(--color-board-placeholder-active-qurjro, #d5dbdb)" stroke-linecap="square"/><line x1="0.5" y1="0.49122807" x2="0.5" y2="47.5" stroke="var(--color-board-placeholder-active-qurjro, #d5dbdb)" stroke-linecap="square"/><use href="#icon-service-lam" aria-hidden="true"><title>Lambda</title></use></g><g class="text-lines" transform="translate(-48,-24.5)"><text transform="translate(0,17)" class="line1"><tspan xml:space="preserve" text-anchor="start">Lambda: Invoke</tspan></text><text transform="translate(0,35.5)" class="line2 label"><tspan xml:space="preserve" text-anchor="start">Job ID is running</tspan></text></g></g></g></g><g class="node-container" transform="translate(449.25,192.5)"><g class="sc-ikkxIA lodPSx node state Choice" data-testid="graph-Send heart beat if still running" data-state-id="Send heart beat if still running" data-state-type="Choice"><g class="new-look-state-node "><rect x="-138" y="-24.5" width="276" height="49" rx="3" ry="3"/><g class="handle" transform="translate(-138,-24.5)"><path d="M5,16 L5,34 M8,16 L8,34"/></g><g class="icon" transform="translate(-122,-24)"><rect fill="var(--color-background-container-header-etndi4, #fafafa)" x="0.0361026108" y="0.0181291967" width="48" height="48"/><line x1="47.5" y1="0.49122807" x2="47.5" y2="47.5" stroke="var(--color-board-placeholder-active-qurjro, #d5dbdb)" stroke-linecap="square"/><line x1="0.5" y1="0.49122807" x2="0.5" y2="47.5" stroke="var(--color-board-placeholder-active-qurjro, #d5dbdb)" stroke-linecap="square"/><use href="#icon-flow-choice"/></g><g class="text-lines" transform="translate(-66,-24.5)"><text transform="translate(0,17)" class="line1"><tspan xml:space="preserve" text-anchor="start">Choice state</tspan></text><text transform="translate(0,35.5)" class="line2 label"><tspan xml:space="preserve" text-anchor="start">Send heart beat if still running</tspan></text></g></g></g></g><g class="node-container" transform="translate(137.5,293)"><g class="sc-ikkxIA lodPSx node state Task" data-testid="graph-SendTaskHeartbeat" data-state-id="SendTaskHeartbeat" data-state-type="Task"><g class="new-look-state-node "><rect x="-137.5" y="-24.5" width="275" height="49" rx="3" ry="3"/><g class="handle" transform="translate(-137.5,-24.5)"><path d="M5,16 L5,34 M8,16 L8,34"/></g><g class="icon" transform="translate(-121.5,-24)"><rect fill="var(--color-background-container-header-etndi4, #fafafa)" x="0.0361026108" y="0.0181291967" width="48" height="48"/><line x1="47.5" y1="0.49122807" x2="47.5" y2="47.5" stroke="var(--color-board-placeholder-active-qurjro, #d5dbdb)" stroke-linecap="square"/><line x1="0.5" y1="0.49122807" x2="0.5" y2="47.5" stroke="var(--color-board-placeholder-active-qurjro, #d5dbdb)" stroke-linecap="square"/><use href="#icon-service-states" aria-hidden="true"><title>Step Functions</title></use></g><g class="text-lines" transform="translate(-65.5,-24.5)"><text transform="translate(0,17)" class="line1"><tspan xml:space="preserve" text-anchor="start">Step Functions: SendTaskHeartbeat</tspan></text><text transform="translate(0,35.5)" class="line2 label"><tspan xml:space="preserve" text-anchor="start">SendTaskHeartbeat</tspan></text></g></g></g></g><g class="node-container" transform="translate(748.75,293)"><g class="sc-ikkxIA lodPSx node state Task" data-testid="graph-SendTaskFailure" data-state-id="SendTaskFailure" data-state-type="Task"><g class="new-look-state-node "><rect x="-128.5" y="-24.5" width="257" height="49" rx="3" ry="3"/><g class="handle" transform="translate(-128.5,-24.5)"><path d="M5,16 L5,34 M8,16 L8,34"/></g><g class="icon" transform="translate(-112.5,-24)"><rect fill="var(--color-background-container-header-etndi4, #fafafa)" x="0.0361026108" y="0.0181291967" width="48" height="48"/><line x1="47.5" y1="0.49122807" x2="47.5" y2="47.5" stroke="var(--color-board-placeholder-active-qurjro, #d5dbdb)" stroke-linecap="square"/><line x1="0.5" y1="0.49122807" x2="0.5" y2="47.5" stroke="var(--color-board-placeholder-active-qurjro, #d5dbdb)" stroke-linecap="square"/><use href="#icon-service-states" aria-hidden="true"><title>Step Functions</title></use></g><g class="text-lines" transform="translate(-56.5,-24.5)"><text transform="translate(0,17)" class="line1"><tspan xml:space="preserve" text-anchor="start">Step Functions: SendTaskFailure</tspan></text><text transform="translate(0,35.5)" class="line2 label"><tspan xml:space="preserve" text-anchor="start">SendTaskFailure</tspan></text></g></g></g></g><g class="node-container" transform="translate(449.25,293)"><g class="sc-ikkxIA lodPSx node state Task" data-testid="graph-SendTaskSuccess" data-state-id="SendTaskSuccess" data-state-type="Task"><g class="new-look-state-node "><rect x="-131" y="-24.5" width="262" height="49" rx="3" ry="3"/><g class="handle" transform="translate(-131,-24.5)"><path d="M5,16 L5,34 M8,16 L8,34"/></g><g class="icon" transform="translate(-115,-24)"><rect fill="var(--color-background-container-header-etndi4, #fafafa)" x="0.0361026108" y="0.0181291967" width="48" height="48"/><line x1="47.5" y1="0.49122807" x2="47.5" y2="47.5" stroke="var(--color-board-placeholder-active-qurjro, #d5dbdb)" stroke-linecap="square"/><line x1="0.5" y1="0.49122807" x2="0.5" y2="47.5" stroke="var(--color-board-placeholder-active-qurjro, #d5dbdb)" stroke-linecap="square"/><use href="#icon-service-states" aria-hidden="true"><title>Step Functions</title></use></g><g class="text-lines" transform="translate(-59,-24.5)"><text transform="translate(0,17)" class="line1"><tspan xml:space="preserve" text-anchor="start">Step Functions: SendTaskSuccess</tspan></text><text transform="translate(0,35.5)" class="line2 label"><tspan xml:space="preserve" text-anchor="start">SendTaskSuccess</tspan></text></g></g></g></g><g class="node-container" transform="translate(449.25,461)"><g><circle class="sc-uVWWZ jEBwKg shape" r="8"/></g></g><g class="node-container" transform="translate(335,393.5)"><g class="sc-ikkxIA lodPSx node state Pass" data-testid="graph-Fallback state" data-state-id="Fallback state" data-state-type="Pass"><g class="new-look-state-node "><rect x="-120" y="-24.5" width="240" height="49" rx="3" ry="3"/><g class="handle" transform="translate(-120,-24.5)"><path d="M5,16 L5,34 M8,16 L8,34"/></g><g class="icon" transform="translate(-104,-24)"><rect fill="var(--color-background-container-header-etndi4, #fafafa)" x="0.0361026108" y="0.0181291967" width="48" height="48"/><line x1="47.5" y1="0.49122807" x2="47.5" y2="47.5" stroke="var(--color-board-placeholder-active-qurjro, #d5dbdb)" stroke-linecap="square"/><line x1="0.5" y1="0.49122807" x2="0.5" y2="47.5" stroke="var(--color-board-placeholder-active-qurjro, #d5dbdb)" stroke-linecap="square"/><use href="#icon-flow-pass"/></g><g class="text-lines" transform="translate(-48,-24.5)"><text transform="translate(0,17)" class="line1"><tspan xml:space="preserve" text-anchor="start">Pass state</tspan></text><text transform="translate(0,35.5)" class="line2 label"><tspan xml:space="preserve" text-anchor="start">Fallback state</tspan></text></g></g></g></g></g><g class="edges"><g class="sc-dAbbOL iStBUT edge"><path id="state-Set input map vars:state-Job ID is running:normal" d="M295,49L295,51.916666666666664C295,54.833333333333336,295,60.666666666666664,295,66.5C295,72.33333333333333,295,78.16666666666667,295,81.08333333333333L295,84" marker-end="url(#arrowhead)" fill="none"/></g><g class="sc-dAbbOL iStBUT edge"><path id="state-Job ID is running:state-Send heart beat if still running:normal" d="M384.9791666666667,133L395.69097222222223,135.91666666666666C406.4027777777778,138.83333333333334,427.8263888888889,144.66666666666666,438.5381944444444,150.5C449.25,156.33333333333334,449.25,162.16666666666666,449.25,165.08333333333334L449.25,168" marker-end="url(#arrowhead)" fill="none"/></g><g class="sc-dAbbOL iStBUT edge"><path id="state-Job ID is running:state-SendTaskHeartbeat:catch:0" d="M194.375,133L182.39583333333334,135.91666666666666C170.41666666666666,138.83333333333334,146.45833333333334,144.66666666666666,134.47916666666666,154.58333333333334C122.5,164.5,122.5,178.5,122.5,193.875C122.5,209.25,122.5,226,123.78109452736318,238.66666666666666C125.06218905472637,251.33333333333334,127.62437810945273,259.9166666666667,128.90547263681592,264.2083333333333L130.1865671641791,268.5" marker-end="url(#arrowhead)" fill="none"/><g data-testid="graph-Job ID is running-0" class="edge-label" transform="translate(134.47916666666666,154.58333333333334)"><rect x="-25" y="-8.25" width="50" height="16.5" class="sc-feUZmu jLkyCY"/><text class="sc-fUnMCh dtiIdW label"><tspan xml:space="preserve" text-anchor="middle" alignment-baseline="central">Catch #1</tspan><title>Catch #1</title></text></g></g><g class="sc-dAbbOL iStBUT edge"><path id="state-Send heart beat if still running:state-SendTaskHeartbeat:choiceRule:0" d="M356.00373134328356,217L339.66977611940297,221.29166666666666C323.3358208955224,225.58333333333334,290.6679104477612,234.16666666666666,264.042495854063,242.75C237.41708126036485,251.33333333333334,216.8341625207297,259.9166666666667,206.5427031509121,264.2083333333333L196.25124378109453,268.5" marker-end="url(#arrowhead)" fill="none"/><g data-testid="graph-Send heart beat if still running-0" class="edge-label" transform="translate(264.042495854063,242.75)"><rect x="-22" y="-8.25" width="44" height="16.5" class="sc-feUZmu jLkyCY"/><text class="sc-fUnMCh dtiIdW label"><tspan xml:space="preserve" text-anchor="middle" alignment-baseline="central">Rule #1</tspan><title>Rule #1</title></text></g></g><g class="sc-dAbbOL iStBUT edge"><path id="state-Send heart beat if still running:state-SendTaskFailure:choiceRule:1" d="M587.25,215.6535893155259L614.1666666666666,220.16965776293827C641.0833333333334,224.6857262103506,694.9166666666666,233.7178631051753,721.8333333333334,242.52559821925433C748.75,251.33333333333334,748.75,259.9166666666667,748.75,264.2083333333333L748.75,268.5" marker-end="url(#arrowhead)" fill="none"/><g data-testid="graph-Send heart beat if still running-1" class="edge-label" transform="translate(721.8333333333334,242.52559821925433)"><rect x="-22" y="-8.25" width="44" height="16.5" class="sc-feUZmu jLkyCY"/><text class="sc-fUnMCh dtiIdW label"><tspan xml:space="preserve" text-anchor="middle" alignment-baseline="central">Rule #2</tspan><title>Rule #2</title></text></g></g><g class="sc-dAbbOL iStBUT edge"><path id="state-Send heart beat if still running:state-SendTaskSuccess:choiceDefault" d="M449.25,217L449.25,221.29166666666666C449.25,225.58333333333334,449.25,234.16666666666666,449.25,242.75C449.25,251.33333333333334,449.25,259.9166666666667,449.25,264.2083333333333L449.25,268.5" marker-end="url(#arrowhead)" fill="none"/><g data-testid="graph-Send heart beat if still running-Default" class="edge-label" transform="translate(449.25,242.75)"><rect x="-22" y="-8.25" width="44" height="16.5" class="sc-feUZmu jLkyCY"/><text class="sc-fUnMCh dtiIdW label"><tspan xml:space="preserve" text-anchor="middle" alignment-baseline="central">Default</tspan><title>Default</title></text></g></g><g class="sc-dAbbOL iStBUT edge"><path id="state-SendTaskHeartbeat:end:normal" d="M130.1865671641791,317.5L128.90547263681592,321.7916666666667C127.62437810945273,326.0833333333333,125.06218905472637,334.6666666666667,123.78109452736318,347.3333333333333C122.5,360,122.5,376.75,122.5,392.125C122.5,407.5,122.5,421.5,175.6290418448616,432.64626034290427C228.75808368972318,443.79252068580854,335.01616737944636,452.0850413716171,388.14520922430796,456.23130171452135L441.2742510691695,460.3775620574256" marker-end="url(#arrowhead)" fill="none"/></g><g class="sc-dAbbOL iStBUT edge"><path id="state-SendTaskHeartbeat:state-Fallback state:catch:0" d="M194.78855721393035,317.5L204.82379767827527,321.7916666666667C214.85903814262022,326.0833333333333,234.9295190713101,334.6666666666667,251.797263681592,343.25C268.66500829187396,351.8333333333333,282.3300165837479,360.4166666666667,289.1625207296849,364.7083333333333L295.9950248756219,369" marker-end="url(#arrowhead)" fill="none"/><g data-testid="graph-SendTaskHeartbeat-0" class="edge-label" transform="translate(251.797263681592,343.25)"><rect x="-25" y="-8.25" width="50" height="16.5" class="sc-feUZmu jLkyCY"/><text class="sc-fUnMCh dtiIdW label"><tspan xml:space="preserve" text-anchor="middle" alignment-baseline="central">Catch #1</tspan><title>Catch #1</title></text></g></g><g class="sc-dAbbOL iStBUT edge"><path id="state-Fallback state:end:normal" d="M335,418L335,420.9166666666667C335,423.8333333333333,335,429.6666666666667,352.74035247985597,436.5428868408723C370.4807049597119,443.41910701507794,405.96140991942383,451.3382140301558,423.70176239927974,455.2977675376948L441.44211487913566,459.25732104523377" marker-end="url(#arrowhead)" fill="none"/></g><g class="sc-dAbbOL iStBUT edge"><path id="state-SendTaskSuccess:end:normal" d="M541.7649253731344,317.5L557.9707711442786,321.7916666666667C574.1766169154229,326.0833333333333,606.5883084577114,334.6666666666667,622.7941542288557,347.3333333333333C639,360,639,376.75,639,392.125C639,407.5,639,421.5,608.6964540246712,432.5724132931272C578.3929080493425,443.64482658625434,517.785816098685,451.7896531725087,487.4822701233563,455.8620664656359L457.1787241480275,459.9344797587631" marker-end="url(#arrowhead)" fill="none"/></g><g class="sc-dAbbOL iStBUT edge"><path id="state-SendTaskSuccess:state-Fallback state:catch:0" d="M404.51616915422886,317.5L396.68014096185743,321.7916666666667C388.84411276948595,326.0833333333333,373.172056384743,334.6666666666667,363.41438640132674,343.25C353.65671641791045,351.8333333333333,349.81343283582083,360.4166666666667,347.8917910447761,364.7083333333333L345.97014925373134,369" marker-end="url(#arrowhead)" fill="none"/><g data-testid="graph-SendTaskSuccess-0" class="edge-label" transform="translate(363.41438640132674,343.25)"><rect x="-25" y="-8.25" width="50" height="16.5" class="sc-feUZmu jLkyCY"/><text class="sc-fUnMCh dtiIdW label"><tspan xml:space="preserve" text-anchor="middle" alignment-baseline="central">Catch #1</tspan><title>Catch #1</title></text></g></g><g class="sc-dAbbOL iStBUT edge"><path id="state-SendTaskFailure:end:normal" d="M775.5659203980099,317.5L780.2632669983417,321.7916666666667C784.9606135986733,326.0833333333333,794.3553067993366,334.6666666666667,799.0526533996684,347.3333333333333C803.75,360,803.75,376.75,803.75,392.125C803.75,407.5,803.75,421.5,745.9965638252393,432.65433743993344C688.2431276504784,443.8086748798669,572.7362553009567,452.11734975973377,514.982819126196,456.2716871996672L457.2293829514352,460.4260246396006" marker-end="url(#arrowhead)" fill="none"/></g><g class="sc-dAbbOL iStBUT edge"><path id="state-SendTaskFailure:state-Fallback state:catch:0" d="M650.5062189054727,317.5L633.2968490878939,321.7916666666667C616.0874792703152,326.0833333333333,581.6687396351575,334.6666666666667,546.3318822553897,343.25C510.99502487562194,351.8333333333333,474.74004975124376,360.4166666666667,456.6125621890547,364.7083333333333L438.48507462686564,369" marker-end="url(#arrowhead)" fill="none"/><g data-testid="graph-SendTaskFailure-0" class="edge-label" transform="translate(546.3318822553897,343.25)"><rect x="-25" y="-8.25" width="50" height="16.5" class="sc-feUZmu jLkyCY"/><text class="sc-fUnMCh dtiIdW label"><tspan xml:space="preserve" text-anchor="middle" alignment-baseline="central">Catch #1</tspan><title>Catch #1</title></text></g></g></g></g></g><g class="sc-dAbbOL iStBUT"><path id="For each job id in the table-Set input map vars" class="path starting-connection" d="M458.625,69L458.625,73.58333333333333C458.625,78.16666666666667,458.625,87.33333333333333,434.6875,91.91666666666667C410.75,96.5,362.875,96.5,338.9375,101.08333333333333C315,105.66666666666667,315,114.83333333333333,315,119.41666666666667L315,124" fill="none"/></g></g></g><g class="new-look-state-node "><rect x="-125.5" y="-329" width="251" height="49" rx="3" ry="3"/><g class="handle" transform="translate(-125.5,-329)"><path d="M5,16 L5,34 M8,16 L8,34"/></g><g class="icon" transform="translate(-109.5,-328.5)"><rect fill="var(--color-background-container-header-etndi4, #fafafa)" x="0.0361026108" y="0.0181291967" width="48" height="48"/><line x1="47.5" y1="0.49122807" x2="47.5" y2="47.5" stroke="var(--color-board-placeholder-active-qurjro, #d5dbdb)" stroke-linecap="square"/><line x1="0.5" y1="0.49122807" x2="0.5" y2="47.5" stroke="var(--color-board-placeholder-active-qurjro, #d5dbdb)" stroke-linecap="square"/><use href="#icon-flow-distributedmap"/></g><g class="text-lines" transform="translate(-53.5,-329)"><text transform="translate(0,17)" class="line1"><tspan xml:space="preserve" text-anchor="start">Map: JSON Payload</tspan></text><text transform="translate(0,35.5)" class="line2 label"><tspan xml:space="preserve" text-anchor="start">For each job id in the table</tspan></text></g></g></g></g></g><g class="node-container" transform="translate(429.3125,978.5)"><g><circle class="sc-hknOHE gHgSNu shape" r="22"/><text class="sc-fBWQRz kzYAMD label"><tspan xml:space="preserve" text-anchor="middle" alignment-baseline="central">End</tspan></text></g></g></g><g class="edges"><g class="sc-dAbbOL iStBUT edge"><path id="state-Scan Table:state-Is Empty Table:normal" d="M429.3125,128L429.3125,130.91666666666666C429.3125,133.83333333333334,429.3125,139.66666666666666,429.3125,145.5C429.3125,151.33333333333334,429.3125,157.16666666666666,429.3125,160.08333333333334L429.3125,163" marker-end="url(#arrowhead)" fill="none"/></g><g class="sc-dAbbOL iStBUT edge"><path id="start:state-Scan Table" d="M429.3125,44L429.3125,46.916666666666664C429.3125,49.833333333333336,429.3125,55.666666666666664,429.3125,61.5C429.3125,67.33333333333333,429.3125,73.16666666666667,429.3125,76.08333333333333L429.3125,79" marker-end="url(#arrowhead)" fill="none"/></g><g class="sc-dAbbOL iStBUT edge"><path id="state-Is Empty Table:state-Disable Heartbeat rule:choiceRule:0" d="M309.3125,206.99484744392805L277.7604166666667,212.12070620327336C246.20833333333334,217.2465649626187,183.10416666666666,227.49828248130936,151.55208333333334,287.6658079073213C120,347.8333333333333,120,457.9166666666667,120,512.9583333333334L120,568" marker-end="url(#arrowhead)" fill="none"/><g data-testid="graph-Is Empty Table-0" class="edge-label" transform="translate(151.55208333333334,287.6658079073213)"><rect x="-103" y="-8.25" width="206" height="16.5" class="sc-feUZmu jLkyCY"/><text class="sc-fUnMCh dtiIdW label"><tspan xml:space="preserve" text-anchor="middle" alignment-baseline="central">{% $count($states.input.jobIdAndTokenL…</tspan><title>{% $count($states.input.jobIdAndTokenList) == 0 %}</title></text></g></g><g class="sc-dAbbOL iStBUT edge"><path id="state-Is Empty Table:state-For each job id in the table:choiceDefault" d="M549.3125,206.99484744392805L580.8645833333334,212.12070620327336C612.4166666666666,217.2465649626187,675.5208333333334,227.49828248130936,707.0729166666666,236.91580790732132C738.625,246.33333333333334,738.625,254.91666666666666,738.625,259.2083333333333L738.625,263.5" marker-end="url(#arrowhead)" fill="none"/><g data-testid="graph-Is Empty Table-Default" class="edge-label" transform="translate(707.0729166666666,236.91580790732132)"><rect x="-22" y="-8.25" width="44" height="16.5" class="sc-feUZmu jLkyCY"/><text class="sc-fUnMCh dtiIdW label"><tspan xml:space="preserve" text-anchor="middle" alignment-baseline="central">Default</tspan><title>Default</title></text></g></g><g class="sc-dAbbOL iStBUT edge"><path id="state-Disable Heartbeat rule:end:normal" d="M120,617L120,670.6666666666666C120,724.3333333333334,120,831.6666666666666,167.91495378627783,891.4521958899968C215.8299075725557,951.237725113327,311.65981514511134,963.4754502266538,359.57476893138914,969.5943127833174L407.489722717667,975.7131753399809" marker-end="url(#arrowhead)" fill="none"/></g><g class="sc-dAbbOL iStBUT edge"><path id="state-For each job id in the table:end:normal" d="M738.625,921.5L738.625,924.4166666666666C738.625,927.3333333333334,738.625,933.1666666666666,690.7100462137222,942.2021958899968C642.7950924274443,951.237725113327,546.9651848548887,963.4754502266538,499.0502310686108,969.5943127833174L451.135277282333,975.7131753399809" marker-end="url(#arrowhead)" fill="none"/></g></g><defs><marker id="arrowhead" markerWidth="8" markerHeight="6" refX="7" refY="3" orient="auto" class="sc-bbSZdi iYnlgu"><polygon points="0 0, 8 3, 0 6"/></marker><marker id="highlighted-arrowhead" markerWidth="6" markerHeight="4" refX="5" refY="2" orient="auto" class="sc-bbSZdi iYnlgu"><polygon points="0 0, 6 2, 0 4"/></marker><marker id="error-arrowhead" markerWidth="6" markerHeight="4" refX="5" refY="2" orient="auto" class="sc-bbSZdi iYnlgu"><polygon points="0 0, 6 2, 0 4"/></marker><marker id="large-arrowhead" markerWidth="10" markerHeight="8" refX="9" refY="4" orient="auto" class="sc-bbSZdi iYnlgu"><polygon points="0 0, 10 4, 0 8"/></marker><marker id="large-highlighted-arrowhead" markerWidth="5.5" markerHeight="4" refX="4.5" refY="2" orient="auto" class="sc-bbSZdi iYnlgu"><polygon points="0 0, 5.5 2, 0 4"/></marker><marker id="large-error-arrowhead" markerWidth="10" markerHeight="8" refX="9" refY="4" orient="auto" class="sc-bbSZdi iYnlgu"><polygon points="0 0, 10 4, 0 8"/></marker><linearGradient x1="0%" y1="100%" x2="100%" y2="0%" id="gradient-orange"><stop stop-color="#C8511B" offset="0%"/><stop stop-color="#FF9900" offset="100%"/></linearGradient><linearGradient x1="0%" y1="100%" x2="100%" y2="0%" id="gradient-turquoise"><stop stop-color="#055F4E" offset="0%"/><stop stop-color="#56C0A7" offset="100%"/></linearGradient><linearGradient x1="0%" y1="100%" x2="100%" y2="0%" id="gradient-blue"><stop stop-color="#2E27AD" offset="0%"/><stop stop-color="#527FFF" offset="100%"/></linearGradient><linearGradient x1="0%" y1="100%" x2="100%" y2="0%" id="gradient-pink"><stop stop-color="#B0084D" offset="0%"/><stop stop-color="#FF4F8B" offset="100%"/></linearGradient><linearGradient x1="0%" y1="100%" x2="100%" y2="0%" id="gradient-red"><stop stop-color="#BD0816" offset="0%"/><stop stop-color="#FF5252" offset="100%"/></linearGradient><linearGradient x1="0%" y1="100%" x2="100%" y2="0%" id="gradient-green"><stop stop-color="#1B660F" offset="0%"/><stop stop-color="#6CAE3E" offset="100%"/></linearGradient><linearGradient x1="0%" y1="100%" x2="100%" y2="0%" id="gradient-purple"><stop stop-color="#4D27A8" offset="0%"/><stop stop-color="#A166FF" offset="100%"/></linearGradient><linearGradient x1="0%" y1="100%" x2="100%" y2="0%" id="gradient-grey"><stop stop-color="#DCDCDC" offset="0%"/><stop stop-color="#F6F5F7" offset="100%"/></linearGradient><linearGradient x1="0%" y1="100%" x2="100%" y2="0%" id="gradient-light-pink"><stop stop-color="#DD344C" offset="0%"/><stop stop-color="#DD344C" offset="100%"/></linearGradient>,<linearGradient x1="0%" y1="100%" x2="100%" y2="0%" id="gradient-ag"><stop stop-color="#BC1356" offset="0%"/><stop stop-color="#F34482" offset="100%"/></linearGradient><linearGradient x1="0%" y1="100%" x2="100%" y2="0%" id="gradient-athena"><stop stop-color="#5930B5" offset="0%"/><stop stop-color="#945DF2" offset="100%"/></linearGradient><linearGradient x1="0%" y1="100%" x2="100%" y2="0%" id="gradient-emr"><stop stop-color="#5930B5" offset="0%"/><stop stop-color="#945DF2" offset="100%"/></linearGradient><linearGradient x1="0%" y1="100%" x2="100%" y2="0%" id="gradient-glue"><stop stop-color="#5930B5" offset="0%"/><stop stop-color="#945DF2" offset="100%"/></linearGradient><linearGradient x1="0%" y1="100%" x2="100%" y2="0%" id="gradient-sns"><stop stop-color="#BC1356" offset="0%"/><stop stop-color="#F34482" offset="100%"/></linearGradient><linearGradient x1="0%" y1="100%" x2="100%" y2="0%" id="gradient-states"><stop stop-color="#BC1356" offset="0%"/><stop stop-color="#F34482" offset="100%"/></linearGradient><linearGradient x1="0%" y1="100%" x2="100%" y2="0%" id="gradient-generic"><stop stop-color="#ccc" offset="0%"/><stop stop-color="#ddd" offset="100%"/></linearGradient><g stroke="none" stroke-width="1" fill="none" fill-rule="evenodd" id="icon-flow-pass"><g transform="translate(10.500000, 8.750000)" fill="#0073BB" fill-rule="nonzero"><path d="M13.8217363,31.2803301 L13.7368454,31.3532508 L13.7368454,31.3532508 L13.6534426,31.407053 L13.6534426,31.407053 L13.6052878,31.4313839 L13.6052878,31.4313839 L13.5081671,31.4681458 L13.5081671,31.4681458 L13.4513711,31.4828395 L13.4513711,31.4828395 L13.3846755,31.4942127 L13.3846755,31.4942127 L13.3412428,31.498357 L13.3412428,31.498357 L13.241495,31.498357 L13.241495,31.498357 L13.1802045,31.4917588 L13.1802045,31.4917588 L13.1314644,31.4828361 L13.1314644,31.4828361 L13.0652921,31.4652652 L12.9776235,31.4314294 L12.9776235,31.4314294 L12.9293782,31.4070608 L12.9293782,31.4070608 L12.8294824,31.3409596 L12.7610762,31.2803301 L12.7610762,31.2803301 L8.26107616,26.7803301 C7.96818295,26.4874369 7.96818295,26.0125631 8.26107616,25.7196699 C8.52734273,25.4534034 8.94400641,25.4291973 9.2376179,25.6470518 L9.32173634,25.7196699 L12.5814063,28.979 L12.581,19.7495522 L3.5,19.75 C1.6314366,19.75 0.104873551,18.2857224 0.00517886273,16.4420352 L0,16.25 L0,12.25 C0,10.3814366 1.4642776,8.85487355 3.3079648,8.75517886 L3.5,8.75 L11.686,8.74955216 L11.686,10.2495522 L3.5,10.25 C2.4456382,10.25 1.58183488,11.0658778 1.50548574,12.1007377 L1.5,12.25 L1.5,16.25 C1.5,17.3043618 2.31587779,18.1681651 3.35073766,18.2445143 L3.5,18.25 L22.5,18.25 C23.5543618,18.25 24.4181651,17.4341222 24.4945143,16.3992623 L24.5,16.25 L24.5,12.25 C24.5,11.1956382 23.6841222,10.3318349 22.6492623,10.2554857 L22.5,10.25 L15.686,10.2495522 L15.686,8.74955216 L22.5,8.75 C24.3685634,8.75 25.8951264,10.2142776 25.9948211,12.0579648 L26,12.25 L26,16.25 C26,18.1185634 24.5357224,19.6451264 22.6920352,19.7448211 L22.5,19.75 L14.081,19.7495522 L14.0814063,28.899 L17.2610762,25.7196699 L17.3451946,25.6470518 C17.6388061,25.4291973 18.0554698,25.4534034 18.3217363,25.7196699 C18.5880029,25.9859365 18.6122089,26.4026002 18.3943545,26.6962117 L18.3217363,26.7803301 L13.8217363,31.2803301 Z" fill="false"/><polygon points="14.0818291 0 14.0818291 14.5 12.5818291 14.5 12.5818291 0" fill="false"/></g></g><g stroke="none" stroke-width="1" fill="none" fill-rule="evenodd" id="icon-flow-map"><g transform="translate(7.250000, 12.250000)" fill="#0073BB" fill-rule="nonzero"><path d="M18.75 6.75C19.3023 6.75 19.75 7.19772 19.75 7.75V10.75C19.75 11.3023 19.3023 11.75 18.75 11.75H17V14.75H18.75C19.3023 14.75 19.75 15.1977 19.75 15.75V18.75C19.75 19.3023 19.3023 19.75 18.75 19.75H13.75C13.1977 19.75 12.75 19.3023 12.75 18.75V15.75C12.75 15.1977 13.1977 14.75 13.75 14.75H15.5V11.75H13.75C13.1977 11.75 12.75 11.3023 12.75 10.75V7.75C12.75 7.19772 13.1977 6.75 13.75 6.75H18.75ZM18.25 16.25H14.25V18.25H18.25V16.25ZM18.25 8.25H14.25V10.25H18.25V8.25Z" fill="false"/><path d="M4.36774 12.9782L4.25582 12.9874L4.16664 12.9828L4.0991 12.9721L4.01773 12.9507L3.91439 12.9084L3.84086 12.8662L3.80379 12.8403L3.71967 12.7677L0.21967 9.26773C-0.0732233 8.97484 -0.0732233 8.49996 0.21967 8.20707C0.485936 7.9408 0.9026 7.9166 1.19621 8.13445L1.28033 8.20707L3.5 10.427V5.75C3.5 2.64821 5.95602 0.120063 9.02944 0.00415208L9.25 0H24.25C27.3101 0 29.8183 2.39279 29.9906 5.418L29.9991 5.65629L30 7.75C30 8.16421 29.6642 8.5 29.25 8.5C28.8358 8.5 28.5 8.16421 28.5 7.75L28.4992 5.66855C28.4572 3.42607 26.6797 1.6129 24.4594 1.50507L24.25 1.5H9.25C6.97183 1.5 5.11231 3.29251 5.0049 5.54408L5 5.75V10.426L7.21967 8.20707L7.30379 8.13445C7.5974 7.9166 8.01406 7.9408 8.28033 8.20707C8.5466 8.47334 8.5708 8.89 8.35295 9.18361L8.28033 9.26773L4.78033 12.7677C4.7427 12.8054 4.70207 12.8382 4.65921 12.8661L4.58539 12.9085L4.50826 12.9417L4.44164 12.9626L4.36774 12.9782Z" fill="false"/><path d="M29.1567 12.4673L29.2442 12.4615L29.3612 12.4698L29.4099 12.4787L29.4761 12.4963L29.5349 12.5175L29.6052 12.5507L29.6962 12.6086L29.7803 12.6812L33.2803 16.1812C33.5732 16.4741 33.5732 16.949 33.2803 17.2419C33.0141 17.5081 32.5974 17.5323 32.3038 17.3145L32.2197 17.2419L30 15.0225V19.75C30 22.8518 27.544 25.3799 24.4706 25.4959L24.25 25.5H9.25C6.22365 25.5 3.73213 23.158 3.5153 20.1725L3.503 19.9226L3.5 17.75C3.5 17.3358 3.83579 17 4.25 17C4.6297 17 4.94349 17.2822 4.99315 17.6482L5 17.75L5.00248 19.8967C5.07738 22.112 6.8452 23.8894 9.04276 23.995L9.25 24H24.25C26.5282 24 28.3877 22.2075 28.4951 19.9559L28.5 19.75V15.0215L26.2803 17.2419L26.1962 17.3145C25.9026 17.5323 25.4859 17.5081 25.2197 17.2419C24.9534 16.9756 24.9292 16.5589 25.1471 16.2653L25.2197 16.1812L28.7197 12.6812L28.797 12.6137L28.8948 12.5507L28.965 12.5176L29.0427 12.4906L29.09 12.4787L29.1567 12.4673Z" fill="false"/></g></g><g stroke="none" stroke-width="1" fill="none" fill-rule="evenodd" id="icon-flow-distributedmap"><use href="#icon-flow-map"/></g><g stroke="none" stroke-width="1" fill="none" fill-rule="evenodd" id="icon-flow-choice"><g transform="translate(9.252020, 8.729185)" fill="#0073BB" fill-rule="nonzero"><path d="M13.7176503,0.219669914 C13.9839168,-0.0465966484 14.4005805,-0.0708026996 14.694192,0.147051761 L14.7783104,0.219669914 L26.7991257,12.2404852 C27.0653923,12.5067518 27.0895983,12.9234154 26.8717439,13.2170269 L26.7991257,13.3011454 L19.848,20.251 L27.063,27.58 L27.0635443,24.4725437 C27.0635443,24.0583302 27.3993308,23.7225437 27.8135443,23.7225437 C28.1901021,23.7225437 28.5018441,24.0000532 28.5554124,24.3617142 L28.5635443,24.4725437 L28.5635443,29.4222912 C28.5635443,29.4735748 28.5583971,29.5236562 28.5485912,29.5720469 L28.5290567,29.6477745 L28.4912259,29.7440224 L28.4674556,29.7898473 L28.4399848,29.8348433 L28.3922808,29.8993609 L28.3266417,29.9693147 L28.2903734,30.0012261 L28.2103598,30.0588356 L28.1372883,30.0990133 L28.0408973,30.1372113 L27.9243738,30.1641593 C27.8841362,30.1698129 27.8491297,30.1722912 27.8135443,30.1722912 L22.8637969,30.1722912 C22.4495833,30.1722912 22.1137969,29.8365048 22.1137969,29.4222912 C22.1137969,29.0457334 22.3913063,28.7339914 22.7529674,28.6804231 L22.8637969,28.6722912 L26.032,28.672 L18.787,21.312 L14.7783104,25.3219606 C14.5120439,25.5882272 14.0953802,25.6124333 13.8017687,25.3945788 L13.7176503,25.3219606 L9.63,21.234 L2.386,28.671 L5.69974747,28.6722912 L5.81057697,28.6804231 C6.17223802,28.7339914 6.44974747,29.0457334 6.44974747,29.4222912 C6.44974747,29.801987 6.16759359,30.1157822 5.80151803,30.1654446 L5.69974747,30.1722912 L0.75,30.1722912 L0.645175107,30.1650238 L0.571316134,30.150876 L0.491748953,30.1266437 L0.399838514,30.0857012 L0.323957521,30.0396165 L0.243169757,29.975129 L0.170912131,29.8989347 L0.109961584,29.8134582 L0.0656949991,29.7297074 L0.0297396696,29.6320944 L0.0076057584,29.5294944 L6.67910172e-13,29.4222912 L6.67910172e-13,24.4725437 L0.00813192572,24.3617142 C0.0617002376,24.0000532 0.373442216,23.7225437 0.75,23.7225437 C1.12969577,23.7225437 1.44349096,24.0046976 1.49315338,24.3707732 L1.5,24.4725437 L1.499,27.433 L8.569,20.174 L1.69683498,13.3011454 C1.43056842,13.0348788 1.40636237,12.6182151 1.62421683,12.3246036 L1.69683498,12.2404852 L13.7176503,0.219669914 Z M14.3527697,23.728356 L25.2081355,12.7708153 L14.2479803,1.81066017 L3.28782524,12.7708153 L9.616,19.099 L14.3527697,23.728356 Z" fill="false"/><path d="M15.2319803,14.0468153 L15.2319803,13.2668153 C16.0033137,12.8508153 16.5579803,12.4218153 16.8959803,11.9798153 C17.2339803,11.5378153 17.4029803,11.0178153 17.4029803,10.4198153 C17.4029803,9.65714861 17.151647,9.06131528 16.6489803,8.63231528 C16.1463137,8.20331528 15.448647,7.98881528 14.5559803,7.98881528 C13.6979803,7.98881528 12.874647,8.19248195 12.0859803,8.59981528 L12.0859803,8.59981528 L12.0859803,10.3288153 C12.8313137,9.98214861 13.4943137,9.80881528 14.0749803,9.80881528 C14.395647,9.80881528 14.6404803,9.87814861 14.8094803,10.0168153 C14.9784803,10.1554819 15.0629803,10.3591486 15.0629803,10.6278153 C15.0629803,10.9138153 14.9763137,11.1651486 14.8029803,11.3818153 C14.629647,11.5984819 14.343647,11.8151486 13.9449803,12.0318153 L13.9449803,12.0318153 L13.1909803,12.4348153 L13.3339803,14.0468153 L15.2319803,14.0468153 Z M14.3089803,17.4398153 C14.7249803,17.4398153 15.0608137,17.3141486 15.3164803,17.0628153 C15.572147,16.8114819 15.6999803,16.4821486 15.6999803,16.0748153 C15.6999803,15.6674819 15.572147,15.3381486 15.3164803,15.0868153 C15.0608137,14.8354819 14.7249803,14.7098153 14.3089803,14.7098153 C13.8929803,14.7098153 13.557147,14.8354819 13.3014803,15.0868153 C13.0458137,15.3381486 12.9179803,15.6674819 12.9179803,16.0748153 C12.9179803,16.4821486 13.0458137,16.8114819 13.3014803,17.0628153 C13.557147,17.3141486 13.8929803,17.4398153 14.3089803,17.4398153 Z" fill="false"/></g></g><g stroke="none" stroke-width="1" fill="none" fill-rule="evenodd" id="icon-flow-distributedmap"><use href="#icon-flow-map"/></g><g stroke="none" stroke-width="1" fill="none" fill-rule="evenodd" id="icon-service-ddb"><polygon fill="url(#gradient-blue)" fill-rule="nonzero" points="0 0 48 0 48 48 0 48"/><path d="M34.5810287,19.5947556 L32.1910412,19.5947556 C31.9723757,19.5947556 31.7677101,19.4862534 31.6430441,19.3049671 C31.5183781,19.1230069 31.4897116,18.8911762 31.5670445,18.6842807 L33.2290358,14.2033421 L27.287067,14.2033421 L24.559748,20.2686823 L27.5243991,20.2686823 C27.738398,20.2686823 27.9397302,20.372467 28.0657296,20.5490358 C28.1903956,20.7242568 28.2250621,20.9500222 28.1563958,21.1555699 L25.7164086,28.5559589 L34.5810287,19.5947556 Z M36.6616844,19.3972951 L24.6624141,31.5279756 C24.5344148,31.6580435 24.3630824,31.7254361 24.1910833,31.7254361 C24.0697506,31.7254361 23.9490845,31.6924137 23.8410851,31.6250211 C23.5777532,31.4605829 23.4604204,31.1350764 23.5590866,30.8385486 L26.5990706,21.6165357 L23.5244201,21.6165357 C23.2977546,21.6165357 23.0870891,21.4999464 22.9637564,21.3078773 C22.841757,21.1144603 22.8237571,20.8725206 22.9177566,20.6636034 L26.2510724,13.2504097 C26.3590719,13.0098179 26.5957373,12.8554887 26.8577359,12.8554887 L34.1910307,12.8554887 C34.4096962,12.8554887 34.6143618,12.9639909 34.7390278,13.1452772 C34.8636938,13.3272374 34.8923603,13.5590681 34.8156941,13.7659636 L33.1530362,18.2469022 L36.1903535,18.2469022 C36.4596854,18.2469022 36.7036842,18.4113403 36.8063503,18.662715 C36.9096831,18.9147636 36.85235,19.2045521 36.6616844,19.3972951 L36.6616844,19.3972951 Z M30.8577149,32.241664 C29.0510577,33.4992112 25.7330752,34.163029 22.5457586,34.163029 C19.3351088,34.163029 15.9877931,33.4904502 14.1904692,32.214033 L14.1911358,34.7581063 C14.1911358,35.8673896 17.3697858,37.4140514 22.5457586,37.4140514 C27.542399,37.4140514 30.8577149,35.6126453 30.8577149,34.4211429 L30.8577149,32.241664 Z M32.2337077,30.0621851 C32.2337077,30.1868615 32.2123744,30.3068204 32.1910412,30.4261055 L32.1910412,34.4211429 C32.1910412,36.8149305 27.8643973,38.7619048 22.5457586,38.7619048 C17.9437828,38.7619048 13.2984739,37.5023358 12.8971426,35.0950696 L12.8578095,35.0950696 L12.8571429,31.7254361 L12.8571429,22.9643891 L12.8571429,13.5294154 L12.8578095,13.5294154 C12.8578095,10.8653831 17.8491166,9.42857143 22.5457586,9.42857143 C25.1730781,9.42857143 27.6990648,9.85516703 29.4770555,10.5991821 L28.9663915,11.8445986 C27.3450667,11.1652805 25.0044123,10.7764248 22.5457586,10.7764248 C17.3697858,10.7764248 14.1911358,12.3796964 14.1911358,13.5294154 C14.1911358,14.6791343 17.3697858,16.2824059 22.5457586,16.2824059 C22.6757579,16.2824059 22.8117572,16.2830798 22.9430898,16.2776884 L22.9950896,17.624194 C22.8450903,17.6302593 22.6957578,17.6302593 22.5457586,17.6302593 C19.3344421,17.6302593 15.9877931,16.9576805 14.1904692,15.6812633 L14.1904692,18.5865613 L14.1911358,18.5865613 L14.1911358,18.598018 C14.1944692,18.9511556 14.5171341,19.3602291 15.1004644,19.7443674 C16.4217908,20.60295 18.8004449,21.1899401 21.4597643,21.3119208 L21.399098,22.6584264 C18.6484457,22.5317282 16.2324584,21.9460859 14.6751333,21.0477416 C14.4684677,21.24655 14.1911358,21.751995 14.1911358,22.0256092 C14.1911358,23.1753282 17.3697858,24.7785998 22.5457586,24.7785998 C23.037756,24.7785998 23.5224201,24.7617516 23.9870843,24.7287292 L24.0810839,26.0732129 C23.5850865,26.1089311 23.0684225,26.1264532 22.5457586,26.1264532 C19.3344421,26.1264532 15.9877931,25.4538743 14.1904692,24.1774572 L14.1904692,26.6238111 L14.1911358,26.6238111 C14.1944692,26.9884054 14.5171341,27.3974789 15.1004644,27.7816171 C16.6124564,28.7648762 19.4664414,29.3774755 22.5457586,29.3774755 L22.7657574,29.3774755 L22.7657574,30.7253289 L22.5457586,30.7253289 C19.360442,30.7253289 15.9724598,30.053424 14.1911358,29.0297294 C13.9764703,29.2285377 14.1911358,29.7036561 14.1911358,30.0621851 C14.1911358,31.211904 17.3697858,32.8151756 22.5457586,32.8151756 C27.722398,32.8151756 30.9003813,31.211904 30.9003813,30.0621851 C30.9003813,29.6558073 30.5010501,29.2790822 30.1723852,29.0364686 C29.8997199,29.2009067 29.5997215,29.3586056 29.2577233,29.5028259 L28.745726,28.2580833 C29.0997241,28.1091455 29.4057225,27.9494249 29.6550545,27.7836389 C30.3890507,27.2943681 30.8577149,26.5982018 30.8577149,26.3340226 L32.1910412,26.3340226 C32.1910412,26.9607744 31.7770434,27.6320054 31.2463795,28.1839514 C32.041042,28.8774219 32.2337077,29.5695446 32.2337077,30.0621851 L32.2337077,30.0621851 Z M14.9517985,35.0209377 C15.4791291,35.2932041 16.0957925,35.5358177 16.7864555,35.7413653 L17.1624536,34.4481 C16.5517901,34.2668137 16.0117929,34.0552007 15.558462,33.8206742 L14.9517985,35.0209377 Z M16.7864555,27.654245 L17.1624536,26.3616536 C16.5517901,26.1796934 16.0117929,25.9687543 15.558462,25.7342278 L14.9517985,26.9338173 C15.4791291,27.2067576 16.0957925,27.4486973 16.7864555,27.654245 L16.7864555,27.654245 Z M14.9517985,18.8473709 L15.558462,17.6471075 C16.0117929,17.881634 16.5517901,18.092573 17.1624536,18.2745332 L16.7864555,19.5677986 C16.0957925,19.3622509 15.4791291,19.1196373 14.9517985,18.8473709 L14.9517985,18.8473709 Z" fill="#FFFFFF"/></g><g stroke="none" stroke-width="1" fill="none" fill-rule="evenodd" id="icon-service-lam"><polygon fill="url(#gradient-orange)" fill-rule="nonzero" points="0 0 48 0 48 48 0 48"/><g transform="translate(11, 10)" fill="#FFFFFF"><path d="M26.5889213,27.8937088 L19.6925948,27.8937088 C19.4772752,27.8931074 19.2813916,27.7706914 19.1888047,27.578869 L9.43766764,7.45673404 L5.31218659,7.45673404 C5.00303594,7.45673404 4.75241983,7.20943823 4.75241983,6.90438337 L4.75241983,0.828526005 C4.75241983,0.523471153 5.00303594,0.276175335 5.31218659,0.276175335 L13.9325948,0.276175335 C14.1479143,0.276776788 14.3437979,0.399192787 14.4363848,0.591015217 L24.1427405,20.7131501 L26.5889213,20.7131501 C26.8980719,20.7131501 27.148688,20.9604459 27.148688,21.2655008 L27.148688,27.3413582 C27.148688,27.646413 26.8980719,27.8937088 26.5889213,27.8937088 Z M20.0452478,26.7890075 L26.0291545,26.7890075 L26.0291545,21.8178515 L23.7900875,21.8178515 C23.5747679,21.81725 23.3788843,21.694834 23.2862974,21.5030116 L13.5799417,1.38087667 L5.87755102,1.38087667 L5.87755102,6.3520327 L9.79591837,6.3520327 C10.0112379,6.35263416 10.2071215,6.47505016 10.2997085,6.66687259 L20.0452478,26.7890075 Z"/><path d="M8.10542274,27.8937099 L0.82845481,27.8937099 C0.635054571,27.8940907 0.455155006,27.7959347 0.352653061,27.634104 C0.243858391,27.4681848 0.233185428,27.2575536 0.324664723,27.0817533 L7.93749271,11.3894708 C8.03007964,11.1976484 8.22596323,11.0752324 8.4412828,11.0746298 L8.4412828,11.0746298 C8.65533487,11.0742082 8.85089022,11.1942751 8.94507289,11.3839473 L12.5891545,18.7799228 C12.6634688,18.931712 12.6634688,19.1086786 12.5891545,19.2604679 L8.6148105,27.5457279 C8.53147526,27.7523199 8.33072312,27.8894609 8.10542274,27.8937099 L8.10542274,27.8937099 Z M1.72408163,26.7890075 L7.75276968,26.7890075 L11.4640233,19.0560981 L8.44688047,12.8973881 L1.72408163,26.7890075 Z"/></g></g><g stroke="none" stroke-width="1" fill="none" fill-rule="evenodd" id="icon-service-states"><polygon fill="url(#gradient-states)" fill-rule="nonzero" points="0 0 48 0 48 48 0 48"/><g transform="translate(7.714286, 7.714286)" fill="#FFFFFF"><path d="M26.9059233,12.3928716 L26.9059233,8.47912299 C26.9059233,8.11887237 26.6121138,7.82683155 26.2496813,7.82683155 L17.0622929,7.82683155 L17.0622929,6.45701954 C18.7127174,6.12215613 19.8399485,4.59949006 19.6706454,2.9336515 C19.5013424,1.26781294 18.0905083,0 16.4060508,0 C14.7215933,0 13.3107593,1.26781294 13.1414562,2.9336515 C12.9721531,4.59949006 14.0993842,6.12215613 15.7498088,6.45701954 L15.7498088,7.82683155 L6.56242033,7.82683155 C6.19998786,7.82683155 5.9061783,8.11887237 5.9061783,8.47912299 L5.9061783,11.0882887 L0.656242033,11.0882887 C0.293809566,11.0882887 0,11.3803295 0,11.7405802 L0,15.0020373 C0,15.362288 0.293809566,15.6543288 0.656242033,15.6543288 L5.9061783,15.6543288 L5.9061783,16.9589116 L0.656242033,16.9589116 C0.293809566,16.9589116 0,17.2509525 0,17.6112031 L0,20.8726603 C0,21.2329109 0.293809566,21.5249517 0.656242033,21.5249517 L5.9061783,21.5249517 L5.9061783,24.1341174 C5.9061783,24.494368 6.19998786,24.7864089 6.56242033,24.7864089 L15.7498088,24.7864089 L15.7498088,26.1562209 C14.0993842,26.4910843 12.9721531,28.0137504 13.1414562,29.6795889 C13.3107593,31.3454275 14.7215933,32.6132404 16.4060508,32.6132404 C18.0905083,32.6132404 19.5013424,31.3454275 19.6706454,29.6795889 C19.8399485,28.0137504 18.7127174,26.4910843 17.0622929,26.1562209 L17.0622929,24.7864089 L26.2496813,24.7864089 C26.6121138,24.7864089 26.9059233,24.494368 26.9059233,24.1341174 L26.9059233,20.8726603 L25.5934393,20.8726603 L25.5934393,23.481826 L7.21866236,23.481826 L7.21866236,21.5249517 L12.4685986,21.5249517 C12.8310311,21.5249517 13.1248407,21.2329109 13.1248407,20.8726603 L13.1248407,17.6112031 C13.1248407,17.2509525 12.8310311,16.9589116 12.4685986,16.9589116 L7.21866236,16.9589116 L7.21866236,15.6543288 L12.4685986,15.6543288 C12.8310311,15.6543288 13.1248407,15.362288 13.1248407,15.0020373 L13.1248407,11.7405802 C13.1248407,11.3803295 12.8310311,11.0882887 12.4685986,11.0882887 L7.21866236,11.0882887 L7.21866236,9.13141442 L25.5934393,9.13141442 L25.5934393,12.3928716 L26.9059233,12.3928716 Z M18.3747769,29.3524489 C18.3747769,30.4332008 17.4933482,31.3093232 16.4060508,31.3093232 C15.3187534,31.3093232 14.4373247,30.4332008 14.4373247,29.3524489 C14.4373247,28.2716971 15.3187534,27.3955746 16.4060508,27.3955746 C17.4933482,27.3955746 18.3747769,28.2716971 18.3747769,29.3524489 L18.3747769,29.3524489 Z M11.8123566,18.2634945 L11.8123566,20.2203688 L1.31248407,20.2203688 L1.31248407,18.2634945 L11.8123566,18.2634945 Z M11.8123566,12.3928716 L11.8123566,14.3497459 L1.31248407,14.3497459 L1.31248407,12.3928716 L11.8123566,12.3928716 Z M14.4373247,3.2607915 C14.4373247,2.18003967 15.3187534,1.3039172 16.4060508,1.3039172 C17.4933482,1.3039172 18.3747769,2.18003967 18.3747769,3.2607915 C18.3747769,4.34154334 17.4933482,5.21766581 16.4060508,5.21766581 C15.3187534,5.21766581 14.4373247,4.34154334 14.4373247,3.2607915 Z"/><path d="M32.7614824,13.0452962 L19.4197022,13.0452962 C19.0512792,13.0452962 18.7526132,13.3292132 18.7526132,13.6794425 L18.7526132,18.1184669 C18.7526132,18.4686963 19.0512792,18.7526132 19.4197022,18.7526132 L32.7614824,18.7526132 C33.1299055,18.7526132 33.4285714,18.4686963 33.4285714,18.1184669 L33.4285714,13.6794425 C33.4285714,13.3292132 33.1299055,13.0452962 32.7614824,13.0452962 Z M32.0943934,17.4843206 L20.0867913,17.4843206 L20.0867913,14.3135889 L32.0943934,14.3135889 L32.0943934,17.4843206 Z"/></g></g><g stroke="none" stroke-width="1" fill="none" fill-rule="evenodd" id="icon-service-events"><g fill="url(#gradient-pink)" fill-rule="nonzero"><rect x="0" y="0" width="48" height="48"/></g><path d="M31.2584891,38.2790698 C30.1297571,38.2790698 29.2116636,37.367814 29.2116636,36.2474884 C29.2116636,35.1271628 30.1297571,34.215907 31.2584891,34.215907 C32.3872211,34.215907 33.3053146,35.1271628 33.3053146,36.2474884 C33.3053146,37.367814 32.3872211,38.2790698 31.2584891,38.2790698 L31.2584891,38.2790698 Z M26.4152555,28.9069767 L20.5442511,28.9069767 L17.6083857,23.8604651 L20.5442511,18.8139535 L26.4152555,18.8139535 L29.3511208,23.8604651 L26.4152555,28.9069767 Z M16.4680323,13.5050233 C15.3393003,13.5050233 14.4204804,12.5937674 14.4204804,11.4734419 C14.4204804,10.3531163 15.3393003,9.44186047 16.4680323,9.44186047 C17.5960379,9.44186047 18.5148577,10.3531163 18.5148577,11.4734419 C18.5148577,12.5937674 17.5960379,13.5050233 16.4680323,13.5050233 L16.4680323,13.5050233 Z M31.2584891,32.7740465 C30.8677183,32.7740465 30.4980114,32.8526279 30.1464629,32.9701395 L27.9093364,29.2227442 L30.8190535,24.2209302 C30.948342,23.9974419 30.948342,23.7234884 30.8190535,23.5 L27.4633638,17.7325581 C27.3340753,17.5090698 27.0943832,17.372093 26.8343535,17.372093 L20.8333343,17.372093 L18.8315419,14.0190465 C19.5251964,13.383907 19.9675373,12.4820233 19.9675373,11.4734419 C19.9675373,9.55865116 18.397917,8 16.4680323,8 C14.5374211,8 12.9678009,9.55865116 12.9678009,11.4734419 C12.9678009,13.3889535 14.5374211,14.9468837 16.4680323,14.9468837 C16.8588031,14.9468837 17.22851,14.8683023 17.5800585,14.7507907 L19.4293195,17.847186 L16.1411794,23.5 C16.0111645,23.7234884 16.0111645,23.9974419 16.1411794,24.2209302 L19.4961428,29.9883721 C19.6254313,30.2118605 19.8651234,30.3488372 20.125153,30.3488372 L26.8343535,30.3488372 C26.8532384,30.3488372 26.8706705,30.3430698 26.8881027,30.3416279 L28.8949795,33.7018837 C28.201325,34.3370233 27.7589841,35.238907 27.7589841,36.2474884 C27.7589841,38.1622791 29.3286043,39.7209302 31.2584891,39.7209302 C33.1883739,39.7209302 34.7579941,38.1622791 34.7579941,36.2474884 C34.7579941,34.3319767 33.1883739,32.7740465 31.2584891,32.7740465 L31.2584891,32.7740465 Z M34.6265266,19.2724651 C33.4977946,19.2724651 32.5789748,18.3612093 32.5789748,17.2408837 C32.5789748,16.1205581 33.4977946,15.2093023 34.6265266,15.2093023 C35.7545323,15.2093023 36.6733521,16.1205581 36.6733521,17.2408837 C36.6733521,18.3612093 35.7545323,19.2724651 34.6265266,19.2724651 L34.6265266,19.2724651 Z M36.8222518,19.9234651 C37.6110568,19.2861628 38.1260317,18.3273256 38.1260317,17.2408837 C38.1260317,15.326093 36.5564114,13.7674419 34.6265266,13.7674419 C34.1667536,13.7674419 33.7302233,13.8611628 33.3285575,14.0219302 L31.3616293,11.1951628 C31.2250775,11.0005116 31.0013648,10.8837209 30.7631254,10.8837209 L24.2260674,10.8837209 L24.2260674,12.3255814 L30.3825233,12.3255814 L32.1206544,14.8243256 C31.50835,15.450093 31.1262953,16.3015116 31.1262953,17.2408837 C31.1262953,19.1563953 32.6959155,20.7143256 34.6265266,20.7143256 C34.9395791,20.7143256 35.2381047,20.6602558 35.5279143,20.5831163 L37.4352825,23.8604651 L34.6606646,28.6301395 L35.9186851,29.3510698 L38.9024889,24.2209302 C39.0325037,23.9974419 39.0325037,23.7234884 38.9024889,23.5 L36.8222518,19.9234651 Z M12.8363334,32.2492093 C11.7076014,32.2492093 10.7887816,31.3379535 10.7887816,30.2176279 C10.7887816,29.0973023 11.7076014,28.1860465 12.8363334,28.1860465 C13.9643391,28.1860465 14.8831589,29.0973023 14.8831589,30.2176279 C14.8831589,31.3379535 13.9643391,32.2492093 12.8363334,32.2492093 L12.8363334,32.2492093 Z M14.936908,32.9780698 C15.7809148,32.3436512 16.3358384,31.3480465 16.3358384,30.2176279 C16.3358384,28.3028372 14.7662182,26.744186 12.8363334,26.744186 C12.3308009,26.744186 11.8528693,26.8559302 11.4192445,27.0476977 L9.56489904,23.8604651 L12.7891213,18.3172326 L11.5311008,17.5963023 L8.09696636,23.5 C7.96767788,23.7234884 7.96767788,23.9974419 8.09696636,24.2209302 L10.2411214,27.9077674 C9.68547145,28.5234419 9.33610202,29.3272791 9.33610202,30.2176279 C9.33610202,32.1331395 10.9057223,33.6910698 12.8363334,33.6910698 C13.1014474,33.6910698 13.357119,33.6564651 13.6048009,33.6009535 L15.6385522,36.5257674 C15.7743778,36.7204186 15.9973641,36.8372093 16.2363299,36.8372093 L22.7733878,36.8372093 L22.7733878,35.3953488 L16.6183846,35.3953488 L14.936908,32.9780698 Z" fill="#FFFFFF"/></g></defs></g></svg>
